<svg width="91" height="15" viewBox="0 0 91 15" fill="none" xmlns="http://www.w3.org/2000/svg">
<g clip-path="url(#clip0_36_2)">
<path d="M15.1634 5.39297C12.6749 5.39297 10.9042 7.22283 10.9042 9.71128C10.9042 12.1997 12.6887 14 15.1929 14C16.9479 14 18.5214 13.1304 19.1662 11.2868H17.4112C17.0208 12.0972 16.1966 12.5172 15.2067 12.5172C13.8265 12.5172 12.7617 11.6772 12.6276 10.1628H19.3298C19.4955 7.44762 17.8174 5.39297 15.1634 5.39297ZM12.7183 8.78255C13.0022 7.67241 13.8718 6.86396 15.1634 6.86396C16.4076 6.86396 17.2634 7.65861 17.5177 8.78255H12.7183Z" fill="black"/>
<path d="M27.8344 5.75183H25.7955L24.0268 8.51239L22.1969 5.75183H20.1718L22.962 9.75662L20.0062 14H22.047L23.9656 11.0462L25.9611 14H27.9842L25.0462 9.7862L27.8344 5.75183Z" fill="black"/>
<path d="M31.1352 2.45297H29.4256V14H31.1352V2.45297Z" fill="black"/>
<path d="M37.1335 5.39297C34.6451 5.39297 32.8744 7.22283 32.8744 9.71128C32.8744 12.1997 34.6589 14 37.1631 14C38.918 14 40.4915 13.1304 41.1363 11.2868H39.3814C38.991 12.0972 38.1668 12.5172 37.1769 12.5172C35.7966 12.5172 34.7318 11.6772 34.5977 10.1628H41.3C41.4676 7.44762 39.7876 5.39297 37.1335 5.39297ZM34.6884 8.78255C34.9724 7.67241 35.8439 6.86396 37.1335 6.86396C38.3777 6.86396 39.2335 7.65861 39.4879 8.78255H34.6884Z" fill="black"/>
<path d="M48.9961 12.0203C48.3513 12.2451 47.7656 12.4245 47.2411 12.4245C46.1763 12.4245 45.6223 11.7639 45.6223 10.5651V7.1617H49.0118V5.5724H45.6223V3.32254L43.9285 3.69719V5.5724H42.3983V7.1617H43.9285V10.6558C43.9285 12.9352 45.2476 14 46.9434 14C47.8879 14 48.8482 13.6707 49.2978 13.4006L48.9961 12.0203Z" fill="black"/>
<path d="M7.19914 4.13296V7.79268H1.81604V4.13296L0.12027 3.51578V14H1.81604V9.41155H7.19914V14H8.89295V3.51578L7.19914 4.13296Z" fill="black"/>
<path d="M9.01324 1.68789L4.50761 0L0 1.68789L4.50761 3.32845L9.01324 1.68789Z" fill="#136EF6"/>
</g>
<path d="M59.64 4.82C59.08 4.82 58.595 4.925 58.185 5.135C57.785 5.345 57.455 5.625 57.195 5.975C56.935 6.325 56.74 6.735 56.61 7.205C56.49 7.665 56.43 8.15 56.43 8.66C56.43 9.18 56.495 9.675 56.625 10.145C56.755 10.615 56.95 11.03 57.21 11.39C57.48 11.74 57.82 12.02 58.23 12.23C58.64 12.44 59.125 12.545 59.685 12.545C60.375 12.545 60.95 12.395 61.41 12.095C61.88 11.795 62.175 11.39 62.295 10.88H64.035C63.955 11.39 63.785 11.845 63.525 12.245C63.275 12.645 62.96 12.985 62.58 13.265C62.2 13.535 61.76 13.745 61.26 13.895C60.76 14.035 60.225 14.105 59.655 14.105C58.825 14.105 58.095 13.97 57.465 13.7C56.845 13.43 56.325 13.055 55.905 12.575C55.485 12.095 55.17 11.525 54.96 10.865C54.75 10.205 54.645 9.48 54.645 8.69C54.645 7.92 54.75 7.205 54.96 6.545C55.18 5.875 55.5 5.3 55.92 4.82C56.34 4.33 56.86 3.95 57.48 3.68C58.11 3.4 58.84 3.26 59.67 3.26C60.84 3.26 61.805 3.535 62.565 4.085C63.325 4.635 63.785 5.445 63.945 6.515H62.235C62.105 5.995 61.815 5.585 61.365 5.285C60.915 4.975 60.34 4.82 59.64 4.82ZM66.265 3.395L69.43 12.14L72.58 3.395H74.455L70.465 14H68.35L64.345 3.395H66.265Z" fill="#136EF6"/>
<defs>
<clipPath id="clip0_36_2">
<rect width="49.2958" height="14" fill="white"/>
</clipPath>
</defs>
</svg>
