<svg width="244" height="24" viewBox="0 0 244 24" fill="none" xmlns="http://www.w3.org/2000/svg">
<path d="M11.8315 13.7593C8.39533 13.7593 5.50228 16.0846 4.64017 19.2476C4.35152 20.3066 5.26831 21.2123 6.36596 21.2123H17.297C18.3947 21.2123 19.3115 20.3066 19.0228 19.2476C18.1608 16.0846 15.2677 13.7593 11.8315 13.7593Z" fill="#136EF6" stroke="#136EF6" stroke-width="1.25" stroke-linecap="round"/>
<path d="M15.4026 6.9561C15.4026 8.87699 13.8455 10.4342 11.9246 10.4342C10.0037 10.4342 8.44653 8.87699 8.44653 6.9561C8.44653 5.03521 10.0037 3.47803 11.9246 3.47803C13.8455 3.47803 15.4026 5.03521 15.4026 6.9561Z" fill="#136EF6" stroke="#136EF6" stroke-width="1.25" stroke-linecap="round"/>
<path d="M36.3857 13.4155C32.9495 13.4155 30.0565 15.7409 29.1944 18.9038C28.9057 19.9628 29.8225 20.8685 30.9202 20.8685H41.8512C42.9489 20.8685 43.8657 19.9628 43.577 18.9038C42.715 15.7409 39.8219 13.4155 36.3857 13.4155Z" fill="#136EF6" stroke="#136EF6" stroke-width="1.25" stroke-linecap="round"/>
<path d="M39.8638 6.9561C39.8638 8.87699 38.3066 10.4342 36.3857 10.4342C34.4649 10.4342 32.9077 8.87699 32.9077 6.9561C32.9077 5.03521 34.4649 3.47803 36.3857 3.47803C38.3066 3.47803 39.8638 5.03521 39.8638 6.9561Z" fill="#136EF6" stroke="#136EF6" stroke-width="1.25" stroke-linecap="round"/>
<path d="M60.8468 13.4155C57.4107 13.4155 54.5177 15.7409 53.6556 18.9038C53.3669 19.9628 54.2837 20.8685 55.3813 20.8685H66.3124C67.4101 20.8685 68.3269 19.9628 68.0382 18.9038C67.1761 15.7409 64.2831 13.4155 60.8468 13.4155Z" fill="#136EF6" stroke="#136EF6" stroke-width="1.25" stroke-linecap="round"/>
<path d="M64.325 6.9561C64.325 8.87699 62.7678 10.4342 60.8469 10.4342C58.926 10.4342 57.3689 8.87699 57.3689 6.9561C57.3689 5.03521 58.926 3.47803 60.8469 3.47803C62.7678 3.47803 64.325 5.03521 64.325 6.9561Z" fill="#136EF6" stroke="#136EF6" stroke-width="1.25" stroke-linecap="round"/>
<path d="M85.308 13.4155C81.8719 13.4155 78.9788 15.7409 78.1167 18.9038C77.8281 19.9628 78.7449 20.8685 79.8425 20.8685H90.7736C91.8712 20.8685 92.7881 19.9628 92.4994 18.9038C91.6373 15.7409 88.7443 13.4155 85.308 13.4155Z" fill="#136EF6" stroke="#136EF6" stroke-width="1.25" stroke-linecap="round"/>
<path d="M88.7862 6.9561C88.7862 8.87699 87.229 10.4342 85.3081 10.4342C83.3872 10.4342 81.8301 8.87699 81.8301 6.9561C81.8301 5.03521 83.3872 3.47803 85.3081 3.47803C87.229 3.47803 88.7862 5.03521 88.7862 6.9561Z" fill="#136EF6" stroke="#136EF6" stroke-width="1.25" stroke-linecap="round"/>
<path d="M109.769 13.4155C106.333 13.4155 103.44 15.7409 102.578 18.9038C102.289 19.9628 103.206 20.8685 104.304 20.8685H115.235C116.332 20.8685 117.249 19.9628 116.961 18.9038C116.098 15.7409 113.205 13.4155 109.769 13.4155Z" fill="#136EF6" stroke="#136EF6" stroke-width="1.25" stroke-linecap="round"/>
<path d="M113.247 6.9561C113.247 8.87699 111.69 10.4342 109.769 10.4342C107.848 10.4342 106.291 8.87699 106.291 6.9561C106.291 5.03521 107.848 3.47803 109.769 3.47803C111.69 3.47803 113.247 5.03521 113.247 6.9561Z" fill="#136EF6" stroke="#136EF6" stroke-width="1.25" stroke-linecap="round"/>
<path d="M134.23 13.4155C130.794 13.4155 127.901 15.7409 127.039 18.9038C126.75 19.9628 127.667 20.8685 128.765 20.8685H139.696C140.793 20.8685 141.71 19.9628 141.421 18.9038C140.559 15.7409 137.666 13.4155 134.23 13.4155Z" fill="#136EF6" stroke="#136EF6" stroke-width="1.25" stroke-linecap="round"/>
<path d="M137.708 6.9561C137.708 8.87699 136.151 10.4342 134.23 10.4342C132.309 10.4342 130.752 8.87699 130.752 6.9561C130.752 5.03521 132.309 3.47803 134.23 3.47803C136.151 3.47803 137.708 5.03521 137.708 6.9561Z" fill="#136EF6" stroke="#136EF6" stroke-width="1.25" stroke-linecap="round"/>
<path d="M158.691 13.4155C155.255 13.4155 152.362 15.7409 151.5 18.9038C151.211 19.9628 152.128 20.8685 153.226 20.8685H164.157C165.255 20.8685 166.171 19.9628 165.883 18.9038C165.021 15.7409 162.128 13.4155 158.691 13.4155Z" fill="#136EF6" stroke="#136EF6" stroke-width="1.25" stroke-linecap="round"/>
<path d="M162.169 6.9561C162.169 8.87699 160.612 10.4342 158.691 10.4342C156.771 10.4342 155.213 8.87699 155.213 6.9561C155.213 5.03521 156.771 3.47803 158.691 3.47803C160.612 3.47803 162.169 5.03521 162.169 6.9561Z" fill="#136EF6" stroke="#136EF6" stroke-width="1.25" stroke-linecap="round"/>
<path d="M207.614 13.4155C204.178 13.4155 201.285 15.7409 200.422 18.9038C200.134 19.9628 201.051 20.8685 202.148 20.8685H213.079C214.177 20.8685 215.094 19.9628 214.805 18.9038C213.943 15.7409 211.05 13.4155 207.614 13.4155Z" stroke="#136EF6" stroke-width="1.25" stroke-linecap="round"/>
<path d="M211.092 6.9561C211.092 8.87699 209.535 10.4342 207.614 10.4342C205.693 10.4342 204.136 8.87699 204.136 6.9561C204.136 5.03521 205.693 3.47803 207.614 3.47803C209.535 3.47803 211.092 5.03521 211.092 6.9561Z" stroke="#136EF6" stroke-width="1.25" stroke-linecap="round"/>
<path d="M232.075 13.4155C228.639 13.4155 225.746 15.7409 224.884 18.9038C224.595 19.9628 225.512 20.8685 226.609 20.8685H237.54C238.638 20.8685 239.555 19.9628 239.266 18.9038C238.404 15.7409 235.511 13.4155 232.075 13.4155Z" stroke="#136EF6" stroke-width="1.25" stroke-linecap="round"/>
<path d="M235.553 6.9561C235.553 8.87699 233.996 10.4342 232.075 10.4342C230.154 10.4342 228.597 8.87699 228.597 6.9561C228.597 5.03521 230.154 3.47803 232.075 3.47803C233.996 3.47803 235.553 5.03521 235.553 6.9561Z" stroke="#136EF6" stroke-width="1.25" stroke-linecap="round"/>
<mask id="mask0_111_49" style="mask-type:alpha" maskUnits="userSpaceOnUse" x="183" y="2" width="11" height="20">
<rect x="183.291" y="2" width="10" height="20" fill="#136EF6"/>
</mask>
<g mask="url(#mask0_111_49)">
<path d="M186.791 7C186.791 8.933 185.224 10.5 183.291 10.5C181.358 10.5 179.791 8.933 179.791 7C179.791 5.067 181.358 3.5 183.291 3.5C185.224 3.5 186.791 5.067 186.791 7Z" stroke="#136EF6" stroke-width="1.2" stroke-linecap="round"/>
<path d="M183.291 13.5C179.833 13.5 176.922 15.8088 176.054 18.9493C175.764 20.0008 176.686 20.9 177.791 20.9H188.791C189.895 20.9 190.818 20.0008 190.527 18.9493C189.66 15.8088 186.749 13.5 183.291 13.5Z" stroke="#136EF6" stroke-width="1.2" stroke-linecap="round"/>
</g>
<mask id="mask1_111_49" style="mask-type:alpha" maskUnits="userSpaceOnUse" x="174" y="1" width="10" height="22">
<rect x="174.286" y="1.52881" width="9.17293" height="21.4035" fill="white"/>
</mask>
<g mask="url(#mask1_111_49)">
<path d="M183.059 13.4153C179.623 13.4153 176.73 15.7406 175.868 18.9036C175.58 19.9626 176.496 20.8683 177.594 20.8683H188.525C189.623 20.8683 190.54 19.9626 190.251 18.9036C189.389 15.7406 186.496 13.4153 183.059 13.4153Z" fill="#136EF6" stroke="#136EF6" stroke-width="1.25" stroke-linecap="round"/>
<path d="M186.538 6.9561C186.538 8.87699 184.98 10.4342 183.06 10.4342C181.139 10.4342 179.582 8.87699 179.582 6.9561C179.582 5.03521 181.139 3.47803 183.06 3.47803C184.98 3.47803 186.538 5.03521 186.538 6.9561Z" fill="#136EF6" stroke="#136EF6" stroke-width="1.25" stroke-linecap="round"/>
</g>
</svg>
