<svg width="216" height="45" viewBox="0 0 216 45" fill="none" xmlns="http://www.w3.org/2000/svg"><path fill-rule="evenodd" clip-rule="evenodd" d="M12.878 0h19.361c4.479 0 6.102.465 7.74 1.338a9.116 9.116 0 013.797 3.788c.875 1.633 1.341 3.252 1.341 7.718v19.312c0 4.466-.466 6.085-1.341 7.718a9.116 9.116 0 01-3.798 3.788C38.341 44.535 36.718 45 32.24 45H12.878c-4.478 0-6.102-.465-7.739-1.338a9.116 9.116 0 01-3.797-3.788C.466 38.241 0 36.622 0 32.156V12.845c0-4.467.466-6.086 1.342-7.72a9.116 9.116 0 013.797-3.787C6.776.465 8.4 0 12.878 0z" fill="#0C73FE"/><path d="M18.81 24.188a.762.762 0 00-.763.76V25.36c.08 1.584 1.278 3.17 3.317 3.326l.03.003h.402a.762.762 0 100-1.523h-.342c-1.172-.102-1.829-.98-1.881-1.865v-.352a.762.762 0 00-.763-.76z" fill="#fff"/><path fill-rule="evenodd" clip-rule="evenodd" d="M20.902 11.89c-3.943.174-6.992 3.402-7.19 7.335-.1 1.972-.177 3.736-.177 5.375 0 1.529.068 3.06.157 4.82.2 3.912 3.243 7.112 7.168 7.288.594.026 1.17.042 1.699.042.545 0 1.14-.017 1.755-.045 3.898-.178 6.93-3.34 7.123-7.228.084-1.693.145-3.206.145-4.877 0-1.867-.068-3.59-.159-5.45-.19-3.9-3.225-7.08-7.135-7.256a38.768 38.768 0 00-1.73-.044c-.515 0-1.076.015-1.655.04zm-4.997 7.786c.15-2.997 2.431-5.445 5.37-5.58a28.4 28.4 0 011.284-.034c.419 0 .878.014 1.35.037 2.909.138 5.175 2.54 5.316 5.507.013.282.026.523.037.742.039.74.064 1.226.064 2.231 0 .993-.027 1.557-.069 2.407-.007.136-.014.28-.02.434-.142 2.955-2.406 5.34-5.303 5.48-.482.024-.949.038-1.375.038-.411 0-.86-.014-1.323-.035-2.921-.137-5.198-2.558-5.346-5.537-.01-.195-.02-.373-.028-.54-.043-.82-.07-1.368-.07-2.247 0-.844.025-1.307.065-2.01.014-.257.03-.544.048-.893z" fill="#fff"/><path fill-rule="evenodd" clip-rule="evenodd" d="M12.878 2.813h19.361c4.25 0 5.348.44 6.41 1.005a6.3 6.3 0 012.64 2.634c.568 1.059 1.009 2.154 1.009 6.393v.667a.575.575 0 01-.555.57c-.094.004-.19.008-.286.013-2.572.135-4.569 2.584-4.7 5.58-.014.348-.029.634-.041.889v.004c-.035.704-.058 1.167-.058 2.011 0 .88.025 1.427.062 2.246.008.168.016.346.024.54.13 2.98 2.122 5.4 4.678 5.538.108.006.216.01.322.015a.575.575 0 01.554.57v.668c0 4.238-.441 5.333-1.009 6.392a6.3 6.3 0 01-2.64 2.634c-1.062.566-2.16 1.005-6.41 1.005H12.878c-4.25 0-5.348-.44-6.409-1.005a6.301 6.301 0 01-2.64-2.634c-.568-1.059-1.01-2.154-1.01-6.392v-.668c0-.307.248-.557.555-.57.12-.005.243-.01.367-.018 2.535-.14 4.516-2.525 4.64-5.48.006-.151.012-.293.018-.428v-.007c.036-.849.06-1.413.06-2.406 0-1.005-.022-1.491-.055-2.232-.01-.218-.021-.459-.033-.741-.123-2.967-2.107-5.369-4.652-5.507a26.942 26.942 0 00-.345-.017.575.575 0 01-.554-.57v-.668c0-4.238.44-5.333 1.008-6.392A6.3 6.3 0 016.47 3.818c1.061-.566 2.16-1.006 6.409-1.006zm7.939 7.13c-5.021.22-8.813 4.318-9.058 9.184-.099 1.972-.179 3.78-.179 5.473 0 1.583.07 3.156.16 4.918.247 4.854 4.04 8.914 9.032 9.138.614.027 1.22.044 1.787.044.583 0 1.21-.018 1.844-.047 4.956-.227 8.748-4.24 8.987-9.08.084-1.702.147-3.253.147-4.973 0-1.915-.07-3.674-.161-5.544-.236-4.849-4.026-8.885-9-9.11A40.75 40.75 0 0022.56 9.9c-.553 0-1.143.016-1.742.042z" fill="#fff"/><path d="M175.521 11.154c-.849.836-2.12 1.198-3.793 1.198-1.668 0-2.974-.362-3.798-1.198-.849-.805-1.236-2.043-1.236-3.638v-.204h2.715v.204c0 .856.189 1.407.507 1.707l.01.01c.322.332.918.495 1.797.495.879 0 1.444-.163 1.767-.495l.01-.01c.328-.3.541-.856.541-1.707v-.204h2.716v.204c0 1.6-.422 2.838-1.236 3.638z" fill="#0C131D"/><path fill-rule="evenodd" clip-rule="evenodd" d="M157.783 27.25c.263-.361.442-.815.566-1.416l.04-.168h3.157l-.035.234c-.159 1.03-.452 1.911-.918 2.624-.457.74-1.018 1.32-1.713 1.758-.69.438-1.474.739-2.348.938-.909.199-1.877.265-2.934.265-1.316 0-2.477-.133-3.515-.433a6.125 6.125 0 01-2.685-1.447c-.725-.683-1.281-1.595-1.673-2.727-.393-1.105-.586-2.496-.586-4.142 0-1.681.188-3.108.581-4.244.387-1.132.943-2.074 1.668-2.788l.005-.005c.719-.672 1.608-1.177 2.651-1.477h.005a13.966 13.966 0 013.48-.428c2.447 0 4.403.632 5.848 1.91 1.419 1.295 2.129 3.246 2.129 5.83v2.39h-13.185c.02.937.169 1.716.397 2.297a3.567 3.567 0 001.053 1.483c.446.372.987.616 1.628.744.655.127 1.375.194 2.189.194.631 0 1.192-.031 1.748-.128h.009c.512-.066.969-.219 1.395-.438l.005-.005h.005c.407-.179.73-.449 1.033-.82zm-7.888-9.69c-.447.335-.81.8-1.083 1.42-.253.576-.407 1.3-.456 2.227h9.918c-.014-.866-.139-1.559-.362-2.134-.243-.627-.546-1.086-.958-1.453a3.91 3.91 0 00-1.474-.744 9.24 9.24 0 00-1.956-.224c-.75 0-1.405.066-2.026.194a3.946 3.946 0 00-1.603.713z" fill="#0C131D"/><path d="M183.886 25.493c.059-.678.124-1.55.124-2.65v-8.55h13.294v16.713h-3.192v-13.86h-7.005v6.09c0 2.623-.382 4.59-1.107 5.844-.744 1.314-1.961 1.926-3.604 1.926h-.705v-3.017h.199c.397 0 .71-.066.953-.204l.01-.005.005-.005c.228-.102.457-.351.635-.718.174-.362.298-.856.393-1.564zM140.011 25.447c-.125.662-.338 1.187-.601 1.584a3.475 3.475 0 01-1.018.984 4.144 4.144 0 01-1.395.494c-.556.097-1.117.127-1.747.127-.849 0-1.594-.066-2.244-.224-.67-.158-1.206-.433-1.618-.856l-.005-.005c-.447-.428-.78-1.014-1.028-1.773-.243-.754-.372-1.773-.372-3.032 0-1.289.124-2.313.372-3.133.248-.795.581-1.412 1.028-1.835l.005-.005c.412-.423.948-.703 1.618-.856.65-.158 1.4-.255 2.244-.255.586 0 1.147.062 1.653.128.486.097.938.25 1.36.494.387.245.72.555 1.023.958.268.397.481.892.6 1.518l.03.163h3.197l-.044-.24c-.194-1.09-.487-2.032-.949-2.781a6.293 6.293 0 00-1.673-1.82l-.004-.004a6.958 6.958 0 00-2.319-.973 13.205 13.205 0 00-2.869-.296 14.01 14.01 0 00-3.51.428h-.005c-1.043.3-1.961.805-2.686 1.478l-.005.005c-.725.713-1.281 1.656-1.668 2.787-.392 1.136-.581 2.563-.581 4.244 0 1.646.194 3.037.581 4.143.387 1.131.948 2.043 1.673 2.726a6.129 6.129 0 002.686 1.447c1.038.3 2.199.433 3.515.433 1.062 0 2.03-.097 2.934-.296a6.74 6.74 0 002.353-1.008c.695-.474 1.251-1.08 1.713-1.855.461-.75.754-1.692.918-2.818l.035-.234h-3.158l-.039.158zM212.803 25.447l.03-.168v.01H216l-.035.234c-.164 1.126-.456 2.069-.918 2.818-.462.774-1.018 1.38-1.713 1.855-.69.473-1.474.81-2.353 1.008-.903.2-1.872.296-2.934.296-1.315 0-2.477-.133-3.515-.433a6.125 6.125 0 01-2.685-1.447c-.725-.683-1.281-1.595-1.673-2.726-.388-1.106-.581-2.497-.581-4.143 0-1.681.188-3.108.581-4.244.387-1.131.943-2.074 1.668-2.787l.005-.005c.724-.673 1.643-1.177 2.685-1.478h.005a14.016 14.016 0 013.51-.428c1.028 0 1.966.097 2.869.296a6.906 6.906 0 012.319.973l.005.005a6.32 6.32 0 011.673 1.819c.461.749.754 1.691.948 2.782l.045.24h-3.197l-.03-.164a4.008 4.008 0 00-.601-1.518 3.806 3.806 0 00-1.023-.958 4.355 4.355 0 00-1.36-.494 12.697 12.697 0 00-1.653-.128c-.844 0-1.593.097-2.244.255-.67.153-1.206.433-1.618.856l-.005.005c-.447.423-.78 1.04-1.028 1.835-.248.82-.372 1.844-.372 3.133 0 1.259.129 2.278.372 3.032.248.76.581 1.345 1.028 1.773l.005.005c.412.423.948.698 1.618.856.651.158 1.395.224 2.244.224.631 0 1.192-.03 1.748-.127.521-.092.973-.25 1.395-.494.387-.245.714-.55 1.017-.984.263-.397.477-.922.601-1.584z" fill="#0C131D"/><path fill-rule="evenodd" clip-rule="evenodd" d="M122.069 15.21c-1.315-.948-3.142-1.406-5.421-1.406-1.092 0-2.09.097-2.934.3-.878.2-1.633.536-2.258.979l-.005.005c-.631.479-1.127 1.085-1.52 1.83-.397.748-.655 1.686-.784 2.781l-.025.23h3.098l.025-.174c.094-.637.243-1.13.481-1.523l.01-.01c.209-.398.472-.699.824-.938.353-.24.77-.397 1.286-.49a13.885 13.885 0 011.812-.127c1.574 0 2.631.29 3.282.775.63.469.968 1.274.968 2.476v1.152c-.37-.005-.708-.03-1.029-.052l-.123-.01h-.02c-.402 0-.809-.03-1.221-.066h-.02c-.213 0-.422-.005-.645-.015h-.02c-.229-.01-.472-.015-.73-.015-.238 0-.482-.005-.745-.015h-.044c-.278-.01-.576-.016-.894-.016-1.38 0-2.517.163-3.4.47h-.005c-.874.33-1.569.733-2.071 1.253a4.1 4.1 0 00-1.067 1.712 5.766 5.766 0 00-.263 1.793c0 .958.129 1.809.462 2.502.298.678.729 1.258 1.3 1.671.536.444 1.197.75 1.946.948.755.204 1.569.27 2.463.27 1.355 0 2.596-.234 3.708-.77a5.105 5.105 0 002.418-2.415v2.696h3.192V19.908c-.005-2.135-.69-3.74-2.031-4.698zm-1.166 9.875c-.06.76-.248 1.37-.536 1.819-.303.464-.69.83-1.162 1.07a5.55 5.55 0 01-1.658.535c-.626.097-1.216.127-1.847.127-1.39 0-2.393-.193-3.013-.56-.581-.341-.884-.973-.884-2.008 0-.346.03-.677.144-.968l.01-.02c.079-.28.273-.57.596-.805l.01-.01c.283-.23.749-.418 1.38-.581.62-.128 1.494-.224 2.561-.224.303 0 .616.005.948.015h.045c.348.01.715.015 1.097.015.71.03 1.495.061 2.314.092v1.503h-.005zM84.847 22.563c1.146.148 2.08.474 2.76 1.04.69.636 1.052 1.579 1.047 2.863 0 .652-.134 1.228-.332 1.768a3.555 3.555 0 01-1.008 1.452 5.11 5.11 0 01-1.683.983h-.005c-.695.24-1.48.337-2.383.337H73.96V14.293h8.588c1.033 0 1.916.133 2.636.367h.01c.715.265 1.28.57 1.748.983.461.413.804.861 1.007 1.386.199.51.298 1.024.298 1.575 0 1.207-.328 2.18-.948 2.817l-.005.006c-.606.59-1.42.957-2.447 1.08v.056zm-2.517-5.417h-5.173v4.056h5.749c.863 0 1.424-.219 1.717-.6.293-.424.467-.903.467-1.51 0-.3-.055-.57-.12-.83-.049-.198-.173-.361-.357-.55-.188-.163-.466-.285-.844-.413a6.036 6.036 0 00-1.44-.153zm.283 11.006c.903 0 1.598-.158 2.13-.463.49-.28.754-.79.754-1.585 0-.642-.179-1.146-.526-1.564-.323-.382-1.003-.612-2.105-.612h-5.71v4.224h5.457z" fill="#0C131D"/><path d="M94.348 25.538V14.293h-3.197v16.713h1.877l9.819-11.123v11.123h3.192V14.293h-1.876l-9.815 11.245z" fill="#0C131D"/><path fill-rule="evenodd" clip-rule="evenodd" d="M63.316 13.804c2.279 0 4.106.458 5.421 1.406 1.336.958 2.02 2.563 2.02 4.698v11.098h-3.191V28.31c-.532 1.086-1.336 1.896-2.418 2.416-1.112.535-2.353.769-3.708.769-.894 0-1.708-.066-2.463-.27-.75-.199-1.41-.505-1.946-.948-.57-.413-1.002-.994-1.3-1.671-.333-.693-.462-1.544-.462-2.502 0-.57.065-1.182.263-1.793a4.095 4.095 0 011.067-1.712c.507-.515 1.202-.918 2.066-1.249h.005c.883-.306 2.02-.469 3.4-.469.318 0 .616.005.894.016h.044c.264.01.507.015.745.015.258 0 .501.005.73.015h.02c.223.01.431.015.645.015h.02c.417.036.824.067 1.226.067h.02l.123.009c.321.023.66.047 1.029.052v-1.162c0-1.202-.338-2.007-.968-2.476-.65-.484-1.708-.775-3.282-.775-.685 0-1.31.061-1.812.128-.521.091-.933.25-1.286.489-.352.24-.615.54-.824.937l-.005.006v.01c-.233.392-.387.886-.481 1.523l-.025.173h-3.098l.025-.229c.13-1.095.387-2.033.784-2.782.393-.744.889-1.35 1.52-1.83l.005-.004c.625-.444 1.38-.775 2.263-.973.844-.204 1.842-.301 2.934-.301zm3.713 13.1c.288-.448.472-1.06.537-1.819h.005v-1.503c-.82-.03-1.609-.061-2.314-.092-.382 0-.75-.005-1.097-.015h-.045c-.332-.01-.645-.015-.948-.015-1.067 0-1.94.096-2.561.224-.63.163-1.098.351-1.38.58l-.01.01c-.323.235-.517.526-.596.806l-.01.02c-.114.29-.144.622-.144.968 0 1.035.303 1.667.884 2.008.62.367 1.623.56 3.013.56.63 0 1.221-.03 1.847-.127a5.539 5.539 0 001.658-.535c.472-.24.864-.606 1.162-1.07z" fill="#0C131D"/><path d="M167.478 25.538V14.293h-3.192v16.713h1.872l9.819-11.123v11.123h3.192V14.293h-1.876l-9.815 11.245z" fill="#0C131D"/></svg>