<svg xmlns="http://www.w3.org/2000/svg" width="182" height="55.6" style="enable-background:new 0 0 182 55.6" xml:space="preserve"><path style="fill:#fff" d="M0 0h33.3v55.6H0z"/><path d="M33.3 55.6h-6.8c-1 0-1.3-.1-1.7-.9-1.5-3.5-1.2-4.5.5-6.3 1.4-1.5 1.3-2.7.1-4.8 0 0-1.2-2.2-1.8-3.4-.6-1.2 2.5-1.8 1.3-3.4-.7-1-3.3-4.6-5.5-7.7-2.1-3-4.7-5.2-7.6-5-4.8.3-9.7 5.1-7.2 12.9C6 41.1 9 50.9 9.5 52.8c.6 1.9.4 2.8-1.4 2.8H0V0h33.3v55.6zM15.9 28.9c-.6 0-1.1.5-1.1 1.1s.5 1.1 1.1 1.1S17 30.6 17 30s-.5-1.1-1.1-1.1z" style="fill:#ed0c6d"/><path d="M9.7 9.4c-.4.7-1.6 2.1-3.8 1.4-.8-.3-1.4-1-1.7-1.9-.3-1.2 0-2.5 1-3.1.5-.3 1.6-.5 2 .2.2-.6.4-1.2.9-1.8l1.3.1s-1.1.8-1.9 2.8c.5-.8 1.3-1 1.7-.8 1.3.4 1.1 2.2.5 3.1zm8.9-3.1c-.5-.2-1.2.1-1.7.8.8-2.1 1.9-2.8 1.9-2.8l-1.3-.1c-.5.6-.7 1.2-.9 1.8-.3-.7-1.5-.5-1.8-.2-1 .6-1.3 1.9-1 3.1.2.9.8 1.6 1.7 1.9 2.1.8 3.4-.7 3.8-1.4.4-.9.7-2.7-.7-3.1zm9.5 0c-.5-.2-1.2.1-1.7.8.8-2.1 1.9-2.8 1.9-2.8L27 4.2c-.5.6-.7 1.2-.9 1.8-.3-.7-1.5-.5-1.8-.2-1 .6-1.3 1.9-1 3.1.2.9.8 1.6 1.7 1.9 2.1.8 3.4-.7 3.8-1.4.4-.9.7-2.7-.7-3.1zm-19 9c-.5-.2-1.2.1-1.7.8.8-2.1 1.9-2.8 1.9-2.8L8 13.2c-.5.6-.7 1.2-.9 1.8-.3-.7-1.5-.5-1.8-.2-1 .6-1.3 1.9-1 3.1.2.9.8 1.6 1.7 1.9 2.1.8 3.4-.7 3.8-1.4.5-.9.7-2.7-.7-3.1zm9.5 0c-.5-.2-1.2.1-1.7.8.8-2.1 1.9-2.8 1.9-2.8l-1.3-.1c-.5.6-.7 1.2-.9 1.8-.3-.7-1.5-.5-1.8-.2-1 .6-1.3 1.9-1 3.1.2.9.8 1.6 1.7 1.9 2.1.8 3.4-.7 3.8-1.4.4-.9.7-2.7-.7-3.1zm9.5 0c-.5-.2-1.2.1-1.7.8.8-2.1 1.9-2.8 1.9-2.8l-1.3-.1c-.5.6-.7 1.2-.9 1.8-.3-.7-1.5-.5-1.8-.2-1 .6-1.3 1.9-1 3.1.2.9.8 1.6 1.7 1.9 2.1.8 3.4-.7 3.8-1.4.4-.9.7-2.7-.7-3.1z" style="fill:#c3e600"/><path d="M40.7 25.5h9.4c4.6 0 5.8 2.9 5.8 4.8 0 2.7-1.5 3.5-2.3 3.9 2.3.9 2.9 2.7 2.9 4.5 0 1.6-.6 5.7-7.6 5.7h-8.2V25.5zm4 7.4h4.6c1.6 0 2.8-.6 2.8-2.1s-1.1-2-2.9-2h-4.5v4.1zm0 8.3h4.8c1.9 0 3.1-.9 3.1-2.8 0-1.6-1.4-2.3-2.8-2.3h-5l-.1 5.1zm26.2-.9c-1 3.4-3.8 4.5-6.2 4.5-3.9 0-7-1.9-7-7.7 0-1.7.6-7.1 6.7-7.1 3.9 0 6.6 2.2 6.6 7v1.4h-9.5c0 1.1.2 3.5 3.2 3.5 1 0 2.1-.6 2.4-1.5h3.8v-.1zM67.2 36c-.2-2.2-1.7-3-2.8-3-1.8 0-2.7 1.1-2.9 3h5.7zm9.1 8.4h-3.7v-19h3.7v19zm5.9 0h-3.7v-19h3.7v19zm2.3-16.3v-2.6h2.3v2.6h-2.3zm2.3 16.3h-2.3V30.6h2.3v13.8zm4.6-13.8v2h.1c.5-.7 1.8-2.4 4.2-2.4 2.1 0 4.8.9 4.8 4.8v9.4h-2.3v-8.5c0-2.4-.7-3.6-3-3.6-1.3 0-3.6.8-3.6 4.6v7.5h-2.3V30.6h2.1zm14-3.8v3.8h2.2v1.9h-2.2v9c0 1 .9 1.1 1.4 1.1h.8v1.8c-.7.1-1.5.2-1.7.2-2.3 0-2.8-1.3-2.8-3v-9.1h-1.9v-1.9h1.9v-3.8h2.3zm14.8 13.3c-.5 2.1-2 4.7-6.2 4.7-3.9 0-6.1-2.9-6.1-6.9 0-4.3 2-7.7 6.6-7.7 4 0 5.9 3.2 5.9 8.1h-10.1c0 2.9 1.3 4.5 4 4.5 2.2 0 3.6-1.7 3.6-2.7h2.3zm-2.2-3.7c-.1-2.1-1-4.1-3.9-4.1-2.1 0-3.8 2-3.8 4.1h7.7zm15-5.8v12.7c0 2-.1 7-6.4 7-1.6 0-4.8-.4-5.3-4.1h2.3c.4 2 2.6 2.2 3.1 2.2 3.8 0 3.9-3 3.9-5.4-.7 1.1-1.9 2-3.7 2-4.7 0-6-4.4-6-7.7 0-3.9 2.1-6.9 5.8-6.9 2.4 0 3.5 1.3 4.2 2.4v-2h2.1v-.2zm-9.7 6.9c0 3 1.2 5.3 3.7 5.3 1.5 0 3.7-1 3.7-4.7 0-2.3-.2-5.8-3.6-5.8-3.6 0-3.8 3.4-3.8 5.2zm14-6.9v2.3h.1c.9-1.6 2.1-2.7 3.9-2.7.3 0 .4 0 .6.1v2.4h-.9c-2.2 0-3.5 1.7-3.5 3.7v8h-2.3V30.6h2.1zm5.1 4.2c0-3.3 2.3-4.6 5.7-4.6 1.1 0 5.1.3 5.1 3.9V42c0 .6.3.9.8.9.2 0 .5-.1.8-.1v1.7c-.4.1-.7.3-1.3.3-2.1 0-2.4-1.1-2.5-2.1-.9 1-2.3 2.2-5 2.2-2.5 0-4.3-1.6-4.3-4 0-1.6.4-4.1 5.3-4.4 3.6-.3 3.9-.6 3.9-2 0-1.5-1-2.2-3.2-2.2-2.6 0-3 1.6-3.1 2.7h-2.2v-.2zm8.5 2.6c-.4.3-.9.5-3.8.9-1.1.2-3 .5-3 2.2 0 1.5.8 2.4 2.5 2.4 2.2 0 4.3-1.4 4.3-3.2v-2.3zm7.8-10.6v3.8h2.2v1.9h-2.2v9c0 1 .9 1.1 1.4 1.1h.8v1.8c-.7.1-1.5.2-1.7.2-2.3 0-2.8-1.3-2.8-3v-9.1h-1.9v-1.9h1.9v-3.8h2.3zm8.8 3.4c4.4 0 6.4 3.7 6.4 7.3s-2 7.3-6.4 7.3-6.4-3.8-6.4-7.3 2-7.3 6.4-7.3zm0 12.6c3.3 0 4-3.5 4-5.3s-.7-5.3-4-5.3-4 3.4-4 5.3.7 5.3 4 5.3zm9.9-12.2v2.3h.1c.9-1.6 2.1-2.7 3.9-2.7.3 0 .4 0 .6.1v2.4h-.9c-2.2 0-3.5 1.7-3.5 3.7v8h-2.3V30.6h2.1zM41.5 17.4l2.8-2.8h1.1L43 16.9l2.5 3.5h-1l-2-2.9-.9.9v2.1h-.8v-5.8h.8l-.1 2.7zm6.2-1.4c1.4 0 2 1.2 2 2.2 0 1.1-.6 2.3-2 2.3s-2-1.2-2-2.3c.1-1.1.7-2.2 2-2.2zm0 3.9c1 0 1.2-1.1 1.2-1.6 0-.6-.2-1.6-1.2-1.6s-1.2 1.1-1.2 1.6.2 1.6 1.2 1.6zm3.8-3.8 1.3 3.3 1.3-3.3h1v4.3h-.7V17h-.1L53 20.4h-.5L51.2 17h-.1v3.4h-.7v-4.3h1.1zm8.1 0v4.3h-.7v-3.7h-2v3.7h-.7v-4.3h3.4zm1 1.3c0-1 .7-1.4 1.8-1.4.3 0 1.6.1 1.6 1.2v2.4c0 .2.1.3.2.3h.2v.5c-.1 0-.2.1-.4.1-.6 0-.7-.3-.8-.7-.3.3-.7.7-1.5.7s-1.3-.5-1.3-1.2c0-.5.1-1.3 1.6-1.4 1.1-.1 1.2-.2 1.2-.6 0-.5-.3-.7-1-.7-.8 0-.9.5-1 .8h-.6zm2.6.8c-.1.1-.3.2-1.2.3-.4 0-.9.1-.9.7 0 .5.2.7.8.7.7 0 1.3-.4 1.3-1v-.7zm2.7-.4h2v-1.7h.7v4.3h-.7v-1.9h-2v1.9h-.7v-4.3h.7v1.7zm4.4 1.5 2.1-3.2h.7v4.3h-.7v-3.2l-2.1 3.2h-.7v-4.3h.7v3.2zm7.1 1.1h-.7v-1.8h-.9l-1 1.8H74l1.1-1.8c-.4-.1-1-.5-1-1.2 0-.8.6-1.2 1.5-1.2h1.8v4.2zm-.7-3.7h-1.1c-.5 0-.8.2-.8.7 0 .4.3.7.8.7h1.1v-1.4zm7.5 3.7h-.9l-1.1-1.6-1 1.6h-.9l1.5-2.2-1.4-2.1h.9l1 1.5 1-1.5h.9l-1.4 2.1 1.4 2.2zm2.1-4.4c1.4 0 2 1.2 2 2.2 0 1.1-.6 2.3-2 2.3s-2-1.2-2-2.3c0-1.1.6-2.2 2-2.2zm0 3.9c1 0 1.2-1.1 1.2-1.6 0-.6-.2-1.6-1.2-1.6s-1.2 1.1-1.2 1.6c-.1.5.1 1.6 1.2 1.6zm2.7-3.8h.7v.6c.2-.3.5-.7 1.3-.7 1.1 0 1.8.9 1.8 2.1 0 1-.4 2.4-1.9 2.4-.6 0-1-.3-1.2-.6v2.2H89v-6zm.8 2.1c0 .9.4 1.6 1.1 1.6.5 0 1.1-.3 1.1-1.4 0-.7-.1-1.8-1.1-1.8-1.1 0-1.1 1.1-1.1 1.6zm5.5-2.2c1.4 0 2 1.2 2 2.2 0 1.1-.6 2.3-2 2.3s-2-1.2-2-2.3c0-1.1.7-2.2 2-2.2zm0 3.9c1 0 1.2-1.1 1.2-1.6 0-.6-.2-1.6-1.2-1.6s-1.2 1.1-1.2 1.6.2 1.6 1.2 1.6zm3.5-.1h1.8v-3.7h.7v3.7h1.8v-3.7h.7v4.3h-5.7v-4.3h.7v3.7zm6.8-.5 2.1-3.2h.7v4.3h-.7v-3.2l-2.1 3.2h-.7v-4.3h.7v3.2zm7.4 1.1h-1l-1.1-1.6-1 1.6h-.9l1.5-2.2-1.4-2.1h.9l1 1.5 1-1.5h.9l-1.4 2.1 1.5 2.2zm3.5-1.1 2.1-3.2h.7v4.3h-.7v-3.2l-2.1 3.2h-.7v-4.3h.7v3.2zm7.4-3.2v3.7h.5v1.8h-.7v-1.3h-3.1v1.3h-.6v-1.8h.5c.4-.7.5-1.5.5-2.3v-1.4h2.9zm-.7.6h-1.6v.8c0 .9-.1 1.6-.4 2.3h2v-3.1zm5.4 2.3c-.2.7-.6 1.5-1.9 1.5-1.2 0-1.9-.9-1.9-2.1 0-1.3.6-2.4 2-2.4 1.2 0 1.8 1 1.8 2.5h-3.1c0 .9.4 1.4 1.2 1.4.7 0 1.1-.5 1.1-.8h.8V19zm-.7-1.1c0-.7-.3-1.3-1.2-1.3-.7 0-1.2.6-1.2 1.3h2.4zm2.3 1.4 2.1-3.2h.7v4.3h-.7v-3.2l-2.1 3.2h-.7v-4.3h.7v3.2zm1.1-4.1c.6 0 .7-.3.8-.6h.4c0 .3-.1 1.1-1.2 1.1-1.1 0-1.2-.8-1.2-1.1h.4c.1.3.3.6.8.6z" style="fill:#434650"/></svg>