<?xml version="1.0" encoding="UTF-8"?> <!-- Generator: Adobe Illustrator 25.0.0, SVG Export Plug-In . SVG Version: 6.00 Build 0) --> <svg xmlns="http://www.w3.org/2000/svg" xmlns:xlink="http://www.w3.org/1999/xlink" id="Слой_1" x="0px" y="0px" viewBox="0 0 202.5 39" style="enable-background:new 0 0 202.5 39;" xml:space="preserve"> <style type="text/css"> .ct0{fill-rule:evenodd;clip-rule:evenodd;} .ct1{fill-rule:evenodd;clip-rule:evenodd;fill:#008A36;} .ct2{fill:#C4C4C4;filter:url(#Adobe_OpacityMaskFilter);} .ct3{mask:url(#mask0_1_);} .ct4{fill:#006024;} .ct5{fill:url(#SVGID_1_);} .ct6{fill-rule:evenodd;clip-rule:evenodd;fill:#FFFFFF;} .ct7{fill-rule:evenodd;clip-rule:evenodd;fill:#CCCCCC;} </style> <g> <path class="ct0" d="M65.2,11.1l-3.3,0c-6.6,0-12.3,16.6-4.5,16.6l5,0c2.9,0,5.1,1.1,4.1,3.9l-1.3,3.9l-5.3,0l-4.3,0 c-5.5-0.1-9.1-2.8-10.4-6.9c-1.4-4.5,0.6-13.8,6.3-19.7c3.3-3.5,7.9-5.5,13.8-5.5l10.9,0l-1.7,4.9c-1.1,3.2-3.3,2.9-4.6,2.9 L65.2,11.1z"></path> <path class="ct0" d="M125.3,15.5c-5,0-12.5,0-17.5,0c-2.9,0-4.2,0.8-4.7,2.5l-1.6,5.3c5,0,12.5,0,17.5,0c2.9,0,4.2-0.8,4.7-2.5 L125.3,15.5z"></path> <path class="ct0" d="M129.4,3.3c-5,0-12.5,0-17.5,0c-2.9,0-4.2,0.8-4.7,2.5l-1.6,5.3c5,0,12.5,0,17.5,0c2.9,0,4.2-0.8,4.7-2.5 L129.4,3.3z M121.1,27.8c-5,0-12.5,0-17.5,0c-2.9,0-4.2,0.8-4.7,2.5l-1.6,5.3c5,0,12.5,0,17.5,0c2.9,0,4.2-0.8,4.7-2.5L121.1,27.8z "></path> <path class="ct0" d="M85.4,11.1l4.4,0c3.7,0,2.9,4.6,1,9.2c-1.7,4-4.6,7.5-8.1,7.5l-7.3,0c-2.9,0-4.2,0.8-4.8,2.5l-1.8,5.3l5.3,0 l5.2,0c4.6,0,8.4-0.4,12.8-4.3c4.7-4.2,10.1-15.1,9.2-21.4c-0.7-4.9-3.4-6.4-9.8-6.4l-11.7,0l-6.8,20l4.3,0c2.6,0,3.9,0,5.2-3.7 L85.4,11.1z"></path> <path class="ct0" d="M122.4,35.5h8.3l3.6-10.1l3.7-3.1l2.9,9.2c0.9,2.8,1.8,4.1,3.8,4.1h6.3l-6.5-18l15.7-14.2H150l-9.5,10.1 c-1.1,1.2-2.2,2.3-3.4,3.7H137l4.8-13.9h-8.3L122.4,35.5z"></path> <path class="ct1" d="M183.3,35.6h3.9L192.6,7h9.4l0.7-3.4H180L179.3,7h9.3L183.3,35.6z M171.7,3.6l-6.1,32h3.9l6.1-32H171.7z"></path> </g> <defs> <filter id="Adobe_OpacityMaskFilter" filterUnits="userSpaceOnUse" x="-2.4" y="-2.4" width="41.2" height="41.2"> <feColorMatrix type="matrix" values="1 0 0 0 0 0 1 0 0 0 0 0 1 0 0 0 0 0 1 0"></feColorMatrix> </filter> </defs> <mask maskUnits="userSpaceOnUse" x="-2.4" y="-2.4" width="41.2" height="41.2" id="mask0_1_"> <circle class="ct2" cx="19.4" cy="19.4" r="19.4"></circle> </mask> <g class="ct3"> <path class="ct4" d="M38.9,0H0v38.9h38.9V0z"></path> <radialGradient id="SVGID_1_" cx="-57.4268" cy="154.3181" r="1" gradientTransform="matrix(17.0714 0 0 -17.0714 995.072 2649.1426)" gradientUnits="userSpaceOnUse"> <stop offset="0" style="stop-color:#97D100"></stop> <stop offset="0.3441" style="stop-color:#97D100"></stop> <stop offset="1" style="stop-color:#97D100;stop-opacity:0"></stop> </radialGradient> <path class="ct5" d="M14.7,31.8c9.4,0,17.1-7.6,17.1-17.1c0-9.4-7.6-17.1-17.1-17.1C5.3-2.4-2.4,5.3-2.4,14.7 C-2.4,24.1,5.3,31.8,14.7,31.8z"></path> <path class="ct6" d="M11.2,13.3c2.4,0.5,4.7,0.8,7.2,0.9c4.2,0.1,8.9,0,14.5,0h2c0.5,0,0.6,0.5,0.1,0.7l-1.8,0.5 c-10.5,3.2-18.4,7.1-24.1,16.5c-0.2,0.4-0.6,0.1-0.6-0.2c0.6-4.4,1.3-8,3.3-12c-1.2-1.6-0.8-3.4-2-6.1c-0.1-0.4-0.2-0.6-0.4-0.7 c-0.1-0.5,0.1-0.6,0.5-0.5C10.8,12.7,10.1,13.1,11.2,13.3z"></path> <path class="ct7" d="M11.2,13.3c2.4,0.5,4.7,0.8,7.2,0.9c3.8,0.1,7.9,0,12.7,0c-9.4,3.1-17,7.3-22.4,15.7c0.6-3.6,1.3-6.8,2.9-10.2 c-0.2-0.4-0.6-0.8-0.8-1.2c0.1-0.1,0.1-0.2,0.2-0.5c-1.1-1.5-2.4-3.2-3.4-5.5c0-0.2,0.2-0.4,0.5-0.2C9.1,12.6,10.1,13.1,11.2,13.3z "></path> <path class="ct6" d="M9.5,10.2c2.4,0.5,4.7,0.8,7.2,0.9c4.2,0.1,8.9,0,14.5,0h2c0.5,0,0.6,0.5,0.1,0.7l-1.8,0.5 c-10.5,3.1-18.7,7.5-24.5,17.1c-0.2,0.4-0.6,0.4-0.6-0.1C7.2,25,8,20.6,10,16.6c-1.2-1.6-2.6-3.5-3.8-6.1C6.1,10.1,6,10,5.9,9.8 c0-0.6,0.4-0.7,0.7-0.6C6.9,9.4,8.5,10,9.5,10.2z"></path> </g> </svg>
