<svg width="404" height="130" xmlns="http://www.w3.org/2000/svg"><g fill="#2E2E33" fill-rule="evenodd"><path d="M69.4 100.6c-.2-2 1-12 1-12a101.2 101.2 0 0 0 11 1.2s-2 7.4-.8 9.1c2.8 4 18 13.7 21.4 17.6 1.7 1.7 3.5 3.4 5.7 4.9 1.5 1.3 6.5 1.4 7.8 2.7.8 1 1.9 3.7 1.4 4.2-.4.3-7.9.5-9.2.3-1.5 0-3.2-1.4-3.2-1.4s-1 1-2.5.3c-2.6-1.3-2.2-4-3.7-6.1-1-.9-13.6-9.2-21.8-13.8-7-4-6.8-4-7-7ZM18.8 74.9c-1.5-1.4-7.1 3.4-8.8 3.1-1.6-.4 0-4.3-1.4-4-2 .2-2.5 4.8-4.2 5.1C1.6 80.1 0 76 0 71s1.8-10.5 7.8-14c6.1-3.4 15.1-4.3 22-2 6.7-3.5 15.4-13.8 34.8-14.2 19.4-.5 26.6 9.1 30.7 6.8 4.2-2.3 5.6-7.5 4.7-11.4-1.8-7.5-5-11.5-7.8-18.2-1.6-4.1-1.7-9.7.4-13.7 1-1.8 3.2-3.9 6.7-4.3 3.5-.4 4.4 2.6 6.8 3.3 2.4.8 7.6 1.3 8 3.2.4 1.8-5.8 3.3-7.2 3.1-3.3-.3-5.4 1.9-5.2 5.8.2 5 1.4 6.7 6 13.8 4.6 7.1 4.5 18.9-1.3 27.1-1.9 2.4-3.9 4.5-5.2 7.2-1 2.2 0-2.2 0 6.5 0 8.8-4.4 13-10.2 15-7.8 2.4-14.6 1.5-21.5.7-9.5-1.2-17-1-20.9 0-3.3.8-13.9 6.8-15.2 9.5a313 313 0 0 0-5.1 20.5c-.3 1.4-.1 4.2-.8 5.5-.7 1.3-9.4 6.8-12.3 8-1.4.4-4.1 1.1-4.5.6-1.9-2.2-1.9-2.7 3.7-6.7-2-4 3.7-5 5.3-7 1.8-2.2 5.1-25.8 6.3-28.9 1-3 5.5-4.1 7.2-6.8-.8-1-2-.5-5 .4-2.7.7-8.2 2.7-9.4 1.7-1.2-1 1.5-6.3 0-7.6ZM170.9 61h-18V15.3h17.9c14.2 0 24 9.1 24 22.8 0 13.8-9.8 22.9-24 22.9Zm-.1-8.6c9 0 14.2-6.5 14.2-14.3 0-8-5-14.2-14.1-14.2h-8.3v28.5h8.2Zm46 9.4c-9.9 0-17.4-6.8-17.4-17.4 0-9.6 7-17.3 17-17.3 9.8 0 16.4 7.4 16.4 18.1v2h-24.4c.6 4.1 3.9 7.5 9.4 7.5 2.8 0 6.6-1.2 8.7-3.3l3.9 5.8c-3.3 3-8.4 4.6-13.5 4.6Zm7.7-20.6c-.3-3.1-2.4-7-8.2-7a7.6 7.6 0 0 0-8 7h16.2Zm23.8 20.6c-6 0-9.3-3.2-9.3-9.1V15.3h8.6v35c0 2.2 1.1 3.7 3 3.7 1.3 0 2.5-.4 3-1l1.9 6.7c-1.3 1.1-3.7 2-7.2 2Zm15.2-37.5c-2.8 0-5-2.3-5-5.2 0-2.8 2.2-5.1 5-5.1 2.9 0 5.2 2.3 5.2 5.1 0 3-2.3 5.2-5.2 5.2ZM268 61h-8.6V27.9h8.6v33Zm26.3 0H285l-13.2-33.1h9.3l8.5 23 8.7-23h9.2l-13.2 33Zm32.5.8c-10 0-17.5-6.8-17.5-17.4 0-9.6 7-17.3 17-17.3 9.8 0 16.4 7.4 16.4 18.1v2h-24.4c.6 4.1 3.9 7.5 9.4 7.5 2.8 0 6.6-1.2 8.7-3.3l3.9 5.8c-3.3 3-8.4 4.6-13.5 4.6Zm7.6-20.6c-.3-3.1-2.5-7-8.2-7a7.6 7.6 0 0 0-8 7h16.2ZM357.4 61h-8.6V27.9h8.6v4.4c2.4-2.8 6.4-5.2 10.5-5.2v8.5a11 11 0 0 0-2.4-.2c-2.8 0-6.6 1.6-8 3.7V61Zm29.2 13.4c-5.5 0-10-1.6-13.8-5l4-6.2c2.3 2.9 6.3 4 9.8 4 5.5 0 8.8-3.8 8.8-8.4v-3.5c-2.3 2.5-6.2 5-11.6 5-7.2 0-10.6-4-10.6-10.4V28h8.7v18.6c0 4.6 2.3 6.1 6 6.1 3.3 0 6-1.8 7.5-3.8v-21h8.6v31c0 9.9-7 15.6-17.4 15.6ZM174.2 124c-13.7 0-24.2-9.6-24.2-23.6 0-14.1 10.5-23.6 24.2-23.6 9.9 0 15.7 5.4 18.8 11.1l-8.2 4.1c-2-3.7-6-6.6-10.6-6.6-8.3 0-14.3 6.4-14.3 15s6 15 14.3 15c4.6 0 8.7-3 10.6-6.7l8.2 4c-3.1 5.8-9 11.3-18.8 11.3Zm34.4 0c-6 0-9.2-3.1-9.2-9.1V77.5h8.6v35c0 2.2 1 3.8 3 3.8 1.3 0 2.5-.5 3-1l1.8 6.6c-1.3 1.1-3.7 2.1-7.2 2.1Zm41.8-.8h-8.7V119c-2.2 2.5-6.1 5-11.5 5-7.2 0-10.6-4-10.6-10.4V90.1h8.6v20c0 4.7 2.4 6.2 6 6.2 3.4 0 6-1.9 7.5-3.8V90.1h8.7v33Zm17.1-10.6a9.7 9.7 0 0 0 7.5 3.7c5 0 8.3-4 8.3-9.7 0-5.7-3.3-9.6-8.3-9.6-2.8 0-6 1.7-7.5 3.9v11.7Zm0 10.6H259V77.5h8.6v16.9c2.6-3.5 6.3-5.1 10.2-5.1 8.3 0 14.5 6.6 14.5 17.3 0 11.1-6.3 17.4-14.5 17.4-4 0-7.6-1.8-10.2-5v4.2Z"/></g></svg>