<svg width="96" height="16" viewBox="0 0 96 16" fill="none" xmlns="http://www.w3.org/2000/svg">
  <path d="M15.2991 7.62039C15.2991 8.20152 15.2615 8.72642 15.1864 9.19508H3.32467C3.41859 10.4323 3.87878 11.4259 4.70525 12.1757C5.53172 12.9256 6.54603 13.3005 7.74817 13.3005C9.47624 13.3005 10.6972 12.5788 11.4109 11.1353H14.8765C14.4069 12.56 13.5522 13.7317 12.3125 14.6503C11.0916 15.5501 9.57016 16 7.74817 16C6.26428 16 4.93065 15.6719 3.7473 15.0158C2.58272 14.3409 1.66233 13.4036 0.98613 12.2039C0.32871 10.9854 0 9.57938 0 7.98594C0 6.3925 0.319318 4.9959 0.957955 3.79613C1.61538 2.57762 2.52637 1.6403 3.69095 0.984182C4.8743 0.328061 6.22671 0 7.74817 0C9.21327 0 10.5187 0.318688 11.6645 0.956063C12.8103 1.59344 13.7025 2.49326 14.3412 3.65554C14.9798 4.79906 15.2991 6.12068 15.2991 7.62039ZM11.9463 6.60808C11.9275 5.42706 11.5049 4.48037 10.6784 3.76801C9.85191 3.05565 8.82821 2.69947 7.60729 2.69947C6.49907 2.69947 5.55051 3.05565 4.7616 3.76801C3.9727 4.46163 3.50311 5.40832 3.35284 6.60808H11.9463Z" fill="black"></path>
  <path d="M24.4613 12.8787L28.8566 0.253076H32.2658L26.3491 15.7469H22.5172L16.6286 0.253076H20.066L24.4613 12.8787Z" fill="black"></path>
  <path d="M37.9057 2.50264C38.3753 1.71529 38.9951 1.10603 39.7653 0.674868C40.5542 0.224956 41.4839 0 42.5546 0V3.3181H41.7375C40.479 3.3181 39.5211 3.63679 38.8637 4.27416C38.225 4.91154 37.9057 6.01757 37.9057 7.59227V15.7469H34.6937V0.253076H37.9057V2.50264Z" fill="black"></path>
  <path d="M52.2409 16C50.7758 16 49.4516 15.6719 48.2682 15.0158C47.0849 14.3409 46.1551 13.4036 45.4789 12.2039C44.8027 10.9854 44.4646 9.57938 44.4646 7.98594C44.4646 6.41125 44.8121 5.01464 45.507 3.79613C46.202 2.57762 47.1506 1.6403 48.3527 0.984182C49.5549 0.328061 50.8979 0 52.3818 0C53.8657 0 55.2087 0.328061 56.4108 0.984182C57.613 1.6403 58.5615 2.57762 59.2565 3.79613C59.9515 5.01464 60.299 6.41125 60.299 7.98594C60.299 9.56063 59.9421 10.9572 59.2284 12.1757C58.5146 13.3943 57.5378 14.3409 56.2981 15.0158C55.0772 15.6719 53.7248 16 52.2409 16ZM52.2409 13.2162C53.0674 13.2162 53.8375 13.0193 54.5513 12.6257C55.2838 12.232 55.8755 11.6415 56.3263 10.8541C56.7771 10.0668 57.0025 9.11072 57.0025 7.98594C57.0025 6.86116 56.7865 5.91447 56.3545 5.14587C55.9225 4.35852 55.3496 3.76801 54.6358 3.37434C53.922 2.98067 53.1519 2.78383 52.3254 2.78383C51.499 2.78383 50.7288 2.98067 50.0151 3.37434C49.3201 3.76801 48.766 4.35852 48.3527 5.14587C47.9395 5.91447 47.7329 6.86116 47.7329 7.98594C47.7329 9.65436 48.1555 10.9479 49.0008 11.8664C49.8648 12.7663 50.9449 13.2162 52.2409 13.2162Z" fill="black"></path>
  <path d="M71.3069 0C72.5278 0 73.6173 0.253075 74.5752 0.759225C75.552 1.26538 76.3127 2.01523 76.8574 3.00879C77.4021 4.00234 77.6745 5.20211 77.6745 6.60808V15.7469H74.4907V7.08611C74.4907 5.69889 74.1432 4.63972 73.4482 3.90861C72.7532 3.15876 71.8047 2.78383 70.6025 2.78383C69.4004 2.78383 68.4424 3.15876 67.7287 3.90861C67.0337 4.63972 66.6862 5.69889 66.6862 7.08611V15.7469H63.4742V0.253076H66.6862V2.0246C67.2121 1.38723 67.8789 0.89045 68.6866 0.53427C69.5131 0.17809 70.3865 0 71.3069 0Z" fill="black"></path>
  <path d="M96 7.62039C96 8.20152 95.9624 8.72642 95.8873 9.19508H84.0256C84.1195 10.4323 84.5797 11.4259 85.4061 12.1757C86.2326 12.9256 87.2469 13.3005 88.4491 13.3005C90.1771 13.3005 91.3981 12.5788 92.1118 11.1353H95.5774C95.1078 12.56 94.2531 13.7317 93.0134 14.6503C91.7925 15.5501 90.271 16 88.4491 16C86.9652 16 85.6315 15.6719 84.4482 15.0158C83.2836 14.3409 82.3632 13.4036 81.687 12.2039C81.0296 10.9854 80.7009 9.57938 80.7009 7.98594C80.7009 6.3925 81.0202 4.9959 81.6588 3.79613C82.3163 2.57762 83.2273 1.6403 84.3918 0.984182C85.5752 0.328061 86.9276 0 88.4491 0C89.9142 0 91.2196 0.318688 92.3654 0.956063C93.5112 1.59344 94.4034 2.49326 95.042 3.65554C95.6807 4.79906 96 6.12068 96 7.62039ZM92.6472 6.60808C92.6284 5.42706 92.2057 4.48037 91.3793 3.76801C90.5528 3.05565 89.5291 2.69947 88.3082 2.69947C87.2 2.69947 86.2514 3.05565 85.4625 3.76801C84.6736 4.46163 84.204 5.40832 84.0537 6.60808H92.6472Z" fill="black"></path>
</svg>
