<svg id="Слой_1" data-name="Слой 1" xmlns="http://www.w3.org/2000/svg" viewBox="0 0 773.29 302.95"><defs><style>.cls-1{fill:#3a545b;}.cls-1,.cls-2,.cls-3,.cls-4,.cls-5,.cls-6,.cls-7,.cls-8,.cls-9{fill-rule:evenodd;}.cls-2{fill:#a1daf8;}.cls-3{fill:#247b86;}.cls-4{fill:#008bd2;}.cls-5{fill:#49388a;}.cls-6{fill:#336759;}.cls-7{fill:#743981;}.cls-8{fill:#1b597b;}.cls-9{fill:#1d1d1b;}</style></defs><path class="cls-1" d="M253,175.08c-2.59,13.39-5.18,22.45-10.36,33.25-6.48,12.08-11.66,25.9-23.75,16-8.2-6.91-16-13.82-22-22.45a308.51,308.51,0,0,1-17.7-28.93c-7.34-12.95-5.18-14.68-19-18.13l-12.09-3.46a74.86,74.86,0,0,0,1.72-17.7v-3.45l25.48-4.75s54,32.38,71.24,30.65C259.94,155.22,255.19,163,253,175.08Z"/><path class="cls-2" d="M247.85,37.35c7.77,16,23.32,101-4.32,105.35-6,1.29-15.54,1.29-26.33-1.3-6.91-1.72-14.25-6.47-22-11.65-13-8.21-17.27-11.23-32.38-10.36L149,120.68a40.15,40.15,0,0,0-2.59-10.36C192.16,84.41,193,74.48,223.67,36.49,232.31,25.26,242.24,25.26,247.85,37.35Z"/><path class="cls-3" d="M177,2.38C193,5,204.24,8,213.74,11.45c13.82,6.47,12.09,6.91,3.89,17.7a191.81,191.81,0,0,0-19.86,30.22c-6.91,12.95-6.48,18.57-19.86,25.48l-35,17.27c-2.16-4.75-5.18-8.21-8.21-9.94,15.11-.86,26.77-7.33,26.77-24.17,0-11.66-6-25.48-14.68-35a48.85,48.85,0,0,1,13-26.76C165.39.65,169.7,1.52,177,2.38Z"/><path class="cls-4" d="M113.58.22h27.63c13.82,0,14.68-2.59,9.07,9.93-2.59,6-5.19,12.52-7.78,18.57A33.87,33.87,0,0,0,130,21.38,43.25,43.25,0,0,0,116.17,30c-2.59-6.47-5.18-13-8.21-19C103.22-.21,101.06.65,113.58.22Z"/><path class="cls-5" d="M38.45,9.72C50.54,4.54,62.63,5.83,82.49,2c15.54-3.46,27.2,17.7,29.79,32.38-8.2,9.5-13.81,22.45-13.81,33.68,0,16,10.36,22.45,24.61,23.74-3.46,2.16-6,5.62-8.64,9.93L77.74,83.55c-8.2-4.32-8.2-5.18-12.09-13.38A219.27,219.27,0,0,0,39.32,27.42C34.14,20.51,30.25,14.47,38.45,9.72Z"/><path class="cls-2" d="M13,34.33c4.32-8.2,12.09-6.48,19,2.16C48.81,57.21,59.61,84.41,84.65,95.21c8.63,3.45,17.7,9.93,26.34,14.68-1.3,3.45-1.73,6.9-2.59,10.79L70,119.82c-15.54,6.9-17.27,16.4-29.36,19.43C29,141.84,19,143.13,13.41,141.4-10.34,133.2,2.62,51.17,13,34.33Z"/><path class="cls-6" d="M20.32,210.92A156.21,156.21,0,0,1,6.5,166c-1.29-8.2-2.16-14.24,6.91-13.38,17.27,1.3,58.29-26.34,58.29-26.34l35.83,3.89v3.45a80.64,80.64,0,0,0,1.73,18.14l-11.23,3c-19.42,4.75-25.9,35-36.69,51-5.62,8.2-13,15.54-22,17.27C25.07,226.46,25.93,223,20.32,210.92Z"/><path class="cls-7" d="M132.14,272.66c19.86-9.93,37.13-40.59,37.13-66.06,0-22.88-13.38-31.95-31.08-34.11a30.29,30.29,0,0,0,7.34-12.09l24.61,6.48s17.7,44.9,42.31,68.65c12.52,11.65-2.59,17.27-9.93,26.76-15.11,18.57-36.7,28.93-53.54,34.54-16,5.62-17.27,12.09-16.84-4.31Z"/><path class="cls-8" d="M120.49,302c-15.12-5.62-45.77-20.3-71.24-48.79-15.11-16-6.91-12.52,4.75-26.77,12.52-15.11,22.88-34.54,28.49-47.06C88.1,167.31,86,167.31,98,164.29l13.82-3.89a38.87,38.87,0,0,0,7.77,12.52c-16.84,2.59-28.93,11.66-28.93,33.68,0,24.61,16,54,35,64.76A75.39,75.39,0,0,1,120.49,302Z"/><path class="cls-9" d="M371.76,128.45h-4.31c0-6,1.72-6.91-4.75-6.91h-4.32c-7.34,0-6,0-6,6.91h-3.89c-31.52,0-33.68,70.81-.43,70.81h3.88c0,5.18-1.72,7.34,3.89,7.34h5.61c7.34,0,5.61-.43,5.61-7.34h4.32c33.25,0,31.95-70.81.43-70.81ZM370.47,185H367c0-12.95.44-28.93.44-42.31h3.45c12.52-.43,13.82,41.88-.43,42.31Zm-18.13,0h-3.46c-12.52,0-10.79-42.31,0-42.31,5.18,0,3.89,1.29,3.89,6,0,11.23-.43,25-.43,36.27ZM490.5,197.1c-.87-21.16-.87-43.17,0-66.49.43-8.2,0-6.48-8.21-6.48h-25c-3.89,2.16-6.48,3.89-7.77,10.37.43,16.4,2.16,35.83-1.73,51.81-.43,2.59-1.72,4.75-4.32,4.31-6-.43-11.65,16-1.29,16,16,0,21.59-12.09,22-30.66,0-12.52.43-25,.86-38,9.5,0,11.23-2.59,11.23,7.34,0,18.13-.87,36.7-.87,54.83,0,6.48-.86,6.48,5.62,6.48,10.79,0,10.36.86,9.5-9.5Zm95.41-7.34c-3.88-17.7-8.2-35.4-12.52-53.54-2.59-10.36-.43-12.09-11.22-12.09-7.34,0-5.62,3.46-7.34,10.37-1.73,6.47-7.78,31.51-11.66,49.22-3,14.24-4.75,22.45.43,22.88,9.93.43,10.36,2.16,10.79-6.91,0-2.16.87-4.32,1.3-6.48H572.1l1.29,6.48c1.73,7.77,1.3,6.91,9.07,6.91,12.52,0,6-6.48,3.45-16.84Zm-16.4-9.07H558.28l3.89-20.29c.43-3,1.29-6,1.72-9.07l1.3,9.07c1.73,6.48,3,13.39,4.32,20.29Zm111.82,5.18c-.43-15.54-.43-31.51,0-48.35.43-10.36,3.45-13.39-7.34-13.39-12.52,0-7.77,7.78-7.77,19v14.68H652.4V126.29c0-3.88-4.32-2.16-7.34-2.16-10.79,0-8.63,2.59-7.77,13,1.3,18.56.86,37.56.43,56.12-.43,11.23-3.45,13.39,8.21,13.39,10.36,0,6.47-5.61,6.47-15.11V172.06h13.82V195.8c0,9.5-2.16,10.8,7.77,10.8,12.52,0,8.2-9.5,7.34-20.73Zm92-54.83c0-8.63,0-6.91-8.63-6.91H737.89c-8.2,0-6.91-1.29-8.2,6.91-1.73,11.23,2.59,7.77,14.24,6.91a211.28,211.28,0,0,1,0,40.58c-.86,14.68-3.45,30.23,8.21,28.93,12.52-1.29,6.9-8.2,6.9-21.15V138C769,138,773.29,141.84,773.29,131Z"/></svg>