<svg width="90" height="48" fill="none" xmlns="http://www.w3.org/2000/svg"><path fill-rule="evenodd" clip-rule="evenodd" d="M43.38 26.8a1.02 1.02 0 0 0 0-1.03 5.42 5.42 0 0 0-1.85-1.8v-4.95a5.14 5.14 0 0 0 1.77-2.95 1.02 1.02 0 0 0-.36-.97c-.42-.35-.9-.63-1.4-.82v-1.71a6.82 6.82 0 0 0-5.02-6.6c.22-.93.7-1.8 1.39-2.47a1.71 1.71 0 0 0 .41-1.9A1.71 1.71 0 0 0 36.7.55a1.75 1.75 0 0 0-1.24.53 8.48 8.48 0 0 0-2.41 4.64h-21.1a8.48 8.48 0 0 0-2.42-4.64A1.73 1.73 0 0 0 7.6.65a1.73 1.73 0 0 0-1.08 1.62 1.7 1.7 0 0 0 .55 1.23 5.1 5.1 0 0 1 1.39 2.48 6.92 6.92 0 0 0-5.01 6.59v1.68c-.52.2-1 .47-1.41.82a1.03 1.03 0 0 0-.36.97A4.9 4.9 0 0 0 3.46 19v4.93a4.92 4.92 0 0 0-1.85 1.81 1.02 1.02 0 0 0 0 1.03c.45.77 1.1 1.39 1.85 1.8v4.95a4.9 4.9 0 0 0-1.77 2.95 1.02 1.02 0 0 0 .36.97c.48.4 1.05.71 1.64.9a6.86 6.86 0 0 0 6.69 5.08h24.23a6.97 6.97 0 0 0 6.68-5.05c.6-.2 1.17-.5 1.65-.9a1.03 1.03 0 0 0 .36-.97 5.14 5.14 0 0 0-1.77-2.96V28.6c.7-.42 1.4-1.04 1.85-1.8" fill="#4D4D4D"/><path fill-rule="evenodd" clip-rule="evenodd" d="M34.61 19.43H10.38a3.41 3.41 0 0 0-3.46 3.43v13.7A3.48 3.48 0 0 0 10.38 40h6.93l.42-.03c.42-.06.82-.19 1.2-.38.5-.25.98-.69 1.27-1.16.47-.76.7-1.66.87-2.52.15-.73.27-1.39.4-2.25.1-.34.53-.84 1.03-.84s.93.5 1.02.84c.14.86.26 1.52.4 2.25.18.86.4 1.77.87 2.53.3.48.77.91 1.28 1.16a3.84 3.84 0 0 0 1.62.4h6.92a3.41 3.41 0 0 0 3.46-3.43v-13.7c0-.92-.36-1.79-1.01-2.43-.65-.64-1.53-1-2.45-1Zm-24.23 8.11a1.94 1.94 0 0 1 1.22-1.8 2 2 0 0 1 2.58 1.05 1.94 1.94 0 0 1-.43 2.13 1.98 1.98 0 0 1-3.37-1.38Zm4.33 9.03a2.6 2.6 0 0 1-1.84-.76 2.56 2.56 0 0 1 1.84-4.39c.69 0 1.35.28 1.84.76a2.56 2.56 0 0 1-1.84 4.39Zm2.97-11.03c-.36 0-.7-.14-.96-.4a1.34 1.34 0 0 1 .96-2.28 1.34 1.34 0 1 1 0 2.68Zm8.28-1.34a1.33 1.33 0 0 1 .83-1.28 1.37 1.37 0 0 1 1.79.75c.06.17.1.35.09.53a1.36 1.36 0 0 1-2.71 0Zm4.33 12.37a2.62 2.62 0 0 1-2.4-1.59 2.55 2.55 0 0 1 1.4-3.36 2.62 2.62 0 0 1 2.83.56 2.56 2.56 0 0 1-1.83 4.39Zm2.35-7.08a1.99 1.99 0 0 1-1.82-1.2 1.94 1.94 0 0 1 1.07-2.56 1.99 1.99 0 0 1 2.15.43 1.95 1.95 0 0 1-1.4 3.33Z" fill="#B3B3B6"/><path fill-rule="evenodd" clip-rule="evenodd" d="M10.38 9.14a3.49 3.49 0 0 0-3.2 2.12 3.4 3.4 0 0 0 1.88 4.48 3.5 3.5 0 0 0 3.77-.74 3.41 3.41 0 0 0-2.45-5.86Zm24.23 0a3.49 3.49 0 0 0-3.2 2.12 3.4 3.4 0 0 0 1.88 4.48 3.5 3.5 0 0 0 3.77-.74 3.41 3.41 0 0 0-2.45-5.86" fill="#fff"/><path fill-rule="evenodd" clip-rule="evenodd" d="M85.97 25.59a1.74 1.74 0 0 0-2.44.11l-3.44 3.75-3.43-3.75a1.74 1.74 0 0 0-3.01 1.07c-.03.46.14.9.44 1.24L77.75 32l-3.66 3.99a1.71 1.71 0 0 0 1.37 2.86 1.75 1.75 0 0 0 1.2-.56l3.43-3.74 3.44 3.74a1.72 1.72 0 0 0 1.86.47 1.73 1.73 0 0 0 1.15-1.54 1.7 1.7 0 0 0-.45-1.23l-3.66-4 3.66-3.98a1.71 1.71 0 0 0-.12-2.42Zm-31.62-.45h-4.16a1.7 1.7 0 0 0-1.73 1.71v10.3c0 .45.18.88.5 1.2.33.33.77.5 1.23.5h4.16A4.27 4.27 0 0 0 57.8 32a4.23 4.23 0 0 0-.4-5.6 4.35 4.35 0 0 0-3.06-1.25Zm.86 9.43c0 .47-.39.86-.86.86h-2.43V33.7h2.43c.47 0 .86.39.86.86Zm-3.29-4.29v-1.71h2.43c.22.01.43.1.58.27a.85.85 0 0 1-.58 1.44h-2.43Z" fill="#4D4D4D"/><path fill-rule="evenodd" clip-rule="evenodd" d="M66.63 25.14A6.9 6.9 0 0 0 59.71 32a6.9 6.9 0 0 0 6.92 6.86A6.9 6.9 0 0 0 73.56 32a6.9 6.9 0 0 0-6.93-6.86Zm0 10.29A3.45 3.45 0 0 1 63.17 32c0-1.9 1.56-3.43 3.46-3.43 1.91 0 3.47 1.54 3.47 3.43a3.45 3.45 0 0 1-3.47 3.43ZM57.3 9.26h-7.1a1.7 1.7 0 0 0-1.73 1.71v10.29c0 .45.18.89.5 1.2a1.74 1.74 0 0 0 2.96-1.2v-3.43h4.5a1.7 1.7 0 1 0 0-3.43h-4.5v-1.72h5.37a1.7 1.7 0 1 0 0-3.43Zm9.34 13.71a6.1 6.1 0 0 0 4.29-1.76 5.98 5.98 0 0 0 1.77-4.24v-6c0-.46-.18-.9-.5-1.21a1.74 1.74 0 0 0-2.96 1.21v6a2.59 2.59 0 0 1-2.6 2.57 2.59 2.59 0 0 1-2.6-2.57v-6c0-.46-.17-.9-.5-1.21a1.74 1.74 0 0 0-2.95 1.21v6c0 1.59.64 3.12 1.77 4.24a6.1 6.1 0 0 0 4.28 1.76Zm19.9-1.72V10.97c0-.46-.17-.9-.5-1.21a1.74 1.74 0 0 0-2.95 1.21v5.55l-5.59-6.64-.04-.04a1.62 1.62 0 0 0-.08-.09l-.06-.06a1.78 1.78 0 0 0-.14-.1l-.06-.05a1.68 1.68 0 0 0-.08-.05l-.06-.03-.08-.04-.08-.04-.08-.02a.64.64 0 0 0-.08-.03l-.08-.02-.08-.02-.1-.02h-.07l-.13-.01h-.04c-.11 0-.23 0-.34.03l-.05.01-.12.03-.06.02-.1.04-.07.03-.08.04-.1.06-.04.03-.14.1-.05.04-.08.07-.06.07-.05.06-.06.08-.04.05-.05.08-.04.07-.03.07-.04.08-.02.07-.03.09-.02.07-.02.09-.02.08a1.15 1.15 0 0 0-.01.2v10.34c0 .45.18.89.5 1.2a1.74 1.74 0 0 0 2.95-1.2V15.7l5.6 6.64v.01l.01.02.1.11.06.05.08.07.07.05.08.05.07.04.1.05.06.03.1.05.06.02.13.03.05.01a1.54 1.54 0 0 0 .52.03h.05l.11-.02.06-.01.1-.03.06-.02.1-.03.05-.02.1-.05.05-.02.08-.06c.02 0 .04-.02.05-.03l.1-.06.03-.03.05-.05.08-.07.06-.07.05-.05.06-.08.04-.06.05-.08.04-.06.03-.08.07-.15.03-.08.01-.07.03-.1v-.08a1.02 1.02 0 0 0 .03-.2v-.05" fill="#4D4D4D"/></svg>