<svg width="800" height="320" xmlns="http://www.w3.org/2000/svg"><defs><linearGradient y2="-.039" x2=".724" y1=".826" x1=".214" id="b"><stop stop-color="#CCCDCF" offset="0"/><stop stop-color="#AEB1B3" offset=".247"/><stop stop-color="#6A6B6E" offset=".792"/><stop stop-color="#4C4C4E" offset="1"/></linearGradient><linearGradient y2=".875" x2=".967" y1="-.044" x1=".066" id="c"><stop stop-color="#CCCDCF" offset="0"/><stop stop-color="#AEB1B3" offset=".247"/><stop stop-color="#6A6B6E" offset=".792"/><stop stop-color="#4C4C4E" offset="1"/></linearGradient><linearGradient y2=".474" x2="-.011" y1=".543" x1=".984" id="d"><stop stop-color="#CCCDCF" offset="0"/><stop stop-color="#AEB1B3" offset=".247"/><stop stop-color="#6A6B6E" offset=".792"/><stop stop-color="#4C4C4E" offset="1"/></linearGradient><linearGradient y2="-.013" x2=".301" y1="1.027" x1=".606" id="e"><stop stop-color="#CCCDCF" offset="0"/><stop stop-color="#AEB1B3" offset=".247"/><stop stop-color="#6A6B6E" offset=".792"/><stop stop-color="#4C4C4E" offset="1"/></linearGradient><linearGradient y2=".862" x2=".869" y1=".053" x1=".331" id="f"><stop stop-color="#CCCDCF" offset="0"/><stop stop-color="#AEB1B3" offset=".247"/><stop stop-color="#6A6B6E" offset=".792"/><stop stop-color="#4C4C4E" offset="1"/></linearGradient><linearGradient y2=".913" x2="-.06" y1=".172" x1="1.166" id="g"><stop stop-color="#CCCDCF" offset="0"/><stop stop-color="#AEB1B3" offset=".247"/><stop stop-color="#6A6B6E" offset=".792"/><stop stop-color="#4C4C4E" offset="1"/></linearGradient><radialGradient gradientUnits="userSpaceOnUse" gradientTransform="matrix(.1405 0 0 .1405 2138.134 4422.242)" r="298.268" cy="-30454.607" cx="-14014.786" id="a"><stop stop-color="#DCDDDE" offset=".029"/><stop stop-color="#D1D2D4" offset=".134"/><stop stop-color="#B4B6B9" offset=".329"/><stop stop-color="#9FA1A4" offset=".46"/><stop stop-color="#8D8F91" offset=".557"/><stop stop-color="#6C6D70" offset=".755"/><stop stop-color="#565659" offset=".909"/><stop stop-color="#4D4D4F" offset="1"/></radialGradient></defs><path fill="url(#a)" d="M200.77 179.948c-11.02 12.21-29.84 13.17-42.05 2.15-12.21-11.01-13.19-29.85-2.19-42.06 11.02-12.21 29.85-13.16 42.06-2.15 12.21 11.03 13.19 29.85 2.18 42.06z" class="ct10"/><path fill="url(#b)" d="M93.41 46.768c-19.48 14.69-35.05 34.3-44.86 56.97 11.78 2.9 47.04 14.38 63.22 58.06 4.87-1.59 15.36-7.7 22.63-31.3 9.76-31.6 28.27-61.99 52.28-72.2-23.95-23.68-55.49-29.26-93.27-11.53z" class="ct11"/><path fill="url(#c)" d="M287.81 69.618s0-.01 0 0c-25.99-31.37-65.24-51.35-109.15-51.35-32 0-61.53 10.61-85.25 28.5 52.45-24.61 92.88-4.31 117.63 47.01 39.43 7.07 66.21-12.55 76.77-24.16z" class="ct12"/><path fill="url(#d)" d="M123.24 290.428c22.46 9.53 47.23 13.21 71.77 10.37-3.37-11.65-11.07-47.93 18.67-83.78-3.81-3.42-14.34-9.45-38.42-3.95-32.24 7.35-67.82 6.51-88.66-9.18-8.55 32.57 2.39 62.68 36.64 86.54z" class="ct13"/><path fill="url(#e)" d="M45.82 110.638h-.01c-14.16 38.19-11.84 82.18 10.12 120.21 16 27.72 39.95 47.98 67.31 59.58-47.54-33.12-50.17-78.29-18.11-125.39-13.6-37.68-43.98-51.07-59.31-54.4z" class="ct14"/><path fill="url(#f)" d="M319.32 142.768c-2.98-24.22-12.18-47.5-26.91-67.34-8.4 8.75-35.97 33.55-81.88 25.72-1.06 5.01-1.01 17.15 15.79 35.25 22.48 24.25 39.55 55.48 36.38 81.38 32.48-8.9 53.08-33.43 56.62-75.01z" class="ct15"/><path fill="url(#g)" d="M202.34 299.708s0 .01 0 0c40.16-6.82 77.08-30.83 99.04-68.86 16-27.72 21.58-58.59 17.94-88.08-4.92 57.73-42.71 82.6-99.52 78.38-25.84 30.61-22.24 63.62-17.46 78.56z" class="ct16"/><path fill="#414042" class="ct8" d="M363.669 48.028h2.83v223.94h-2.83z"/><g><path fill="#414042" d="M415.31 147.168h-5.53v-42.99h22.79v5.16h-17.26v37.83zM450.99 147.168h-5.53v-42.99h12.65c9.77 0 15.91 4.05 15.91 13.39 0 8.91-6.14 13.76-16.4 13.76h-6.63v15.84zm0-21.01h6.63c6.82 0 10.5-2.76 10.5-8.48 0-5.9-3.69-8.35-10.5-8.35h-6.63v16.83zM520.82 147.168h-5.53v-34.64l-20.88 34.64h-6.26v-42.99h5.53v34.64l20.88-34.64h6.26v42.99zM570.81 147.168h-5.53v-19.78h-21.74v19.78h-5.53v-42.99h5.53v18.18h21.74v-18.18h5.53v42.99zM611.21 135.678h-18.36l-4.18 11.48h-5.59l16.4-42.99h5.53l16.09 42.99h-5.77l-4.12-11.48zm-16.58-5.04h14.8l-7.19-20.21h-.25l-7.36 20.21zM644.25 147.168h-5.53v-37.83h-12.71v-5.16h30.95v5.16h-12.71v37.83zM666.79 125.668c0-13.76 7.92-22.11 19.29-22.11 12.77 0 19.65 9.09 19.65 22.11 0 14.62-8.23 22.11-19.47 22.11-11.92 0-19.47-8.48-19.47-22.11zm33.04 0c0-11.79-5.28-16.95-13.76-16.95-7.55 0-13.39 5.47-13.39 16.95 0 11.3 5.65 16.95 14.13 16.95 8.04 0 13.02-5.83 13.02-16.95zM763.08 147.168h-5.53l-2.64-33.59-10.87 33.59h-5.77l-10.81-33.47-2.7 33.47h-5.53l3.69-42.99h6.76l11.61 36.97 11.36-36.97h6.76l3.67 42.99z" class="ct8"/></g><g><path fill="#414042" d="M414.21 213.178h-4.43v-34.43h10.13c7.82 0 12.74 3.25 12.74 10.72 0 7.13-4.92 11.02-13.13 11.02h-5.31v12.69zm0-16.82h5.31c5.46 0 8.41-2.21 8.41-6.79 0-4.72-2.95-6.69-8.41-6.69h-5.31v13.48zM441.99 195.968c0-11.02 6.34-17.7 15.44-17.7 10.23 0 15.74 7.28 15.74 17.7 0 11.71-6.59 17.7-15.59 17.7-9.54.01-15.59-6.78-15.59-17.7zm26.46 0c0-9.44-4.23-13.57-11.02-13.57-6.05 0-10.72 4.38-10.72 13.57 0 9.05 4.52 13.57 11.31 13.57 6.45.01 10.43-4.67 10.43-13.57zM508.19 212.248c-1.87.89-4.52 1.43-7.52 1.43-10.72 0-17.16-6.69-17.16-17.26 0-11.7 6.59-18.15 16.87-18.15 3.93 0 6.25.69 7.87 1.33l-.84 3.89c-2.16-.79-4.43-1.08-6.59-1.08-8.16 0-12.59 4.72-12.59 13.57 0 8.56 4.97 13.57 13.03 13.57 2.16 0 4.48-.39 6.2-1.23l.73 3.93zM539.12 203.988h-14.7l-3.34 9.2h-4.48l13.13-34.43h4.43l12.88 34.43h-4.62l-3.3-9.2zm-13.28-4.03h11.85l-5.75-16.18h-.2l-5.9 16.18zM565.08 213.178h-4.43v-30.29h-10.18v-4.13h24.79v4.13h-10.18v30.29zM582.63 195.968c0-11.02 6.34-17.7 15.44-17.7 10.23 0 15.74 7.28 15.74 17.7 0 11.71-6.59 17.7-15.59 17.7-9.54.01-15.59-6.78-15.59-17.7zm26.46 0c0-9.44-4.23-13.57-11.02-13.57-6.05 0-10.72 4.38-10.72 13.57 0 9.05 4.52 13.57 11.31 13.57 6.45.01 10.43-4.67 10.43-13.57zM659.25 213.178h-4.43l-2.11-26.9-8.7 26.9h-4.62l-8.66-26.8-2.16 26.8h-4.43l2.95-34.43h5.41l9.29 29.61 9.1-29.61h5.41l2.95 34.43z" class="ct8"/></g></svg>
