<svg width="120" height="35" viewBox="0 0 120 35" fill="none" xmlns="http://www.w3.org/2000/svg">
<path d="M17.4789 35C27.1323 35 34.9579 27.165 34.9579 17.5C34.9579 7.83502 27.1323 0 17.4789 0C7.82559 0 0 7.83502 0 17.5C0 27.165 7.82559 35 17.4789 35Z" fill="#4D4D4D"/>
<path d="M9.59661 17.7681C9.51392 17.519 9.43123 17.4369 9.18317 17.4369C8.44983 17.4292 7.71776 17.3739 6.99158 17.2713C7.07225 17.7196 7.18317 18.1625 7.32233 18.596C7.86015 20.5829 9.18317 21.8254 11.1677 22.6115C12.16 22.9844 15.7996 23.3984 16.047 23.3984C15.0131 22.9016 13.9381 22.4049 12.9048 21.7837C11.3148 20.9362 10.1252 19.4922 9.59661 17.7681V17.7681ZM14.41 15.1599C13.9132 14.9526 13.4588 14.787 12.9627 14.5804C11.5563 14.0009 11.598 14.1664 10.3986 13.3386C10.0961 14.1759 9.92871 15.0562 9.90249 15.9467C9.89357 16.7853 10.0794 17.6145 10.4454 18.3689C10.8114 19.1232 11.3475 19.7821 12.0114 20.2935C13.4588 21.4942 14.6991 21.991 16.4356 22.5705C16.6843 22.6533 16.849 22.7361 17.2215 22.8599C17.2215 22.1976 17.3042 19.0516 17.0561 18.0575C16.767 16.6912 15.8158 15.7394 14.4094 15.1599H14.41ZM20.1983 14.5723C19.3425 11.0407 17.5522 9.33105 17.5522 9.33105C17.5522 9.33105 15.7371 11.1026 14.8974 14.5723C15.5613 14.8051 16.1542 15.2049 16.6193 15.7333C17.0843 16.2618 17.4058 16.901 17.5529 17.5897C17.9408 15.2427 20.1989 14.5723 20.1989 14.5723H20.1983ZM25.487 17.7681C24.9586 19.4921 23.7692 20.936 22.1794 21.7837C21.1455 22.4049 20.0705 22.901 19.0366 23.3984C19.2853 23.3984 22.9236 22.9844 23.9159 22.6115C25.9004 21.8254 27.2235 20.5829 27.7613 18.596C27.9011 18.1625 28.0114 17.7196 28.092 17.2713C27.366 17.3737 26.6339 17.4288 25.9004 17.4369C25.6524 17.4369 25.5697 17.5197 25.487 17.7681V17.7681ZM20.6904 15.1599C19.2853 15.7394 18.3341 16.6918 18.0443 18.0575C17.7963 19.0516 17.8789 22.1976 17.8789 22.8599C18.2514 22.7361 18.4168 22.6533 18.6648 22.5705C20.4013 21.991 21.6416 21.4936 23.0883 20.2935C23.7524 19.7822 24.2886 19.1233 24.6547 18.369C25.0208 17.6146 25.2068 16.7854 25.1979 15.9467C25.1718 15.0565 25.0043 14.1761 24.7018 13.3386C23.5025 14.1664 23.5441 14.0009 22.1378 14.5804C21.6416 14.787 21.1872 14.9526 20.6904 15.1592V15.1599Z" fill="white"/>
<path fill-rule="evenodd" clip-rule="evenodd" d="M55.7985 13.3923V7.38844C55.7985 6.67832 56.0802 5.99729 56.5817 5.49516C57.0833 4.99303 57.7635 4.71094 58.4727 4.71094H64.8411V7.38844H58.8808V9.10748H64.2764V11.5952H58.8808V13.393H64.9198V16.0705H58.4734C58.1221 16.0705 57.7743 16.0012 57.4498 15.8666C57.1252 15.732 56.8303 15.5347 56.5819 15.286C56.3336 15.0373 56.1365 14.7421 56.0021 14.4172C55.8677 14.0922 55.7985 13.744 55.7985 13.3923V13.3923ZM66.5547 16.1532L70.1796 7.49949L70.7665 6.09815C70.9387 5.68745 71.2283 5.33682 71.5988 5.09024C71.9693 4.84367 72.4043 4.71213 72.8492 4.71213C73.2941 4.71213 73.7291 4.84367 74.0996 5.09024C74.4701 5.33682 74.7596 5.68745 74.9319 6.09815L75.506 7.47055L79.1362 16.1532H75.7951L74.9715 14.1246H70.6341L69.8341 16.1532H66.5547ZM71.551 11.6504H74.0673L72.8169 8.43911L71.551 11.6497V11.6504ZM80.6724 16.0705V4.71094H83.7809V13.3142H89.2236V16.0705H80.6724ZM89.4118 7.47594V4.71094H99.3063V7.47594H95.9167V16.0711H92.794V7.47594H89.4118ZM100.84 12.9575V4.71094H103.95V8.96478H107.944V4.71094C108.77 4.71094 109.563 5.03976 110.148 5.62507C110.732 6.21039 111.061 7.00424 111.061 7.83199V16.0705H107.944V11.7533H103.95V16.0705C103.125 16.0705 102.334 15.7425 101.751 15.1587C101.168 14.5749 100.84 13.7831 100.84 12.9575V12.9575ZM43.0254 16.0705V7.82392C43.0254 6.9983 43.353 6.20651 43.9361 5.62271C44.5192 5.03891 45.31 4.71094 46.1346 4.71094V8.96478H50.1286V4.71094H53.2459V12.9494C53.2459 13.7772 52.9174 14.571 52.3328 15.1563C51.7482 15.7416 50.9553 16.0705 50.1286 16.0705V11.7533H46.1346V16.0705H43.0254V16.0705ZM92.7732 29.3752V18.8456H97.8595C99.4246 18.8456 100.592 19.2225 101.363 19.9763C101.998 20.5982 102.315 21.4302 102.315 22.4734C102.315 23.2508 102.12 23.9118 101.73 24.4556C101.341 24.9988 100.797 25.4148 100.102 25.7035L102.668 29.3752H99.2249L97.0569 26.1881H95.7513V29.3752H92.7732ZM95.7513 23.9044H97.717C98.2219 23.9044 98.6145 23.7906 98.8948 23.5631C99.1745 23.3356 99.315 23.0213 99.315 22.6195C99.315 22.2136 99.1738 21.904 98.8915 21.6906C98.6084 21.478 98.2125 21.3716 97.7016 21.3716H95.752V23.9044H95.7513ZM81.748 24.7565V18.8456H84.7712V24.698C84.7712 25.437 84.946 25.995 85.2962 26.3719C85.6458 26.7488 86.1318 26.9373 86.7517 26.9373C87.3715 26.9373 87.8569 26.7556 88.2071 26.3941C88.5567 26.0313 88.7322 25.4908 88.7322 24.7713V18.8456H91.7627V24.6831C91.7627 25.5198 91.6451 26.2514 91.4105 26.8787C91.1752 27.5047 90.835 28.0142 90.39 28.4059C89.9449 28.797 89.4159 29.0898 88.8034 29.283C88.191 29.4761 87.4965 29.5731 86.7214 29.5731C85.1463 29.5731 83.9234 29.1732 83.0535 28.373C82.1829 27.572 81.748 26.3672 81.748 24.7565ZM69.2438 29.3752V18.8456H72.3947L74.9601 22.921L77.5261 18.8456H80.6764V29.3752H77.7056V23.3316L74.9601 27.4508C74.9416 27.4509 74.9234 27.4463 74.9071 27.4377C74.8908 27.429 74.8769 27.4164 74.8667 27.401L72.1621 23.3612V29.3752H69.2438ZM47.059 27.9873L48.7242 26.0488C49.7998 26.8902 50.9629 27.3115 52.2133 27.3115C52.6079 27.3115 52.9104 27.2469 53.1208 27.117C53.2194 27.0611 53.3009 26.9792 53.3563 26.8802C53.4118 26.7813 53.4391 26.669 53.4354 26.5556C53.4354 26.3302 53.3118 26.1464 53.0644 26.0044C52.817 25.8631 52.3383 25.7109 51.6277 25.5494C51.31 25.4777 50.9935 25.4005 50.6785 25.3179C50.4109 25.2472 50.1272 25.1577 49.8274 25.05C49.5634 24.9584 49.3073 24.8454 49.0617 24.7121C48.844 24.5895 48.6381 24.4471 48.4466 24.2867C48.2586 24.1338 48.0965 23.9515 47.9666 23.7469C47.8386 23.5351 47.7412 23.3062 47.6775 23.0671C47.6028 22.7895 47.5664 22.5031 47.5692 22.2156C47.5692 21.2222 47.9457 20.4118 48.6987 19.7858C49.4503 19.1579 50.4613 18.8456 51.7319 18.8456C53.4973 18.8456 54.9723 19.31 56.1581 20.2408L54.6657 22.3038C53.6607 21.6139 52.657 21.2686 51.6573 21.2686C51.3077 21.2686 51.0402 21.3332 50.8546 21.4638C50.6697 21.5931 50.5776 21.7633 50.5776 21.9733C50.5776 22.2183 50.7013 22.4081 50.9487 22.5428C51.1961 22.6774 51.6929 22.8275 52.4378 22.9937C53.098 23.1364 53.658 23.2912 54.1185 23.4602C54.5783 23.6291 54.9924 23.8411 55.3595 24.0956C55.7272 24.35 56.0015 24.6596 56.181 25.0244C56.3612 25.3892 56.4512 25.8159 56.4512 26.3059C56.4512 27.3681 56.0559 28.2047 55.266 28.8165C54.4761 29.429 53.4207 29.7346 52.0997 29.7346C51.1302 29.7346 50.2099 29.5865 49.3393 29.2904C48.4694 28.9942 47.7091 28.5601 47.059 27.9873V27.9873ZM56.4707 29.4485L60.4842 20.1655C60.6537 19.7736 60.934 19.4399 61.2906 19.2055C61.6471 18.9711 62.0643 18.8462 62.4909 18.8462C62.9174 18.8462 63.3347 18.9711 63.6912 19.2055C64.0478 19.4399 64.3281 19.7736 64.4976 20.1655L68.5036 29.4485H65.3077L64.5205 27.5686H60.3719L59.6062 29.4485H56.4707ZM61.2492 25.2997H63.6647L62.4647 22.3045L61.2492 25.2997ZM103.529 29.4485L107.543 20.1655C107.712 19.7736 107.993 19.4399 108.349 19.2055C108.706 18.9711 109.123 18.8462 109.55 18.8462C109.976 18.8462 110.393 18.9711 110.75 19.2055C111.106 19.4399 111.387 19.7736 111.556 20.1655L115.562 29.4485H112.366L111.579 27.5686H107.431L106.665 29.4485H103.529ZM108.437 25.4027H110.852L109.652 22.4068L108.437 25.402V25.4027ZM116.975 29.5542V23.2206H119.976V26.5503C119.976 27.3471 119.66 28.1114 119.097 28.6748C118.534 29.2383 117.771 29.5549 116.975 29.5549V29.5542Z" fill="#404040"/>
<path fill-rule="evenodd" clip-rule="evenodd" d="M118.487 19.1807C118.889 19.1807 119.273 19.3402 119.557 19.6242C119.841 19.9082 120 20.2934 120 20.6951V22.2095H116.975V20.6951C116.975 20.2934 117.134 19.9082 117.418 19.6242C117.702 19.3402 118.086 19.1807 118.487 19.1807Z" fill="#4D4D4D"/>
</svg>
