<svg id="Layer_1" data-name="Layer 1" xmlns="http://www.w3.org/2000/svg" viewBox="0 0 458.26 108.93"><defs><style>.cls-1{fill:#222}</style></defs><path class="cls-1" d="M840.09 541.68a2 2 0 0 1 .61-.37 2.24 2.24 0 0 1 .71-.18 3.63 3.63 0 0 1 3.11 1 3.37 3.37 0 0 1 .53 2.93 18.71 18.71 0 0 1-3.39 6.93 31.77 31.77 0 0 1-6.69 6.6 38.92 38.92 0 0 1-9.16 5 32.5 32.5 0 0 1-10.65 2.21 23.91 23.91 0 0 1-7.3-.77 18.06 18.06 0 0 1-5.94-2.77 16.43 16.43 0 0 1-4.3-4.53 15.54 15.54 0 0 1-2.26-6 27.2 27.2 0 0 1-.18-9.18 23.11 23.11 0 0 1 3-8.5 22.38 22.38 0 0 1 8.58-8.18q5.75-3.26 14.62-3.61 6.39-.26 9.38 2.12a9.94 9.94 0 0 1 3.6 6.63 10.5 10.5 0 0 1-1.12 6.37 18.16 18.16 0 0 1-4.55 5.61 27.78 27.78 0 0 1-7 4.26 34.73 34.73 0 0 1-8.83 2.43 8.39 8.39 0 0 0 2.42 3.89 7 7 0 0 0 4.55 1.52 20 20 0 0 0 11.16-4.2 45.87 45.87 0 0 0 9.1-9.21Zm-27.85.8a9.64 9.64 0 0 0 3.86-1.15 10.85 10.85 0 0 0 3-2.37 10.08 10.08 0 0 0 1.83-3 5.92 5.92 0 0 0 .48-2.87 5.51 5.51 0 0 0-.48-1.53 1.28 1.28 0 0 0-1.32-.6 4.27 4.27 0 0 0-2.44 1 10.87 10.87 0 0 0-2.31 2.48 14.36 14.36 0 0 0-1.77 3.62 16.49 16.49 0 0 0-.85 4.42Z" transform="translate(-731.1 -485.98)"/><path class="cls-1" d="M873.59 519.76a5.86 5.86 0 0 1-.4 2.76 11.53 11.53 0 0 1-1.49 2.76 11.3 11.3 0 0 1-2.18 2.24 5 5 0 0 1-2.43 1.09 10.3 10.3 0 0 1-3 .12c-1-.09-2.17-.21-3.43-.36a65.88 65.88 0 0 0-2.08 6.33 101.75 101.75 0 0 0-2.48 11.39c-.27 1.64-.36 3-.4 4.07-.06 1.4.27 2.28 1 2.65a5.12 5.12 0 0 0 2.58.5 9.61 9.61 0 0 0 3.76-1.3 21.12 21.12 0 0 0 5-3.85 14.21 14.21 0 0 0 1.46-1.46c.55-.62 3-3.6 3.6-4.22s1.14-1.16 1.66-1.61a2.28 2.28 0 0 1 1.17-.7 4.16 4.16 0 0 1 1.93.72 2.56 2.56 0 0 1 1.18 2q.4 3-2.27 6.34a55.28 55.28 0 0 1-8.72 8.63 44.65 44.65 0 0 1-9 4.85 26.6 26.6 0 0 1-8.8 2.1 9.9 9.9 0 0 1-5.84-1.76 12 12 0 0 1-4.39-5 16.82 16.82 0 0 1-.77-2.27 9 9 0 0 1-.24-2.59q0-1.7.18-4.41t.61-6.06q.39-3.36 1-7.19c.44-2.55 1-5.13 1.63-7.76a11.94 11.94 0 0 1-3.88-1.74 4.18 4.18 0 0 1-1.82-3 6.2 6.2 0 0 1 .17-2.85 3.24 3.24 0 0 1 1.37-1.66 7.08 7.08 0 0 1 2.53-.84c1-.18 2.23-.36 3.57-.55a3.07 3.07 0 0 0 .6-.07 4.65 4.65 0 0 1 .71-.08 58 58 0 0 1 2.61-6.55 36.33 36.33 0 0 1 3.17-5.47 15.91 15.91 0 0 1 3.59-3.74 7.16 7.16 0 0 1 4-1.46 12.59 12.59 0 0 1 5.42 1 14.58 14.58 0 0 1 4.66 2.81 6.64 6.64 0 0 1 2.34 4 2.89 2.89 0 0 1-.26 1.86 9.12 9.12 0 0 1-1.2 1.6c-.52.55-1.13 1.21-1.81 2a17.35 17.35 0 0 0-2.1 3l4.78-.19a1.88 1.88 0 0 1 1.94 1.47 14.74 14.74 0 0 1 .77 2.45Z" transform="translate(-731.1 -485.98)"/><path class="cls-1" d="M906.7 486a31.54 31.54 0 0 1 13.06 1.91 28 28 0 0 1 9.12 5.67 22.72 22.72 0 0 1 5.28 7.43 17.48 17.48 0 0 1 1.63 7.08 17.9 17.9 0 0 1-2.07 7.93 28.77 28.77 0 0 1-5.25 7.12A39.15 39.15 0 0 1 921 529a45.89 45.89 0 0 1-8.9 4.17 23.14 23.14 0 0 1 4.87 4.74q2.42 3.06 4.55 6.06t3.87 5.19q1.75 2.18 3.06 2.13a3.11 3.11 0 0 0 2.08-1.34c.73-.86 1.55-1.81 2.47-2.85a24 24 0 0 1 3.07-2.88 6.71 6.71 0 0 1 4-1.41 1.87 1.87 0 0 1 1.49.39 2.77 2.77 0 0 1 .58 1.12 10.13 10.13 0 0 1-1.07 5.45 22.38 22.38 0 0 1-4.25 6.27 27.88 27.88 0 0 1-7 5.29 20.66 20.66 0 0 1-9.25 2.48q-5.64.23-8.4-1.66a13.48 13.48 0 0 1-4.54-6.11 153.51 153.51 0 0 1-3.36-7.16 65.25 65.25 0 0 0-3-6 19.22 19.22 0 0 0-3.51-4.55 10.6 10.6 0 0 0-5.07-2.54 7.18 7.18 0 0 1-4.09-1.88 9.27 9.27 0 0 1-2.39-3.35 4.13 4.13 0 0 1 0-3.25c.43-1 1.44-1.51 3-1.57a27.46 27.46 0 0 1 3.59 0c1 .09 1.92.19 2.78.29l2.64.29a21.1 21.1 0 0 0 3 .07 18.68 18.68 0 0 0 10.57-3.88 13.45 13.45 0 0 0 3.29-3.79 9.32 9.32 0 0 0 1.32-4.55 16.57 16.57 0 0 0-.4-3.83 10.55 10.55 0 0 0-1.68-3.93 9.18 9.18 0 0 0-3.55-2.95 11.91 11.91 0 0 0-5.87-1 21 21 0 0 0-2.14.19 21.7 21.7 0 0 0-2.15.39 58.83 58.83 0 0 0-6.45 1.66 59.66 59.66 0 0 1-6.46 1.67l-2.8.51a18.9 18.9 0 0 1-2.79.31 8.74 8.74 0 0 1-3.81-.59 9 9 0 0 1-2.72-1.74 7.2 7.2 0 0 1-1.58-2.26 5.29 5.29 0 0 1-.52-2.33q.1-3 3.17-5.52a28.51 28.51 0 0 1 7.77-4.37 60.8 60.8 0 0 1 10.59-3A78.06 78.06 0 0 1 906.7 486Zm-15.18 14.22a9.06 9.06 0 0 1 3.06.48 12.89 12.89 0 0 1 3.18 1.52 14.5 14.5 0 0 1 2.71 2.28 6.32 6.32 0 0 1 1.53 2.8 5 5 0 0 1-.48 2.52 437.1 437.1 0 0 1-1.28 3.25 90.13 90.13 0 0 0-3.89 9.95 113.72 113.72 0 0 0-3 11c-.81 3.77-1.47 7.53-1.95 11.28s-.78 7.26-.88 10.53l.22 4.14a10.47 10.47 0 0 1-.25 3.15 3.6 3.6 0 0 1-1.37 2.06 6.11 6.11 0 0 1-3.25.83q-5.32.21-7.82-3.58a22.12 22.12 0 0 1-2-6.42 55.17 55.17 0 0 1-.77-8.36c-.06-3 0-6.11.22-9.35s.54-6.42 1-9.54.94-6 1.5-8.75a63.36 63.36 0 0 1 1.83-7.12c.73-2.1 1.46-3.93 2.17-5.49a16.47 16.47 0 0 1 2.42-3.9 9.3 9.3 0 0 1 3-2.37 10.19 10.19 0 0 1 4.1-.9Z" transform="translate(-731.1 -485.98)"/><path class="cls-1" d="M974.85 546.88a32 32 0 0 1-9.06 9.17 29.88 29.88 0 0 1-5.78 3 18 18 0 0 1-11.85.59 17.49 17.49 0 0 1-5.27-2.48 15.86 15.86 0 0 1-4-3.94 11.88 11.88 0 0 1-2-5.06 23.55 23.55 0 0 1 .83-10.49 33.4 33.4 0 0 1 4.81-9.89 29.71 29.71 0 0 1 7.58-7.47 17.43 17.43 0 0 1 9.17-3.18 12.08 12.08 0 0 1 3 .27 7.25 7.25 0 0 1 2.62 1.1 13.72 13.72 0 0 1 2.89-.42 9.27 9.27 0 0 1 6.85 2.11 12.5 12.5 0 0 1 3.6 5.65 19.78 19.78 0 0 1 .85 7.07 19.44 19.44 0 0 1-1.34 6.45 2.56 2.56 0 0 0 1.89.83 5.14 5.14 0 0 0 3.32-1.64c1.08-1 2.06-2 2.94-3a12.47 12.47 0 0 1 1.12-1.2 1.51 1.51 0 0 1 .9-.49 4.24 4.24 0 0 1 2.44.85 3 3 0 0 1 1 1.81 6.36 6.36 0 0 1-.7 3.78 14.51 14.51 0 0 1-2.64 3.71 15.26 15.26 0 0 1-3.84 2.86 10.28 10.28 0 0 1-4.38 1.23 9.54 9.54 0 0 1-4.95-1.22Zm-17.67 2.63a5.14 5.14 0 0 0 3.28-1.59 11 11 0 0 0 2.27-3.59 21.07 21.07 0 0 0 1.28-4.86 21.52 21.52 0 0 0 .14-5.25 9.82 9.82 0 0 1-2.09-3.52 21 21 0 0 1-1.18-4.05v-.1c0-.06 0-.1.05-.1s0-.07 0-.2a21.19 21.19 0 0 0-3.45 3.34 24.52 24.52 0 0 0-2.83 4.27 21.33 21.33 0 0 0-1.78 4.67 11.11 11.11 0 0 0-.24 4.56c.12.6.28 1.28.46 2a10.63 10.63 0 0 0 .76 2.12 5 5 0 0 0 1.27 1.65 2.86 2.86 0 0 0 2.06.65Z" transform="translate(-731.1 -485.98)"/><path class="cls-1" d="M1003.52 531.09a2.14 2.14 0 0 1 .21-1.56 5.51 5.51 0 0 1 1.51-1.62l4.22-3.57a2.49 2.49 0 0 0-1.89-.82 7.07 7.07 0 0 0-3.75 1.26 8.87 8.87 0 0 0-2.87 3.28 15.4 15.4 0 0 0-1.54 5 22.53 22.53 0 0 0 .13 6.62 12.75 12.75 0 0 0 2.85 5.76 7.26 7.26 0 0 0 5.39 2 16.23 16.23 0 0 0 5.52-1.28 29.07 29.07 0 0 0 10.3-7.23 28.72 28.72 0 0 0 3.87-5.21 1.72 1.72 0 0 1 1.51-1.16 2.92 2.92 0 0 1 2.19 1.11 4.88 4.88 0 0 1 1.29 2 5.19 5.19 0 0 1-.51 2.92 24.52 24.52 0 0 1-3.87 6 43.36 43.36 0 0 1-14.85 11.28 23.53 23.53 0 0 1-9.05 2.31q-9.45.39-14.27-3.47t-6.11-12.3a21.5 21.5 0 0 1 .63-9.82 24.16 24.16 0 0 1 4.75-8.75 26.68 26.68 0 0 1 8-6.39 24.57 24.57 0 0 1 10.53-2.73h2c.79 0 1.74.05 2.73.14a16.46 16.46 0 0 1 3 .57 12.34 12.34 0 0 1 2.88 1.24 8.42 8.42 0 0 1 2.33 2 8.55 8.55 0 0 1 1.48 3.14 16.52 16.52 0 0 1 0 5.71 13.66 13.66 0 0 1-1.67 4.52 9.5 9.5 0 0 1-2.82 3 6.41 6.41 0 0 1-3.35 1.19 16.34 16.34 0 0 1-3.1-.22 17.07 17.07 0 0 1-3.44-.91 9.86 9.86 0 0 1-2.83-1.63 4.17 4.17 0 0 1-1.4-2.38Z" transform="translate(-731.1 -485.98)"/><path class="cls-1" d="M1058.16 556.37a12.56 12.56 0 0 1-6.37-1.19 12.41 12.41 0 0 1-4.27-3.68 25.12 25.12 0 0 1-3-5.39q-1.24-3-2.45-6.3-.19 1.91-.45 3.72c-.17 1.21-.36 2.45-.56 3.72-.14.81-.25 1.8-.35 3a12.79 12.79 0 0 1-.81 3.43 8.21 8.21 0 0 1-2 2.94 5.57 5.57 0 0 1-3.72 1.35 5.64 5.64 0 0 1-3.11-.88 13.57 13.57 0 0 1-3-2.33 15.71 15.71 0 0 1-2.3-3 8.64 8.64 0 0 1-1.14-3 14.88 14.88 0 0 1 0-6c.41-1.92.76-4 1-6.3q.42-2.31 1.08-7c.45-3.08 1-6.47 1.64-10.17s1.42-7.49 2.33-11.4a76.72 76.72 0 0 1 3.26-10.69 32.31 32.31 0 0 1 4.32-8 7.43 7.43 0 0 1 5.6-3.28 12.76 12.76 0 0 1 4.11.58 18.5 18.5 0 0 1 4.11 1.78 14.25 14.25 0 0 1 3.27 2.67 6.62 6.62 0 0 1 1.69 3.34 3.36 3.36 0 0 1-.1 1.8 5.59 5.59 0 0 1-1.38 2.06 19.41 19.41 0 0 0-3.12 4.48 60.61 60.61 0 0 0-3.13 6.88c-1 2.58-1.92 5.28-2.78 8.12a74.74 74.74 0 0 0-2 8.08 5.89 5.89 0 0 0 3.29-2.58q1.2-1.9 2.49-3.9a17.13 17.13 0 0 1 3.19-3.64 8.37 8.37 0 0 1 5.27-1.76 12.64 12.64 0 0 1 5.18.79 7.81 7.81 0 0 1 3.19 2.37 6.37 6.37 0 0 1 1.31 2.85 9.18 9.18 0 0 1-2.36 8.16q-3.18 3.48-11.37 6.91c.6 1.11 1.24 2.2 1.9 3.27a34.22 34.22 0 0 0 2.06 3 10.82 10.82 0 0 0 2.16 2.17 3.5 3.5 0 0 0 2.2.76q.81 0 1.8-.12a4.76 4.76 0 0 0 2.3-1 24.16 24.16 0 0 0 3.49-3.09 57 57 0 0 0 2.59-2.9l1.84-2.18a2.07 2.07 0 0 1 1.34-.9 7.15 7.15 0 0 1 2.55.45 1.88 1.88 0 0 1 1.46 1.89 11.67 11.67 0 0 1-2 5.78 32.24 32.24 0 0 1-5.27 6.52 35.49 35.49 0 0 1-7.25 5.39 17.4 17.4 0 0 1-7.73 2.42Z" transform="translate(-731.1 -485.98)"/><path class="cls-1" d="M1118.62 530.37a1.71 1.71 0 0 1 .59-.37 2.19 2.19 0 0 1 .7-.18 3.78 3.78 0 0 1 3.16 1 3.46 3.46 0 0 1 .69 2.93 17.5 17.5 0 0 1-3 6.92 29.28 29.28 0 0 1-6.32 6.6 36.37 36.37 0 0 1-8.86 5 31.58 31.58 0 0 1-10.51 2.22 24.57 24.57 0 0 1-7.33-.77 19.46 19.46 0 0 1-6.09-2.76 18.06 18.06 0 0 1-4.54-4.52 16.58 16.58 0 0 1-2.58-6 27.54 27.54 0 0 1-.7-9.17 22.19 22.19 0 0 1 2.5-8.51 20.66 20.66 0 0 1 8.11-8.18q5.55-3.27 14.4-3.62 6.36-.25 9.47 2.12a10.66 10.66 0 0 1 4 6.63 10.31 10.31 0 0 1-.76 6.37 16.64 16.64 0 0 1-4.23 5.6 25.74 25.74 0 0 1-6.8 4.26 33.38 33.38 0 0 1-8.67 2.44 9 9 0 0 0 2.63 3.88 7.35 7.35 0 0 0 4.62 1.52 19 19 0 0 0 10.92-4.2 42.19 42.19 0 0 0 8.6-9.21Zm-27.75.78a9 9 0 0 0 3.78-1.15 9.75 9.75 0 0 0 2.82-2.36 9.57 9.57 0 0 0 1.67-3 6 6 0 0 0 .32-2.87 5.74 5.74 0 0 0-.57-1.52 1.31 1.31 0 0 0-1.35-.6 4.08 4.08 0 0 0-2.38 1 10.12 10.12 0 0 0-2.17 2.49 13.08 13.08 0 0 0-1.56 3.61 15.39 15.39 0 0 0-.56 4.4Z" transform="translate(-731.1 -485.98)"/><path class="cls-1" d="M1150.84 508.53a5.79 5.79 0 0 1-.24 2.76 10.47 10.47 0 0 1-1.34 2.75 10.11 10.11 0 0 1-2 2.23 4.7 4.7 0 0 1-2.37 1.09 10.59 10.59 0 0 1-2.94.11c-1-.09-2.18-.22-3.44-.37a63.06 63.06 0 0 0-1.73 6.32q-.69 3.18-1.14 6.05c-.3 1.92-.52 3.69-.66 5.33s-.2 3-.18 4.07c0 1.4.41 2.28 1.15 2.66a5.28 5.28 0 0 0 2.61.5 9.25 9.25 0 0 0 3.68-1.29 19.58 19.58 0 0 0 4.73-3.83 14.44 14.44 0 0 0 1.37-1.45c.52-.62 1.06-1.24 1.61-1.87s1.08-1.15 1.57-1.61a2.17 2.17 0 0 1 1.13-.69 4.49 4.49 0 0 1 2 .73 2.74 2.74 0 0 1 1.29 2q.57 3-1.91 6.33a29.36 29.36 0 0 1-6.48 6.25 41.12 41.12 0 0 1-8.73 4.83 25.77 25.77 0 0 1-8.67 2.08 10.36 10.36 0 0 1-5.93-1.78 13 13 0 0 1-4.66-5 15.39 15.39 0 0 1-.89-2.26 9 9 0 0 1-.39-2.59c-.08-1.13-.1-2.6-.06-4.4s.13-3.83.27-6.07.35-4.63.65-7.18.69-5.14 1.19-7.76a12.35 12.35 0 0 1-4-1.75 4.45 4.45 0 0 1-2-3 6.13 6.13 0 0 1 0-2.86 2.9 2.9 0 0 1 1.26-1.65 6.8 6.8 0 0 1 2.48-.84c1-.18 2.21-.35 3.54-.54a4.09 4.09 0 0 0 .6-.07 4.37 4.37 0 0 1 .7-.08 55.19 55.19 0 0 1 2.24-6.54 33.63 33.63 0 0 1 2.86-5.47 14.71 14.71 0 0 1 3.38-3.73 6.8 6.8 0 0 1 3.9-1.45 13 13 0 0 1 5.46 1 15.58 15.58 0 0 1 4.81 2.83 7.17 7.17 0 0 1 2.56 4 2.82 2.82 0 0 1-.16 1.85 7.25 7.25 0 0 1-1.11 1.6l-1.69 2a15.38 15.38 0 0 0-1.93 3l4.76-.18a2 2 0 0 1 2 1.48 15 15 0 0 1 .85 2.46Z" transform="translate(-731.1 -485.98)"/><path class="cls-1" d="M1171.58 538.06a7.21 7.21 0 0 0-2.45-3.67c-1.41-1.3-2.94-2.65-4.57-4s-3.16-2.8-4.57-4.22a8.72 8.72 0 0 1-2.55-4.35 9.42 9.42 0 0 1 .32-5.07 10.29 10.29 0 0 1 2.88-4.21 15.26 15.26 0 0 1 5-2.88 22.45 22.45 0 0 1 6.72-1.21 22.17 22.17 0 0 1 10.68 1.89 8.55 8.55 0 0 1 5.06 6.14 5.27 5.27 0 0 1 0 2.65 6.12 6.12 0 0 1-1.09 2.16 5.91 5.91 0 0 1-1.73 1.51 4.48 4.48 0 0 1-2 .6 5.82 5.82 0 0 1-3.82-1.07 12.93 12.93 0 0 1-2.56-2.56c-.7-.94-1.31-1.8-1.84-2.59s-1.06-1.18-1.54-1.18c-1.47 0-2.13.53-2 1.42a9.21 9.21 0 0 0 3.09 4.57q2.65 2.46 5.74 5c2.07 1.67 4 3.3 5.71 4.91a9.23 9.23 0 0 1 3.06 4.43 10.77 10.77 0 0 1-.41 5.7 12.07 12.07 0 0 1-3.53 5.09 20.49 20.49 0 0 1-6.56 3.76 30.92 30.92 0 0 1-9.52 1.69 27.28 27.28 0 0 1-5.71-.38 20.79 20.79 0 0 1-10.67-4.52 13.94 13.94 0 0 1-4.93-7.73 9.7 9.7 0 0 1 0-4 10.71 10.71 0 0 1 1.65-3.92 10.48 10.48 0 0 1 3.11-3 8.85 8.85 0 0 1 4.4-1.27 9.66 9.66 0 0 1 3.43.7 11.26 11.26 0 0 1 3.75 2.22 11.84 11.84 0 0 1 1.43 1.64 5.07 5.07 0 0 1 .87 1.94 2.93 2.93 0 0 1-.42 2.52 6.55 6.55 0 0 1-1.71 1.46c-.63.38-1.23.76-1.8 1.13a1.34 1.34 0 0 0-.64 1.52 2.48 2.48 0 0 0 1.53 1.68 10.46 10.46 0 0 0 4.5.51 3.6 3.6 0 0 0 3.19-1.51 4.51 4.51 0 0 0 .5-3.5ZM740.72 585l.37.1.62.17.2.05a43.56 43.56 0 0 0 9.31 1.15 57.75 57.75 0 0 0 11.65-1.62c3.85-.94 7.46-3 10.76-4.94a29.94 29.94 0 0 0 8.52-7.55 29.12 29.12 0 0 0 5.12-11.28c.43-2.06.79-4.08 1.11-6.08a25.32 25.32 0 0 0 9-5.34c6.09-6.42 2.6-6.88 2.6-7.71s-3.69-2.31-4.56-.6c-.39.76-2.58 2-5.53 3.24.27-1.94.55-3.9.86-5.91q.6-3.81 1.51-8c.94-4.16 2.07-8.21 3.36-12.16a104.28 104.28 0 0 1 4.28-11c.59-1.22 1.08-2.47 1.58-3.71.77-1.92.77-1.92.54-2.87a7.62 7.62 0 0 0-2.37-4.2 14.57 14.57 0 0 0-4.32-2.93 9.9 9.9 0 0 0-12 2.55 29 29 0 0 0-5.1 10 114.45 114.45 0 0 0-3.78 16.47q-1.65 9.9-3.67 23c-.22 1.38-.47 2.73-.73 4.08H770c-4.05.85-6.8 1.33-12 2.67-6.54 1.69-18.39 6.17-22.93 11.39-4.31 5-5.75 13.37-.8 17.42a16.38 16.38 0 0 0 4.27 2.75Zm18.88-11.77a12 12 0 0 1-7.45 2.72 20.1 20.1 0 0 1-4.12-.25c-2.36-.6-3.53-1.47-3.4-3.6.18-3 5.62-6 10-7.42a102.79 102.79 0 0 1 12.51-3.64 42 42 0 0 1-2.29 5.46 20.87 20.87 0 0 1-5.25 6.76ZM800.92 593.69c-2.09-.85-1.55-2 4.73-3.93 4.92-1.52 30.61-10.35 75.65-15.11 22.92-2.41 38.22-3.35 55.65-4.41 32.89-2 78.26-1.88 109-.89 48.43 1.51 95.65 3.89 97.42 4.2s2.67.68.1 2.25c-2.28 1.43-27.94 9.3-29.94 10-2.89 1-2.83 1.12-14.52-.24a1250.36 1250.36 0 0 0-155.31-8.32c-55.47.63-86.55 3.69-112.74 10.18-24.14 6-22 5.88-24.89 6.82s-2.92.95-4.57 0c-.94-.65-.58-.55-.58-.55Z" transform="translate(-731.1 -485.98)"/></svg>