<svg width="90" height="44" viewBox="0 0 90 44" fill="none" xmlns="http://www.w3.org/2000/svg">
<path d="M24.8832 42.3168L3.2376 43.9975L0 11.2834L1.73881 11.1632C2.69821 11.1032 3.35758 10.2028 3.29758 9.24231L3.11759 7.56165C2.99759 6.54112 3.77699 5.70078 4.73639 5.58065L16.6686 4.68025C17.688 4.62019 18.5874 5.34038 18.6474 6.36091L18.8274 8.04158L19.0074 9.84237L25.1232 9.36245L47.7282 9.72284L50.0064 37.0952L45.8694 40.6968L24.8832 42.3168Z" fill="#C6C5C5"/>
<path d="M33.2778 0L6.29574 14.0466L3.41754 44L30.2196 41.8989L45.3299 40.6981L54.9833 39.9179L57.9216 9.96445L33.2778 0Z" fill="#4D4D4D"/>
<path d="M20.6266 31.816L17.5684 26.774H15.0502V31.816H12.052V17.71H18.6478C21.586 17.71 23.3848 19.6309 23.3848 22.272C23.3848 24.793 22.1254 26.1139 20.6266 26.4737L24.1042 31.8761H20.6266V31.816ZM20.3266 22.272C20.3266 21.0713 19.4272 20.3511 18.2278 20.3511H15.0502V24.1329H18.2278C19.4272 24.1329 20.3266 23.4722 20.3266 22.272Z" fill="white"/>
<path d="M25.963 31.816V17.71H35.9164V20.3511H28.9612V23.3526H35.197V25.9937H28.9612V29.1749H35.9164V31.816H25.963Z" fill="white"/>
<path d="M37.5952 24.7901C37.5952 20.3482 40.9528 17.4668 45.0904 17.4668C48.0286 17.4668 49.8874 18.9673 50.9068 20.6479L48.3886 22.0283C47.7292 21.0077 46.5298 20.1674 45.031 20.1674C42.4528 20.1674 40.594 22.1484 40.594 24.7895C40.594 27.4307 42.4528 29.4117 45.031 29.4117C46.2904 29.4117 47.4892 28.8717 48.0292 28.3311V26.8306H44.3116V24.1895H51.0274V29.4717C49.5886 31.0923 47.6098 32.1129 45.0316 32.1129C41.0128 32.1135 37.5952 29.2321 37.5952 24.7901Z" fill="white"/>
<path d="M58.4606 30.3145C58.4606 29.354 59.24 28.5737 60.1994 28.5737C61.1588 28.5737 61.9382 29.354 61.9382 30.3145C61.9382 31.2749 61.1588 32.0552 60.1994 32.0552C59.24 32.0552 58.4606 31.2749 58.4606 30.3145Z" fill="#4D4D4D"/>
<path d="M72.851 31.816L69.4933 26.774H67.2745V31.816H64.2763V17.71H70.8721C73.8103 17.71 75.6092 19.6309 75.6092 22.272C75.6092 24.793 74.0504 26.1139 72.551 26.4737L76.3286 31.8761H72.851V31.816ZM72.551 22.272C72.551 21.0713 71.6516 20.3511 70.4522 20.3511H67.2745V24.1329H70.4522C71.6516 24.1329 72.551 23.4722 72.551 22.272Z" fill="#4D4D4D"/>
<path d="M77.8876 26.1739V17.71H80.9458V26.1139C80.9458 28.0949 81.7852 29.4151 83.9439 29.4151C86.1027 29.4151 86.9421 28.0348 86.9421 26.1139V17.71H89.9997V26.1739C89.9997 29.7155 88.2009 32.0563 83.9439 32.0563C79.627 32.0569 77.8876 29.656 77.8876 26.1739Z" fill="#4D4D4D"/>
</svg>
