<svg width="662" height="200" xmlns="http://www.w3.org/2000/svg"><g fill="none" fill-rule="evenodd"><path d="M91.73 192.06H13.36c-5.69 0-9-5.02-9-9.45a9.34 9.34 0 0 1 2.78-6.68l34.2-34.2 50.4 50.33Z" fill="#FF4F12"/><path d="M13.36 192.06c-5.95 0-13.3-4.76-13.3-14.15V72.55c0-14.22-.72-24.27 9.46-34.39L47.62 0l67.66 67.8L7.14 175.92a9.45 9.45 0 0 0-2.77 6.68c0 4.43 3.3 9.45 8.99 9.45Z" fill="#70F"/><path d="M134.2 164.81h4.95v20.04c.27-.6 1.2-2.11 1.2-2.11l11.04-17.93h5.22v27.32h-4.96v-20.17c-.26.6-1.19 2.11-1.19 2.11l-11.04 18h-5.23V164.8ZM160.32 172.75h4.89v7.21h8v-7.21h4.9v19.31h-4.9v-7.8h-8v7.8h-4.89zM195.37 192.46V200h-4.76v-7.54c-6.02-.73-10.12-4.43-10.12-10.05 0-5.62 4.1-9.33 10.12-10.06v-7.54h4.76v7.54c6.02.73 10.12 4.44 10.12 10.06s-4.04 9.32-10.12 10.05Zm-4.76-4.63v-10.85c-3.18.53-5.16 2.25-5.16 5.43.07 3.17 2.05 4.9 5.16 5.42Zm9.92-5.42c0-3.18-1.99-4.9-5.16-5.43v10.85c3.17-.53 5.16-2.25 5.16-5.42ZM217.4 192.6c-5.3 0-10.59-3.45-10.59-10.2 0-6.8 5.3-10.18 10.58-10.18 5.3 0 10.59 3.44 10.59 10.19 0 6.81-5.3 10.18-10.59 10.18Zm5.62-10.2a5.43 5.43 0 0 0-5.56-5.61 5.43 5.43 0 0 0-5.56 5.62 5.43 5.43 0 0 0 5.56 5.62 5.43 5.43 0 0 0 5.56-5.62ZM235.45 172.75v2.78a8.16 8.16 0 0 1 6.68-3.3c4.83 0 8.86 3.76 8.86 10.18 0 6.21-4.16 10.18-9.32 10.18a7.93 7.93 0 0 1-6.29-2.9V200h-4.9v-27.31h4.97v.06Zm-.33 9.66a5.43 5.43 0 0 0 5.49 5.62 5.43 5.43 0 0 0 5.49-5.62 5.43 5.43 0 0 0-5.5-5.62 5.43 5.43 0 0 0-5.48 5.62ZM253.37 172.75h6.42l5.36 13.56 5.35-13.56h6.42v19.31h-4.7v-12.23l-5.16 12.23h-3.83l-5.16-12.23v12.23h-4.7zM292.26 189.02a7.07 7.07 0 0 1-6.48 3.64c-3.84 0-6.48-2.38-6.48-6.02 0-3.97 2.98-5.75 6.88-6.28l5.82-.8v-.99c0-1.85-1.2-2.9-3.64-2.9-2.12 0-3.37.98-3.37 2.17 0 .14 0 .4.06.53l-4.63.53a5.35 5.35 0 0 1-.06-.99c0-2.98 2.97-5.62 8.07-5.62 5.42 0 8.53 2.31 8.53 7v8.08c0 2.11.2 3.44.6 4.76h-4.9c-.2-.86-.4-1.92-.4-3.1Zm-.26-5.75v-.33l-4.7.66c-2.11.33-3.24 1.12-3.24 2.7 0 1.6 1.26 2.32 2.78 2.32 2.84 0 5.16-1.58 5.16-5.35ZM315.61 192.06h-15.87v-19.31h4.89v14.88h7.67v-14.88h4.9v14.88h2.91v9h-4.44v-4.57zM321.49 172.75h4.7v12.77l8.4-12.77h5.09v19.31h-4.69V179.3l-8.4 12.76h-5.1zM352.58 192.6c-5.3 0-10.58-3.45-10.58-10.2 0-6.8 5.29-10.18 10.58-10.18s10.58 3.44 10.58 10.19c0 6.81-5.29 10.18-10.58 10.18Zm5.62-10.2a5.43 5.43 0 0 0-5.55-5.61 5.43 5.43 0 0 0-5.56 5.62 5.43 5.43 0 0 0 5.56 5.62 5.43 5.43 0 0 0 5.55-5.62ZM365.48 172.75h4.89v7.21h8v-7.21h4.9v19.31h-4.9v-7.8h-8v7.8h-4.89zM386.51 172.75h4.89v7.21h8.07v-7.21h4.89v19.31h-4.89v-7.8h-8v7.8h-4.9v-19.31zM407.54 172.75h4.9v6.28h3.9c4.5 0 7.67 2.12 7.67 6.49 0 4.36-3.18 6.48-7.67 6.48h-8.8v-19.25Zm8.46 15.61c2.39 0 3.31-1.2 3.31-2.78 0-1.59-.92-2.78-3.3-2.78h-3.58v5.56H416Zm15.02-15.6v19.3h-4.9v-19.3h4.9ZM443.39 188.43c2.58 0 3.7-1.13 4.9-2.65l3.9 1.92c-1.93 3.3-4.64 4.9-8.87 4.9-5.36 0-9.92-4.1-9.92-10.2 0-6.14 4.56-10.18 10.19-10.18 5.55 0 9.45 4.04 9.45 9.66v1.72h-14.88a4.99 4.99 0 0 0 5.23 4.83Zm-5.23-8.6h10.25c-.46-2.45-2.31-3.9-5.02-3.9a5.5 5.5 0 0 0-5.23 3.9Z" fill="#000"/><path fill="#000" fill-rule="nonzero" d="M469.74 192v-21.96h-8.13v-4.64h21.28v4.64h-8.13V192z"/><path d="M490.01 188.43c2.58 0 3.7-1.13 4.9-2.65l3.9 1.92c-1.92 3.3-4.63 4.9-8.86 4.9-5.36 0-9.92-4.1-9.92-10.2 0-6.14 4.56-10.18 10.18-10.18 5.56 0 9.46 4.04 9.46 9.66v1.72h-14.88a5.07 5.07 0 0 0 5.22 4.83Zm-5.22-8.6h10.25c-.46-2.45-2.32-3.9-5.03-3.9a5.56 5.56 0 0 0-5.22 3.9Z" fill="#000"/><path fill="#000" d="M511.77 172.75h5.69l-6.02 9 6.81 10.31h-5.75l-3.97-6.35-4.03 6.35h-5.62l7.07-10.18-6.21-9.13h5.62l3.24 5.16zM519.38 172.75h4.89v7.21h8.01v-7.21h4.89v19.31h-4.89v-7.8h-8.01v7.8h-4.89zM550.13 192.6c-5.29 0-10.58-3.45-10.58-10.2 0-6.8 5.3-10.18 10.58-10.18 5.3 0 10.58 3.44 10.58 10.19-.06 6.81-5.29 10.18-10.58 10.18Zm5.56-10.2a5.44 5.44 0 0 0-5.56-5.61 5.43 5.43 0 0 0-5.55 5.62 5.43 5.43 0 0 0 5.55 5.62 5.43 5.43 0 0 0 5.56-5.62ZM561.11 192.06v-4.3s.53.27 1.39.27c1.19 0 1.79-.8 1.98-4.3l.6-10.98h15.21v19.31h-4.9v-14.88h-6.01l-.33 6.68c-.27 5.56-1.85 8.47-6.22 8.47-.86 0-1.72-.27-1.72-.27ZM593.25 192.6c-5.29 0-10.58-3.45-10.58-10.2 0-6.8 5.3-10.18 10.58-10.18 5.3 0 10.59 3.44 10.59 10.19-.07 6.81-5.3 10.18-10.59 10.18Zm5.56-10.2a5.44 5.44 0 0 0-5.56-5.61 5.44 5.44 0 0 0-5.55 5.62 5.43 5.43 0 0 0 5.55 5.62 5.43 5.43 0 0 0 5.56-5.62ZM606.15 172.75h13.23v4.43h-8.33v14.88h-4.9zM621.69 172.75h4.7v12.77l8.4-12.77h5.09v19.31h-4.69V179.3l-8.4 12.76h-5.1zM642.99 172.75h4.7v12.77l8.39-12.77h5.1v19.31h-4.7V179.3l-8.4 12.76h-5.09zM462.1 107.61h-11.31l-13.55 13.69v-13.69h-9.59v37.69h9.59v-15.6l13.75 15.6h11.58l-17.8-20.23zM158.4 92.06h-24.2v53.24h10.05v-18.58h14.15c12.04 0 19.9-6.15 19.9-17.33 0-11.18-7.93-17.33-19.9-17.33Zm-.33 25.73h-13.82v-16.73h13.82c7 0 10.18 3.37 10.18 8.33 0 5.03-3.17 8.4-10.18 8.4ZM201 106.55c-10.33 0-20.64 6.68-20.64 19.9 0 13.23 10.25 19.91 20.63 19.91 10.32 0 20.64-6.68 20.64-19.9-.07-13.23-10.32-19.91-20.64-19.91Zm0 30.88c-5.63 0-10.85-4.03-10.85-10.98 0-6.94 5.22-10.97 10.84-10.97s10.85 4.03 10.85 10.97c0 6.95-5.23 10.98-10.85 10.98ZM246.03 137.43c-5.75 0-10.05-4.16-10.05-10.98 0-6.68 4.43-10.97 10.05-10.97 3.44 0 6.42 1.58 8.73 5.15l8.2-4.7c-2.7-5.88-8.66-9.45-16.86-9.45-10.72 0-19.84 7.94-19.84 19.9 0 12.05 8.66 19.92 19.84 19.92 8.07 0 13.42-3.64 17.26-10.12l-7.94-4.37c-2.25 3.3-4.7 5.62-9.39 5.62ZM348.02 128.97c-.47 5.75-1.6 7.07-3.58 7.07a9.1 9.1 0 0 1-2.9-.4l.06 9.8s1.2.33 3.37.33c8.14 0 11.18-5.23 11.97-16.4l.93-13.17h10.78v29.04h9.6V107.6h-28.58l-1.65 21.36ZM320.83 106.55c-10.98 0-19.84 8-19.84 19.9 0 11.98 8.93 19.91 19.38 19.91 8.27 0 13.56-3.1 17.33-9.59l-7.6-3.77c-2.39 2.98-4.5 5.16-9.6 5.16-5.62 0-9.72-3.64-10.31-9.46h29.1v-3.37c0-10.98-7.61-18.78-18.46-18.78Zm-10.45 14.88c1.4-4.23 5.16-7.6 10.19-7.6 5.29 0 8.93 2.9 9.79 7.6h-19.98ZM403.44 106.55c-10.98 0-19.84 8-19.84 19.9 0 11.98 8.93 19.91 19.38 19.91 8.26 0 13.55-3.1 17.32-9.59l-7.6-3.77c-2.38 2.98-4.5 5.16-9.6 5.16-5.61 0-9.71-3.64-10.3-9.46h29.03v-3.37c0-10.98-7.61-18.78-18.4-18.78Zm-10.52 14.88c1.4-4.23 5.16-7.6 10.19-7.6 5.29 0 8.93 2.9 9.79 7.6h-19.98ZM266.34 115.94h11.24v29.36h9.59v-29.36h11.24v-8.33h-32.07z"/><path d="M481.61 106.55c-10.31 0-20.63 6.68-20.63 19.9 0 13.23 10.25 19.91 20.63 19.91 10.39 0 20.64-6.68 20.64-19.9-.07-13.23-10.32-19.91-20.64-19.91Zm0 30.88c-5.62 0-10.84-4.03-10.84-10.98 0-6.94 5.22-10.97 10.84-10.97 5.63 0 10.85 4.03 10.85 10.97 0 6.95-5.22 10.98-10.85 10.98ZM540.34 107.61l-10.45 26.38-10.38-26.38h-12.5v37.63h9.13v-23.81l10.05 23.81h7.47l10.06-23.81v23.81h9.12v-37.63z" fill="#000"/></g></svg>