<svg width="662" height="200" xmlns="http://www.w3.org/2000/svg"><g fill="none" fill-rule="evenodd"><path d="M91.7 192H13.4c-5.7 0-9-5-9-9.4 0-2.6 1-5 2.7-6.7l34.2-34.2 50.4 50.4Z" fill="#FF4F12"/><path d="M13.4 192c-6 0-13.3-4.7-13.3-14V72.5c0-14.3-.8-24.3 9.4-34.4L47.6 0l67.7 67.8L7 175.9a9.5 9.5 0 0 0-2.7 6.7c0 4.4 3.3 9.5 9 9.5Z" fill="#70F"/><path d="M134.2 164.8h5v20l1.1-2 11-18h5.3v27.3h-5V172c-.2.6-1.1 2-1.1 2l-11 18h-5.3v-27.2ZM160.3 172.8h4.9v7.2h8v-7.2h4.9v19.3h-4.9v-7.8h-8v7.8h-4.9zM195.4 192.5v7.5h-4.8v-7.5c-6-.8-10.1-4.5-10.1-10 0-5.7 4-9.4 10.1-10.1v-7.6h4.8v7.6c6 .7 10 4.4 10 10s-4 9.3-10 10Zm-4.8-4.7V177c-3.2.5-5.2 2.2-5.2 5.4.1 3.2 2.1 4.9 5.2 5.4Zm10-5.4c0-3.2-2-4.9-5.2-5.4v10.8c3.1-.5 5.1-2.2 5.1-5.4ZM217.4 192.6c-5.3 0-10.6-3.4-10.6-10.2 0-6.8 5.3-10.2 10.6-10.2s10.6 3.5 10.6 10.2c0 6.8-5.3 10.2-10.6 10.2Zm5.6-10.2c0-3.6-2.7-5.6-5.5-5.6-2.9 0-5.6 2-5.6 5.6 0 3.6 2.7 5.6 5.6 5.6 2.8 0 5.5-2 5.5-5.6ZM235.4 172.8v2.7a8.2 8.2 0 0 1 6.7-3.3c4.9 0 8.9 3.8 8.9 10.2 0 6.2-4.2 10.2-9.3 10.2a8 8 0 0 1-6.3-3V200h-5v-27.3h5Zm-.3 9.6c0 3.2 2.3 5.6 5.5 5.6s5.5-2.4 5.5-5.6c0-3.2-2.3-5.6-5.5-5.6a5.4 5.4 0 0 0-5.5 5.6ZM253.4 172.8h6.4l5.3 13.5 5.4-13.5h6.4v19.3h-4.7v-12.3l-5.1 12.3h-3.9l-5.1-12.3v12.3h-4.7zM292.3 189a7 7 0 0 1-6.5 3.7c-3.9 0-6.5-2.4-6.5-6 0-4 3-5.8 6.9-6.3l5.8-.8v-1c0-1.9-1.2-3-3.6-3-2.2 0-3.4 1-3.4 2.2v.6l-4.6.5v-1c0-3 3-5.6 8-5.6 5.4 0 8.6 2.3 8.6 7v8c0 2.2.2 3.5.6 4.8h-5c-.1-.8-.3-1.9-.3-3Zm-.3-5.7v-.4l-4.7.7c-2.1.3-3.2 1.1-3.2 2.7s1.2 2.3 2.7 2.3c2.9 0 5.2-1.6 5.2-5.3ZM315.6 192.1h-15.9v-19.3h4.9v14.8h7.7v-14.8h4.9v14.8h2.9v9h-4.4v-4.5zM321.5 172.8h4.7v12.7l8.4-12.7h5.1v19.3H335v-12.8l-8.4 12.8h-5.1zM352.6 192.6c-5.3 0-10.6-3.4-10.6-10.2 0-6.8 5.3-10.2 10.6-10.2s10.6 3.5 10.6 10.2c0 6.8-5.3 10.2-10.6 10.2Zm5.6-10.2c0-3.6-2.7-5.6-5.6-5.6-2.8 0-5.5 2-5.5 5.6 0 3.6 2.7 5.6 5.5 5.6 2.9 0 5.6-2 5.6-5.6ZM365.5 172.8h4.9v7.2h8v-7.2h4.9v19.3h-4.9v-7.8h-8v7.8h-4.9zM386.5 172.8h4.9v7.2h8.1v-7.2h4.9v19.3h-4.9v-7.8h-8v7.8h-4.9v-19.3zM407.5 172.8h5v6.2h3.8c4.5 0 7.7 2.2 7.7 6.5 0 4.4-3.2 6.5-7.7 6.5h-8.8v-19.2Zm8.5 15.6c2.4 0 3.3-1.2 3.3-2.8 0-1.6-1-2.8-3.3-2.8h-3.6v5.6h3.6Zm15-15.6V192h-4.9v-19.3h5ZM443.4 188.4c2.6 0 3.7-1.1 4.9-2.6l3.9 1.9c-2 3.3-4.6 4.9-8.9 4.9-5.3 0-9.9-4.1-9.9-10.2a9.9 9.9 0 0 1 10.2-10.2c5.5 0 9.4 4 9.4 9.7v1.7h-14.8a5 5 0 0 0 5.2 4.8Zm-5.2-8.6h10.2c-.4-2.4-2.3-3.9-5-3.9a5.5 5.5 0 0 0-5.2 4Z" fill="#FFF"/><path fill="#FFF" fill-rule="nonzero" d="M469.7 192v-22h-8.1v-4.6h21.3v4.6h-8.1v22z"/><path d="M490 188.4c2.6 0 3.7-1.1 5-2.6l3.8 1.9c-2 3.3-4.6 4.9-8.9 4.9-5.3 0-9.9-4.1-9.9-10.2a9.9 9.9 0 0 1 10.2-10.2c5.6 0 9.5 4 9.5 9.7v1.7h-15a5 5 0 0 0 5.3 4.8Zm-5.2-8.6H495c-.4-2.4-2.3-3.9-5-3.9a5.6 5.6 0 0 0-5.2 4Z" fill="#FFF"/><path fill="#FFF" d="M511.8 172.8h5.7l-6.1 8.9 6.9 10.4h-5.8l-4-6.4-4 6.4h-5.6l7.1-10.2-6.3-9.1h5.7l3.2 5.1zM519.4 172.8h4.9v7.2h8v-7.2h4.9v19.3h-4.9v-7.8h-8v7.8h-4.9zM550.1 192.6c-5.3 0-10.5-3.4-10.5-10.2 0-6.8 5.2-10.2 10.5-10.2s10.6 3.5 10.6 10.2c0 6.8-5.3 10.2-10.6 10.2Zm5.6-10.2c0-3.6-2.7-5.6-5.6-5.6-2.8 0-5.5 2-5.5 5.6 0 3.6 2.7 5.6 5.5 5.6 2.9 0 5.6-2 5.6-5.6ZM561.1 192v-4.2s.5.2 1.4.2c1.2 0 1.8-.8 2-4.3l.6-11h15.2v19.4h-4.9v-15h-6l-.4 6.8c-.2 5.5-1.8 8.4-6.2 8.4l-1.7-.2ZM593.3 192.6c-5.3 0-10.6-3.4-10.6-10.2 0-6.8 5.3-10.2 10.6-10.2 5.2 0 10.5 3.5 10.5 10.2 0 6.8-5.3 10.2-10.5 10.2Zm5.5-10.2c0-3.6-2.7-5.6-5.5-5.6-2.9 0-5.6 2-5.6 5.6 0 3.6 2.7 5.6 5.6 5.6 2.8 0 5.5-2 5.5-5.6ZM606.2 172.8h13.2v4.4H611v14.9h-4.8zM621.7 172.8h4.7v12.7l8.4-12.7h5.1v19.3h-4.7v-12.8l-8.4 12.8h-5.1zM643 172.8h4.7v12.7l8.4-12.7h5.1v19.3h-4.7v-12.8l-8.4 12.8H643zM462.1 107.6h-11.3l-13.6 13.7v-13.7h-9.6v37.7h9.6v-15.6l13.8 15.6h11.6l-17.8-20.2zM158.4 92h-24.2v53.3h10v-18.6h14.2c12 0 20-6.1 20-17.3 0-11.2-8-17.3-20-17.3Zm-.3 25.8h-13.9V101h13.9c7 0 10.2 3.3 10.2 8.3 0 5-3.2 8.4-10.2 8.4ZM201 106.5c-10.3 0-20.6 6.7-20.6 20 0 13.2 10.2 19.9 20.6 19.9 10.3 0 20.6-6.7 20.6-20 0-13.2-10.3-19.9-20.6-19.9Zm0 31c-5.6 0-10.9-4.1-10.9-11 0-7 5.3-11 10.9-11 5.6 0 10.8 4 10.8 11 0 6.9-5.2 11-10.8 11ZM246 137.4c-5.7 0-10-4.1-10-11 0-6.6 4.4-11 10-11 3.5 0 6.4 1.7 8.8 5.2l8.2-4.7c-2.7-5.8-8.7-9.4-16.9-9.4-10.7 0-19.8 8-19.8 19.9 0 12 8.6 19.9 19.8 19.9 8 0 13.4-3.6 17.3-10.1l-8-4.4c-2.2 3.3-4.7 5.6-9.4 5.6ZM348 129c-.4 5.7-1.6 7-3.6 7a9 9 0 0 1-2.9-.4l.1 9.8s1.2.4 3.4.4c8.1 0 11.2-5.3 12-16.4l.9-13.2h10.8v29h9.5v-37.6h-28.5L348 129ZM320.8 106.5c-11 0-19.8 8-19.8 20s9 19.9 19.4 19.9c8.2 0 13.5-3.1 17.3-9.6l-7.6-3.8c-2.4 3-4.5 5.2-9.6 5.2a10 10 0 0 1-10.3-9.5h29v-3.4c0-11-7.5-18.8-18.4-18.8Zm-10.4 15c1.4-4.3 5.1-7.7 10.2-7.7 5.3 0 8.9 3 9.8 7.6h-20ZM403.4 106.5c-11 0-19.8 8-19.8 20s9 19.9 19.4 19.9c8.2 0 13.5-3.1 17.3-9.6l-7.6-3.8c-2.4 3-4.5 5.2-9.6 5.2a10 10 0 0 1-10.3-9.5h29v-3.4c0-11-7.6-18.8-18.4-18.8Zm-10.5 15c1.4-4.3 5.2-7.7 10.2-7.7 5.3 0 9 3 9.8 7.6h-20ZM266.3 115.9h11.3v29.4h9.6v-29.4h11.2v-8.3h-32.1z"/><path d="M481.6 106.5c-10.3 0-20.6 6.7-20.6 20 0 13.2 10.2 19.9 20.6 19.9 10.4 0 20.6-6.7 20.6-20 0-13.2-10.3-19.9-20.6-19.9Zm0 31c-5.6 0-10.8-4.1-10.8-11 0-7 5.2-11 10.8-11 5.6 0 10.9 4 10.9 11 0 6.9-5.3 11-10.9 11ZM540.3 107.6 529.9 134l-10.4-26.4H507v37.6h9.1v-23.8l10.1 23.8h7.5l10-23.8v23.8h9.1v-37.6z" fill="#FFF"/></g></svg>