<svg xmlns="http://www.w3.org/2000/svg" viewBox="0 0 377.65 50"><defs><style>.cls-1{fill:#333f48;}.cls-2{fill:#006eff;}</style></defs><g id="Layer_2" data-name="Layer 2"><g id="Layer_1-2" data-name="Layer 1"><path class="cls-1" d="M25,24.3l-9.52-6v7.18l9.52,6L47.78,14.68a25.2,25.2,0,0,0-3-5Z"/><path class="cls-1" d="M50,25a25.39,25.39,0,0,0-.4-4.48l-5.38,4c0,.17,0,.34,0,.51A19.26,19.26,0,1,1,35.84,9.13L40.7,5.55A25,25,0,1,0,50,25"/><path class="cls-1" d="M77.78,22.58c-3.47-.82-6.47-1.53-6.47-3.95,0-3.24,4-3.59,5.71-3.59a11.67,11.67,0,0,1,5.51,1.13l4.78-3.53A20.11,20.11,0,0,0,77.06,9.71c-9,0-12.21,4.79-12.21,9.27,0,6.45,5.61,7.8,10.56,9,3.48.83,6.48,1.55,6.48,4,0,1.27-.75,3.38-5.79,3.38a17.08,17.08,0,0,1-9.62-3.07l-2.19,5c2.66,2.07,7.26,3.4,11.77,3.4,7.47,0,12.29-3.62,12.29-9.23,0-6.38-5.62-7.7-10.57-8.87"/><path class="cls-1" d="M115.71,24.72l-.31-.1.28-.15a7.12,7.12,0,0,0,3.83-6.53c0-4.83-4.1-7.72-11-7.72H94.37V40.16h15c7.47,0,11.58-2.87,11.58-8.1a7.34,7.34,0,0,0-5.26-7.34m-14.88-9.51h6.88c4.34,0,5.25,2,5.25,3.66,0,2.41-1.81,3.66-5.25,3.66h-6.88Zm0,7.32h6.88m1.17,12.65h-8V27.51h8c3.68,0,5.55,1.28,5.55,3.84s-1.82,3.83-5.55,3.83"/><polygon class="cls-1" points="142.86 15.21 149.62 10.22 126.99 10.22 126.99 40.16 149.62 40.16 149.62 35.18 133.45 35.18 133.45 27.52 147.25 27.52 147.25 22.53 133.45 22.53 133.45 15.21 142.86 15.21"/><path class="cls-1" d="M181.17,40.16l-6.57-9.72a9.81,9.81,0,0,0,6.11-9.5c0-6.61-4.88-10.71-12.75-10.71H155.64V40.16h6.46V31.68h6.41l5.74,8.48ZM162.1,15.21h5.72c4.14,0,6.42,2,6.42,5.74S172,26.7,167.82,26.7H162.1Z"/><path class="cls-2" d="M205.43,10.28c11,0,16.42,5.16,16.42,14.33,0,10.92-6.82,15.52-16.55,15.52H195.15V10.28Zm-.13,24.95c7.38,0,11-3.63,11-10.11,0-6.65-3.37-9.94-10.92-9.94h-4.86v20Z"/><polygon class="cls-2" points="246.54 27.21 232.81 27.21 232.81 35.23 248.59 35.23 248.59 40.13 227.48 40.13 227.48 10.28 248.12 10.28 248.12 15.18 232.81 15.18 232.81 22.3 246.54 22.3 246.54 27.21"/><polygon class="cls-2" points="263.95 40.13 251.66 10.28 257.38 10.28 266.68 33.56 275.93 10.28 281.35 10.28 269.24 40.13 263.95 40.13"/><rect class="cls-2" x="285.53" y="10.28" width="5.33" height="29.85"/><path class="cls-2" d="M323.32,36.85c-1.5,1.79-5.42,3.75-10.58,3.75-9.73,0-16.21-5.8-16.21-15.44,0-9,6.4-15.35,16.29-15.35a17.6,17.6,0,0,1,9.9,2.69v7.42a12.21,12.21,0,0,0-9.9-5.21c-6.52,0-10.53,4.23-10.53,10.49,0,5.81,3.54,10.37,10.41,10.5,5.2,0,8.87-2.39,10.62-5.42Z"/><polygon class="cls-2" points="347.88 27.21 334.15 27.21 334.15 35.23 349.93 35.23 349.93 40.13 328.82 40.13 328.82 10.28 349.46 10.28 349.46 15.18 334.15 15.18 334.15 22.3 347.88 22.3 347.88 27.21"/><path class="cls-2" d="M366.44,14.71c-4.18,0-5.93,1.32-5.93,3.37,0,6.19,17.14,1.84,17.14,13.48,0,5-3.62,9-11.64,9-5.2,0-9.34-2-10.92-3.75V30.28c1.84,3,5.72,5.42,11,5.42,4.18,0,6.14-1.45,6.14-3.88,0-6.32-17.1-1.67-17.1-13.61,0-5.29,4.22-8.4,11.35-8.4,4.6,0,8.06,1.41,9.76,2.69v7.37a11.9,11.9,0,0,0-9.76-5.16"/></g></g></svg>