<svg width="142" height="36" viewBox="0 0 142 36" fill="none" xmlns="http://www.w3.org/2000/svg">
<g clip-path="url(#clip0_110_12)">
<path d="M39.6163 16.0708C39.6163 16.3318 39.7818 16.5473 40.113 16.717C40.4571 16.8737 40.8711 17.0174 41.3551 17.148C41.8392 17.2655 42.3234 17.4222 42.8074 17.618C43.2915 17.8008 43.6992 18.1143 44.0304 18.5582C44.3743 19.0021 44.5463 19.5571 44.5463 20.2231C44.5463 21.2285 44.1769 22.0055 43.438 22.5538C42.7119 23.0892 41.801 23.3569 40.7055 23.3569C38.7436 23.3569 37.406 22.58 36.6926 21.0262L38.8328 19.7922C39.113 20.6409 39.7372 21.0653 40.7055 21.0653C41.5845 21.0653 42.0239 20.7845 42.0239 20.2231C42.0239 19.9619 41.8519 19.753 41.508 19.5963C41.1768 19.4266 40.7691 19.2764 40.2851 19.1458C39.801 19.0152 39.3169 18.852 38.8328 18.6562C38.3487 18.4603 37.9347 18.1534 37.5907 17.7356C37.2595 17.3047 37.0939 16.7693 37.0939 16.1295C37.0939 15.1632 37.4378 14.4058 38.1258 13.8575C38.8264 13.296 39.6927 13.0153 40.7245 13.0153C41.5017 13.0153 42.2087 13.198 42.8456 13.5636C43.4826 13.9162 43.9858 14.4255 44.3553 15.0914L42.2533 16.2666C41.9476 15.6007 41.4379 15.2677 40.7245 15.2677C40.4061 15.2677 40.1385 15.3395 39.922 15.4831C39.7182 15.6268 39.6163 15.8226 39.6163 16.0708Z" fill="#122861"/>
<path d="M50.5488 23.3569C49.1094 23.3569 47.9055 22.8607 46.9373 21.8684C45.9818 20.8759 45.5042 19.6485 45.5042 18.186C45.5042 16.7236 45.9818 15.4962 46.9373 14.5038C47.9055 13.5114 49.1094 13.0153 50.5488 13.0153C51.4789 13.0153 52.326 13.2438 53.0903 13.7008C53.8547 14.1578 54.4343 14.7715 54.8292 15.5419L52.7081 16.8151C52.5171 16.4102 52.2241 16.0903 51.8291 15.8553C51.447 15.6202 51.0139 15.5027 50.5298 15.5027C49.7909 15.5027 49.1794 15.7574 48.6953 16.2666C48.2112 16.7628 47.9692 17.4026 47.9692 18.186C47.9692 18.9565 48.2112 19.5963 48.6953 20.1055C49.1794 20.6017 49.7909 20.8498 50.5298 20.8498C51.0266 20.8498 51.466 20.7389 51.8483 20.5168C52.2432 20.2819 52.5362 19.9619 52.7273 19.5571L54.8674 20.8107C54.447 21.5811 53.8547 22.2013 53.0903 22.6714C52.326 23.1284 51.4789 23.3569 50.5488 23.3569Z" fill="#122861"/>
<path d="M58.7108 14.9738C58.9402 14.347 59.316 13.877 59.8382 13.5636C60.3733 13.2502 60.9657 13.0935 61.6154 13.0935V15.914C60.8638 15.8226 60.1886 15.9793 59.5898 16.3841C59.0038 16.7888 58.7108 17.4613 58.7108 18.4014V23.0826H56.2458V13.2894H58.7108V14.9738Z" fill="#122861"/>
<path d="M69.9638 13.2895H72.4288V23.0827H69.9638V21.9271C69.2249 22.8803 68.1867 23.3569 66.8491 23.3569C65.5751 23.3569 64.4796 22.8607 63.5624 21.8684C62.6579 20.8629 62.2056 19.6355 62.2056 18.186C62.2056 16.7367 62.6579 15.5158 63.5624 14.5234C64.4796 13.518 65.5751 13.0153 66.8491 13.0153C68.1867 13.0153 69.2249 13.4918 69.9638 14.4451V13.2895ZM65.416 20.1839C65.9128 20.6932 66.5434 20.9478 67.3077 20.9478C68.072 20.9478 68.7027 20.6932 69.1995 20.1839C69.7091 19.6616 69.9638 18.9957 69.9638 18.186C69.9638 17.3765 69.7091 16.717 69.1995 16.2078C68.7027 15.6856 68.072 15.4244 67.3077 15.4244C66.5434 15.4244 65.9128 15.6856 65.416 16.2078C64.9192 16.717 64.6707 17.3765 64.6707 18.186C64.6707 18.9957 64.9192 19.6616 65.416 20.1839Z" fill="#122861"/>
<path d="M80.2248 13.0153C81.5115 13.0153 82.607 13.518 83.5115 14.5234C84.4288 15.5158 84.8874 16.7367 84.8874 18.186C84.8874 19.6355 84.4288 20.8629 83.5115 21.8684C82.607 22.8607 81.5115 23.3569 80.2248 23.3569C78.8871 23.3569 77.8554 22.8803 77.1292 21.9271V27H74.6642V13.2895H77.1292V14.4451C77.8554 13.4918 78.8871 13.0153 80.2248 13.0153ZM77.8744 20.1839C78.3712 20.6932 79.0018 20.9478 79.7662 20.9478C80.5305 20.9478 81.1611 20.6932 81.6579 20.1839C82.1675 19.6616 82.4223 18.9957 82.4223 18.186C82.4223 17.3765 82.1675 16.717 81.6579 16.2078C81.1611 15.6856 80.5305 15.4244 79.7662 15.4244C79.0018 15.4244 78.3712 15.6856 77.8744 16.2078C77.3776 16.717 77.1292 17.3765 77.1292 18.186C77.1292 18.9957 77.3776 19.6616 77.8744 20.1839Z" fill="#122861"/>
<path d="M88.7084 19.2242C89.0403 20.4516 89.9376 21.0653 91.4031 21.0653C92.3453 21.0653 93.0591 20.7389 93.5429 20.0859L95.5308 21.2611C94.5878 22.6583 93.1996 23.3569 91.3645 23.3569C89.7849 23.3569 88.5178 22.8673 87.5621 21.8879C86.6067 20.9086 86.1289 19.6746 86.1289 18.186C86.1289 16.7106 86.6003 15.4831 87.543 14.5038C88.4854 13.5114 89.6962 13.0153 91.1739 13.0153C92.5753 13.0153 93.7282 13.5114 94.6326 14.5038C95.5493 15.4962 96.0085 16.7236 96.0085 18.186C96.0085 18.5125 95.976 18.8585 95.9128 19.2242H88.7084ZM88.6706 17.2655H93.5429C93.4033 16.5996 93.11 16.1033 92.664 15.7769C92.2311 15.4505 91.7341 15.2873 91.1739 15.2873C90.511 15.2873 89.9631 15.4635 89.5302 15.8161C89.0974 16.1556 88.8102 16.6387 88.6706 17.2655Z" fill="#122861"/>
<path d="M98.9517 12.1143C98.5443 12.1143 98.1878 11.9641 97.8822 11.6637C97.589 11.3503 97.4423 10.9848 97.4423 10.5669C97.4423 10.1491 97.589 9.78345 97.8822 9.47007C98.1878 9.15669 98.5443 9 98.9517 9C99.3723 9 99.7288 9.15669 100.022 9.47007C100.328 9.78345 100.48 10.1491 100.48 10.5669C100.48 10.9848 100.328 11.3503 100.022 11.6637C99.7288 11.9641 99.3723 12.1143 98.9517 12.1143ZM97.7295 23.0827V13.2895H100.194V23.0827H97.7295Z" fill="#122861"/>
<path d="M107.916 15.7181H105.756V19.7922C105.756 20.1316 105.839 20.3798 106.004 20.5365C106.17 20.6932 106.412 20.7845 106.73 20.8107C107.049 20.8237 107.444 20.8172 107.916 20.7911V23.0827C106.221 23.2786 105.023 23.1153 104.323 22.5931C103.635 22.0707 103.291 21.1371 103.291 19.7922V15.7181H101.629V13.2895H103.291V11.3112L105.756 10.5474V13.2895H107.916V15.7181Z" fill="#122861"/>
<path d="M17.4588 20.5712L0.0375671 30.857L8.7067 36L26.1567 25.6859L17.4588 20.5712Z" fill="url(#paint0_linear_110_12)"/>
<path d="M18.0169 0L2.01608 9.45657L10.714 14.5713L26.6856 5.1425L18.0169 0Z" fill="url(#paint1_linear_110_12)"/>
<path d="M0.316589 20.7422L6.95014 24.6857L15.6197 19.5428L0.316589 10.4855V20.7422Z" fill="url(#paint2_linear_110_12)"/>
<path d="M12.4418 15.5993L27.9121 24.5715V14.3707L21.1668 10.4568L12.4418 15.5993Z" fill="url(#paint3_linear_110_12)"/>
</g>
<defs>
<linearGradient id="paint0_linear_110_12" x1="26.1704" y1="29.1985" x2="0.293293" y2="29.1985" gradientUnits="userSpaceOnUse">
<stop stop-color="#5176FC"/>
<stop offset="0.504258" stop-color="#3D55AE"/>
<stop offset="1" stop-color="#5176FC"/>
</linearGradient>
<linearGradient id="paint1_linear_110_12" x1="26.6985" y1="8.14777" x2="2.25762" y2="8.14777" gradientUnits="userSpaceOnUse">
<stop stop-color="#5176FC"/>
<stop offset="0.504258" stop-color="#3D55AE"/>
<stop offset="1" stop-color="#5176FC"/>
</linearGradient>
<linearGradient id="paint2_linear_110_12" x1="15.6277" y1="18.4258" x2="0.466418" y2="18.4258" gradientUnits="userSpaceOnUse">
<stop stop-color="#5176FC"/>
<stop offset="0.504258" stop-color="#3D55AE"/>
<stop offset="1" stop-color="#5176FC"/>
</linearGradient>
<linearGradient id="paint3_linear_110_12" x1="27.9202" y1="18.3492" x2="12.5932" y2="18.3492" gradientUnits="userSpaceOnUse">
<stop stop-color="#5176FC"/>
<stop offset="0.504258" stop-color="#3D55AE"/>
<stop offset="1" stop-color="#5176FC"/>
</linearGradient>
<clipPath id="clip0_110_12">
<rect width="108" height="36" fill="white"/>
</clipPath>
</defs>
</svg>
