<svg xmlns="http://www.w3.org/2000/svg" viewBox="0 0 156 43.05"><defs><style>.a{fill:#4d4d4d;}.b{fill:#1a1a1a;}</style></defs><title>simtech1</title><path class="a" d="M16.12,15.26A13.12,13.12,0,0,0,11.53,14a22.46,22.46,0,0,1-5.33-.91A1.92,1.92,0,0,1,5.42,9.8a3,3,0,0,1,1.25-.87,8.65,8.65,0,0,1,2.64-.55A13.16,13.16,0,0,1,16,9.77h0l.21.1.14.07.19.09.72.36,2-3.5-1-.52h0L18,6.21h0L17.51,6A18.27,18.27,0,0,0,8.16,4.2a10.18,10.18,0,0,0-5.35,2,6.12,6.12,0,0,0-2.61,6,6,6,0,0,0,4.08,4.78A19.7,19.7,0,0,0,9.21,18a16.69,16.69,0,0,1,4.08.74,2,2,0,0,1,.7,3.43,5.25,5.25,0,0,1-3.63,1.37A13.41,13.41,0,0,1,3.28,22h0L3.2,22l-.4-.21-.23-.11L2,21.34,0,24.9l.77.39c2.83,1.48,4.56,2.42,7.82,2.5,5.78,0,8.1-2.06,8.1-2.06C20.48,22.81,20.19,17.48,16.12,15.26Z"/><rect class="a" x="22.54" y="4.55" width="4.61" height="22.76"/><path class="a" d="M66.09,25.18V23.5c0-3.17.08-6.34,0-9.51a9.51,9.51,0,0,0-3.29-7.53c-3.87-3.3-11-3.21-13.91,1.3-.27.42-.53.41-.82,0-2.07-2.89-5-3.85-8.39-3.54A9.35,9.35,0,0,0,31,12.27a23.85,23.85,0,0,0-.16,3h0v12h4.62V18q0-1.42,0-2.85a11.77,11.77,0,0,1,.41-3.39A4.56,4.56,0,0,1,40.18,8.4c2.75-.18,4.41.72,5.4,2.88a9,9,0,0,1,.66,3.8v.2h0v10.6c0,.08,0,.16,0,.24s0,.12,0,.17v1h4.62V25.52q0-3.93,0-7.87V15.27h0c0-.14,0-.28,0-.43A10.7,10.7,0,0,1,51,12.39a4.65,4.65,0,0,1,3.32-3.75c2-.54,4-.49,5.56,1.12a5.63,5.63,0,0,1,1.57,4.12c0,3.39,0,6.79,0,10.18v1.24c0,.45,0,.81,0,1.08v.94h4.62V26.17C66.1,25.91,66.09,25.58,66.09,25.18Z"/><path class="a" d="M83.82,26.61c-.31-.72-1.61-3.55-1.61-3.55H79.13c-3,0-4.71-1.61-4.77-4.59s0-9.65,0-9.65H81.1l1.82-4.24h-1c-2.2,0-7.54,0-7.54,0V1.27c0-.07,0-.13,0-.18a2.31,2.31,0,0,0,0-.3V0H69.65V.87a2.86,2.86,0,0,0,0,.31q0,.86,0,1.73V4.59h0c0,1.55,0,3.1,0,4.64,0,.18,0,.36,0,.54.09,3.49-.38,7.09.25,10.55a7.91,7.91,0,0,0,5.52,6.54c2.68.88,8.72.53,8.72.53S83.94,26.91,83.82,26.61Z"/><path class="a" d="M105,7.67C102.32,4.88,99,4,95.19,4.19a11.32,11.32,0,0,0-9.57,6.22A11.83,11.83,0,0,0,86.54,23a12.19,12.19,0,0,0,19.4,0c.23-.28.68-.85.68-.85L106,21.8c-.72-.49-1.66-1.1-1.66-1.1-.21-.16-1.16-.77-1.16-.77a4,4,0,0,0-.4.41,8.68,8.68,0,0,1-6.5,3.19c-4.47-.2-6.69-2.46-7.45-5.86l19.27,0,0-.65A12.6,12.6,0,0,0,105,7.67Zm-15.91,5.9v0a7.61,7.61,0,0,1,7.2-5.14,7.4,7.4,0,0,1,7,5.14l.16,0H89.06Z"/><path class="a" d="M133.24,22.22l-3.44-2.28-.93,1a8.05,8.05,0,0,1-8.65,2.2,7,7,0,0,1-4.93-6.76A7.2,7.2,0,0,1,119,9.43a7.85,7.85,0,0,1,9.39,1l1,1,2.56-2h0a1.67,1.67,0,0,0,.3-.23l.43-.32-.48-.53-.09-.11-.1-.1-.09-.1h0a12,12,0,0,0-9.34-3.94c-7.29-.26-13.53,7.13-11.18,15.28,1.64,6,8.33,9.52,14.1,8.13a12.36,12.36,0,0,0,6.82-4.25h0Z"/><path class="a" d="M155.94,13.46a8.75,8.75,0,0,0-4.85-8.13,9.26,9.26,0,0,0-9.89.39c-.16.11-.65.56-.65.56V0h-4.69v1.5c0,3.75,0,25.76,0,25.76h4.68s0-9.36,0-13.34,3.14-6.37,7.05-5.39a4.24,4.24,0,0,1,3.05,2.58,8.75,8.75,0,0,1,.71,3.43c0,3.86,0,12.72,0,12.72H156S156,17.74,155.94,13.46Z"/><path class="b" d="M3.3,36.55a3.13,3.13,0,0,1,2.43.89,3.4,3.4,0,0,1,.87,2.36,3.33,3.33,0,0,1-.93,2.36A3.25,3.25,0,0,1,3.23,43H.87V36.55ZM1.65,42.4H3.09a2.71,2.71,0,0,0,2-.67,2.73,2.73,0,0,0,.74-1.93,2.78,2.78,0,0,0-.7-1.94,2.56,2.56,0,0,0-2-.66H1.65Z"/><path class="b" d="M14.1,36.55v.65H10.32v2.17h3.57V40H10.32V42.4h3.93V43H9.59V36.55Z"/><path class="b" d="M17.5,36.55l2.22,5.69h0L22,36.55h.9L20.24,43h-1l-2.63-6.49Z"/><path class="b" d="M30,36.55v.65H26.24v2.17h3.55V40H26.24V42.4h3.91V43H25.51V36.55Z"/><path class="b" d="M33.69,36.55V42.4h3.56V43H33V36.55Z"/><path class="b" d="M45,37.4a3.83,3.83,0,0,1,0,4.8,3.54,3.54,0,0,1-4.88,0,3.82,3.82,0,0,1,0-4.79,3.53,3.53,0,0,1,4.88,0Zm-4.3.46a3.29,3.29,0,0,0,0,3.88,2.34,2.34,0,0,0,1.86.76,2.38,2.38,0,0,0,1.86-.75,2.89,2.89,0,0,0,.64-2,2.92,2.92,0,0,0-.64-2,2.65,2.65,0,0,0-3.71,0Z"/><path class="b" d="M51.72,36.55q2.37,0,2.37,1.91c0,1.28-.8,1.93-2.38,1.93h-2V43h-.79V36.55Zm-2,3.19h2a2,2,0,0,0,1.23-.32,1.16,1.16,0,0,0,.39-1,1.08,1.08,0,0,0-.4-.95,1.91,1.91,0,0,0-1.22-.32h-2Z"/><path class="b" d="M57.52,36.55l2.34,5.16h0l2.33-5.16h.9V43H62.4V37.88h0L59.87,43h0l-2.5-5.17h0V43h-.72V36.55Z"/><path class="b" d="M70.82,36.55v.65h-3.5v2.17h3.3V40h-3.3V42.4H71V43H66.65V36.55Z"/><path class="b" d="M74.95,36.55l3.89,5.29h0V36.55h.79V43h-.81l-3.9-5.34h0V43h-.79V36.55Z"/><path class="b" d="M87.61,36.55v.65H85.38V43h-.72V37.2H82.43v-.65Z"/></svg>
