<svg width="1826" height="480" fill="none" xmlns="http://www.w3.org/2000/svg"><path d="M533.815 224.529l7.021-22.335-23.227.723c-1.962 0-16.226-.402-30.063-10.374 1.031.101 2.062.241 3.115.241 14.243 0 28.02-8.524 33.544-20.708l9.995-22.014c-12.524.161-23.975-1.407-23.975-1.407-.102-.021-9.125-1.166-19.564-11.762-7.487-7.599-16.752-11.621-26.788-11.621-4.389 0-8.315.784-11.693 1.85.526-1.789 1.031-3.599 1.316-5.469 3.195-20.607-10.157-36.33-10.157-36.308l-17.46-21.492-10.824 25.251c-.041.08-2.772 5.992-7.668 8.886-1.477-7.418-5.098-15.761-12.847-23.743-14.608-15.039-32.391-17.27-41.698-17.27-4.31 0-7.384.462-8.134.583l-21.08 4.122c1.213-4.684 3.803-12.828 8.537-20.166l11.634-18.013-29.276 3.317-9.327-19.683-18.046 9.249L270.459 0l-16.652 16.386L235.7 7.137l-9.307 19.683-29.254-3.317 11.652 18.013c4.735 7.338 7.325 15.46 8.519 20.145l-20.112-3.94-.687-.12c-1.012-.162-4.066-.624-8.396-.624-9.307 0-27.09 2.251-41.658 17.27-7.769 7.962-11.39 16.325-12.887 23.743-4.855-2.854-7.567-8.685-7.567-8.685l-10.844-25.392-17.742 21.633c-2.166 2.794-12.868 17.572-9.955 36.148.304 1.85.79 3.659 1.316 5.449-3.359-1.066-7.284-1.85-11.674-1.85-10.035 0-19.301 4.021-26.807 11.621-10.4 10.555-19.383 11.741-19.301 11.741 0 0-9.49 1.688-24.178 1.426l9.934 22.016c5.524 12.204 19.32 20.708 33.545 20.708 1.072 0 2.103-.142 3.156-.242-13.798 9.972-28.062 10.374-29.782 10.394L0 202.194l7.162 22.315c3.602 11.501 15.639 30.56 38.704 32.61-2.51 10.455-8.073 22.156-20.293 27.202l-17.621 7.217 9.61 16.627c5.421 8.967 18.147 19.461 36.274 19.461 3.926-.02 7.709-.402 11.351-1.165.931 4.101 2.104 8.203 3.48 12.263 5.401 15.963.748 27.101.688 27.222l-8.7 18.114 19.423 5.087c.243.08 6.11 1.668 13.454 1.668 3.339 0 6.514-.341 9.509-1.044a43.201 43.201 0 006.514-2.072 58.278 58.278 0 009.125 12.223c12.443 12.687 30.065 19.12 52.4 19.12h.081l15.943-.201-32.938 13.591 25.007 12.003c9.084 4.403 19.867 9.609 30.833 13.59l-3.116 8.485 8.619 3.9c.768.341 17.338 7.72 44.895 9.288 0 0 6.656.302 10.317.302 3.662 0 10.237-.321 10.237-.321 27.375-1.609 43.822-8.907 44.592-9.269l8.638-3.92-3.156-8.504c11.29-4.102 22.457-9.511 31.157-13.732l24.541-11.842-32.837-13.61 16.004.201c22.357 0 39.999-6.434 52.42-19.14a59.044 59.044 0 009.126-12.204 43.334 43.334 0 006.534 2.071c2.974.703 6.151 1.046 9.489 1.046 7.222 0 13.151-1.588 13.312-1.629l19.504-5.126-8.498-17.773c-.202-.463-4.855-11.581.547-27.564a126.649 126.649 0 003.459-12.264 55.942 55.942 0 0011.432 1.166c23.083 0 34.15-16.144 36.295-19.642l9.509-16.445-17.622-7.198c-12.24-5.047-17.783-16.768-20.272-27.201 22.74-1.931 34.96-20.99 38.683-32.571zM218.846 69.361l-.241.061.202-.262.039.201z" fill="#fff"/><path d="M270.479 68.377c-18.654.02-32.633 6.092-35.689 13.229L270.479 95.6l35.689-13.994c-3.035-7.137-17.015-13.209-35.689-13.229zM270.841 438.805h-.709c-11.31.081-26.868-2.232-34.374-4.403l-9.024 24.266c5.949 2.112 26.1 6.132 43.762 6.132 17.622 0 37.793-4.04 43.721-6.132l-9.004-24.266c-7.525 2.191-23.064 4.484-34.372 4.403zM339.127 414.68c-6.717 3.78-21.709 9.449-30.429 12.083l7.324 20.044c13.494-3.66 24.621-7.941 33.828-12.525l-15.195-5.027 4.472-14.575zM201.853 414.68l4.491 14.575-15.214 5.027c9.185 4.584 20.373 8.865 33.807 12.525l7.324-20.044c-8.68-2.634-23.692-8.324-30.408-12.083zM270.481 45.174c14.061 0 27.859 3.337 38.46 9.209.972-3.238 2.327-7.158 4.168-11.26l-4.005.483-4.209.443-1.781-3.8-5.361-11.258-9.772 5.065-3.803 1.93-3.035-2.975-10.622-10.454L259.92 33.01l-3.035 2.975-3.803-1.93-9.833-5.065-5.301 11.258-1.82 3.8-4.209-.443-4.006-.483c1.842 4.122 3.177 8.022 4.168 11.26 10.622-5.872 24.379-9.209 38.4-9.209zM485.159 175.293c1.822.623 3.682.904 5.524.904 7.95 0 15.639-5.106 18.289-10.957 0 0-14.587-.884-30.267-16.707-4.996-5.127-10.277-6.654-14.809-6.654-7.041 0-12.322 3.699-12.322 3.699 18.938 10.012 22.801 26.096 33.585 29.715zM50.285 176.197c1.84 0 3.703-.281 5.484-.904 10.823-3.619 14.707-19.703 33.645-29.715 0 0-5.302-3.699-12.302-3.699-4.552 0-9.833 1.527-14.85 6.654-15.659 15.823-30.246 16.707-30.246 16.707 2.61 5.851 10.318 10.957 18.27 10.957z" fill="#fff"/><path d="M490.302 240.654c.324.019.607.019.951.019 19.847 0 26.585-21.131 26.585-21.131h-.385c-3.641 0-33.16-.843-54.019-27.201-13.737-17.329-24.987-32.569-47.222-38.561l-2.184-.382-.486-2.211c-.607-3.378 1.72-6.534 7.001-9.952 30.671-19.963 9.852-45.417 9.852-45.417s-8.76 20.367-28.364 20.367c-.466 0-.972-.021-1.457-.021-2.225-.12-4.37-.201-6.536-.662l-3.621-.705s5.585-15.098-7.89-28.97c-10.157-10.474-22.518-12.243-29.66-12.243-3.602 0-5.888.46-5.888.46 6.778 8.807 11.674 23.403 3.845 32.41-6.757 7.74-23.267 8.122-23.267 19.662 0 4.886 4.593 10.596 12.847 15.722 24.825 15.541 49.467 36.148 59.704 63.773 12.807 34.459-1.618 57.319-22.214 70.427 0 0 6.454 5.91 15.822 6.654 1.901.181 3.763.261 5.503.261 19.766 0 29.983-9.208 29.983-9.208s-1.68 12.726-11.978 24.548c-9.488 10.917-21.951 17.331-40.949 17.612 0 0-.607 8.765 7.81 16.345 5.381 4.785 17.824 6.353 17.824 6.353s-23.287 4.684-25.856 38.863c-1.397 18.515-6.151 24.949-6.151 24.949h.426c54.038 0 52.642-46.059 52.642-46.059s3.763 13.63 18.836 17.189c1.82.483 3.763.664 5.624.664 4.857 0 9.064-1.126 9.064-1.126s-7.89-16.546-.061-39.687c6.495-19.2 5.443-33.434 5.443-33.434s7.283 10.937 25.331 11.038h.181c15.033 0 21.587-11.319 21.587-11.319-36.032-14.858-32.471-62.827-32.471-62.827s4.674 3.457 13.798 3.8zm-10.845 50.099c-14.648-7.176-23.914-26.235-26.159-33.112-2.429 37.797-21.001 64.034-42.71 89.285-11.269 13.088-15.193 25.814-15.193 25.814s2.164-14.414 11.915-26.155c20.253-24.187 39.494-54.283 40.93-89.084.991-24.287-5.301-43.989-15.113-60.213 5.482 16.908 4.714 37.615-13.92 56.935 0 0 37.085-44.17-14.769-89.445-20.758-17.229-43.458-27.865-55.151-35.404 42.243 13.691 62.86-1.388 62.86-1.388-13.496 11.62-30.955 11.419-41.78 9.751 2.934 1.428 5.99 2.915 9.287 4.664 35.608 19.221 67.615 50.845 73.077 94.654v-.343c8.295 43.004 26.726 54.041 26.726 54.041zM139.051 338.603s12.443-1.548 17.825-6.353c8.395-7.58 7.81-16.345 7.81-16.345-19.018-.262-31.461-6.695-41.01-17.591-10.218-11.822-11.917-24.549-11.917-24.549s10.216 9.209 29.963 9.209c1.781 0 3.622-.081 5.523-.262 9.368-.744 15.842-6.655 15.842-6.655-20.597-13.108-35.041-35.987-22.255-70.446 10.258-27.605 34.879-48.232 59.705-63.773 8.254-5.126 12.846-10.817 12.846-15.722 0-11.54-16.489-11.922-23.247-19.662-7.828-9.007-2.912-23.623 3.845-32.41 0 0-2.246-.46-5.868-.46-7.121 0-19.483 1.769-29.639 12.243-13.515 13.872-7.91 28.97-7.91 28.97l-3.622.705c-2.164.461-4.33.542-6.535.662-.505 0-.951.021-1.436.021-19.645 0-28.365-20.347-28.365-20.347s-20.819 25.454 9.832 45.417c5.281 3.418 7.588 6.574 6.981 9.952l-.487 2.212-2.225.382c-22.194 5.991-33.463 21.23-47.2 38.56-20.82 26.318-50.297 27.181-53.978 27.181h-.406s6.738 21.131 26.585 21.131c.324 0 .607 0 .95-.019 9.125-.323 13.819-3.8 13.819-3.8s3.52 47.948-32.472 62.827c0 0 6.556 11.319 21.588 11.319h.182c18.066-.101 25.33-11.038 25.33-11.038s-1.052 14.234 5.422 33.434c7.83 23.141-.02 39.687-.02 39.687s4.208 1.126 9.043 1.126c1.882 0 3.804-.181 5.605-.664 15.051-3.559 18.835-17.189 18.835-17.189s-1.376 46.059 52.664 46.059h.383s-4.733-6.434-6.109-24.949c-2.589-34.179-25.877-38.863-25.877-38.863zm-8.678 8.323c-21.709-25.251-40.262-51.488-42.71-89.285-2.246 6.857-11.472 25.936-26.119 33.112 0 0 18.41-11.037 26.686-54.041v.343c5.483-43.788 37.469-75.433 73.096-94.654 3.258-1.769 6.353-3.256 9.267-4.664-10.824 1.668-28.284 1.869-41.779-9.751 0 0 20.616 15.079 62.84 1.388-11.693 7.539-34.374 18.175-55.132 35.404-51.874 45.275-14.769 89.445-14.769 89.445-18.653-19.341-19.401-40.027-13.919-56.935-9.832 16.244-16.105 35.926-15.093 60.213 1.416 34.801 20.656 64.897 40.868 89.084 9.773 11.721 11.978 26.155 11.978 26.155s-3.967-12.726-15.214-25.814zM230.527 170.208a54.342 54.342 0 012.59 2.995c.202.242.383.463.585.745a81.25 81.25 0 012.308 3.216c.161.221.324.483.505.743.911 1.368 1.761 2.776 2.61 4.224 7.789 13.368 20.273 21.35 31.339 21.37 11.087-.02 23.53-8.002 31.36-21.37.87-1.489 1.74-2.936 2.649-4.283.142-.201.285-.382.405-.583a56.821 56.821 0 012.429-3.358c.181-.241.343-.442.505-.643a57.352 57.352 0 012.671-3.077c.161-.16.282-.301.424-.421 3.965-4.041 8.7-7.118 14.89-8.826l-2.751-1.588h-.161l-10.967-6.333-11.268-6.414-30.105 16.285-.081-.061-.061.061-30.125-16.285-11.248 6.393-10.986 6.333h-.122l-2.792 1.589c6.211 1.708 10.925 4.744 14.911 8.785.181.161.303.342.486.503zm27.757-1.307h25.472v8.685c-2.993-3.638-8.82-2.894-8.82-2.894v12.525s.222 6.152 2.386 8.825h-12.604c2.205-2.653 2.408-8.825 2.408-8.825v-12.525s-5.807-.744-8.842 2.894v-8.685z" fill="#fff"/><path d="M267.873 152.05v-50.844L235.3 90.228l8.598 49.277 23.975 12.545zm-7-38.359v8.162l-1.578-.724c-.081-.06-2.387-.583-6.434-3.76-6.676-5.146-6.797-9.891-6.797-9.891l14.809 6.213zM297.09 139.505l8.558-49.277-32.553 10.978v50.844l23.995-12.545zm-16.994-25.814l14.808-6.193s-.12 4.745-6.817 9.891c-4.026 3.177-6.353 3.699-6.434 3.76l-1.579.723v-8.181h.022zM221.805 269.927c3.177 1.145 7.021 1.387 8.983 1.387.082-.242.182-.544.284-.905.181-.583.344-1.146.466-1.79.546-2.813.748-6.01.788-8.061-1.336-.825-3.217-2.293-4.268-4.484-1.214-2.533-2.934-3.699-5.464-3.699-3.277 0-6.797 1.95-8.295 2.876-1.192 7.015 4.006 13.389 7.506 14.676zM293.847 242.943c-6.049 6.534-17.885 17.914-18.472 18.497l-.708.724-37.408-.584c-.021 3.68-.628 6.816-1.214 9.108-.101.382-.202.784-.304 1.186l44.51 7.942c4.633-3.217 17.379-12.466 22.316-16.084-3.602-5.227-3.946-11.42-3.137-15.782-2.346-1.508-4.147-3.197-5.583-5.007z" fill="#fff"/><path d="M298.928 198.235c-8.62 8.504-16.894 11.64-24.278 12.364-1.336.141-2.691.22-4.067.22h-.183c-1.375 0-2.751-.079-4.087-.22a32.51 32.51 0 01-4.004-.623c-.487 1.909-1.094 5.91.646 9.69 1.558 3.438 4.735 5.991 9.368 7.681l1.557.602.021 1.669c0 .502.364 11.319 12.24 14.314 1.942-1.99 3.702-3.779 4.998-5.268-2.429-5.669-1.155-11.459 2.366-14.294-.161.603-1.699 14.798 9.753 20.064l1.881.886-.567 1.99c-.183.603-4.006 14.335 9.853 19.441l2.448.925-1.093 2.373c-.242.522-5.684 12.988 7.123 20.064h27.777v-21.914c-9.872-1.207-14.061-9.087-15.133-14.677-4.592-.784-8.153-2.754-10.582-5.971-5.827-7.62-.809-14.596-.748-14.978-.02.061 0 7.499 4.613 12.083 2.286 2.211 4.998 3.921 9.104 4.303l2.023.181.183 2.051c.039.441 1.153 10.494 10.56 12.082l-.02-44.753c0-6.936 2.044-13.912 4.492-20.346h-56.244v.061zM224.175 218.735l-.748 28.509 3.256.483 7.972-27.343-4.046-8.404-6.434 6.755zM312.06 349.48c.243 0 .526.041.789.101 4.957 1.408 6.212 19.18 14.911 20.768.85.181 1.639.221 2.327.221 2.509 0 4.006-1.066 5.624-2.955 0 0-4.37-6.836-7.647-11.439-4.35-6.032-7.728-13.331-15.821-13.331-.183 0-.425 0-.627.022-2.671.14-4.31 1.426-4.31 1.426-3.278-2.05-6.332-2.754-9.105-2.754-5.077 0-9.022 2.313-10.986 2.313h-.08l-18.088-1.769c-2.832-.262-5.057-3.097-5.866-4.202-.203-.303-.304-.483-.304-.483 0-.483 0-.985-.04-1.428-.607-14.696-12.058-20.989-16.125-21.09 0 0 .485-2.794-.627-3.859l-3.986 4.804-13.09-6.534 9.327 10.837-7.911 8.825c-.992 1.007-.87 2.374-.465 2.936l3.419 2.996 4.33-2.614c.222-.16.607-.201 1.092-.201 1.194 0 2.995.301 4.613.301 1.76 0 3.298-.382 3.48-2.031-.546 5.449-5.624 14.918-2.286 22.357l2.469 5.61-15.984-2.293-7.486 12.566c-2.306 4.182-2.67 8.705-.445 11.158l2.791 3.479s3.926-4.143 4.816-6.857l-1.275-1.387c-1.072-1.166-1.011-2.211-.363-3.477l4.693-7.742 18.876 4.424.991-1.689c1.275-2.111 3.117-2.755 5.14-2.755.829 0 1.679.101 2.569.242 3.501.684 9.267 1.608 15.033 1.608 6.332 0 12.604-1.125 15.941-4.844 6.839 10.072 20.698 11.68 19.605 16.786l-3.641 17.251c2.408-.101 4.734-.262 6.939-.564l3.46-17.954c.385-1.95.748-4.584.748-4.584-1.335-1.346-4.572-4.201-6.392-7.659-2.449-4.665-1.114-7.097-3.4-13.169.081.041.769-1.367 2.367-1.367zm-70.608-25.211c-.931-.02-1.599-.804-1.559-1.728.082-.885.83-1.589 1.74-1.509.931.041 1.599.845 1.559 1.73-.082.884-.85 1.568-1.74 1.507z" fill="#fff"/><path d="M215.678 365.804s6.251-2.553 6.817-4.383l-.829-2.071c-.587-1.347-.506-2.815.627-3.618l6.757-4.645 11.29 2.151s-2.044-2.533-1.841-5.931l-10.763-2.272-10.157 6.152c-4.35 3.237-4.674 8.524-3.237 11.66l1.336 2.957zM295.467 395.037c2.023-.08 4.248-.12 6.697-.12 0 0 5.807-16.868 6.129-17.41-3.256-1.428-10.014-4.988-12.624-6.615 1.72 2.553 5.908 5.488 5.079 7.74l-5.281 16.405z" fill="#fff"/><path d="M350.737 294.998H190.238v59.992c0 24.528 17.866 39.889 44.227 39.889 22.033 0 27.838.843 36.033 8.926 5.645-5.589 10.319-7.681 19.908-8.465l.222-.924 5.058-15.541c-.283-.342-8.557-9.69-8.557-9.69-3.278 1.086-6.029 1.267-10.662 1.267-4.755 0-10.116-.544-15.923-1.629a7.076 7.076 0 00-1.68-.181c-.708 0-.768.06-.95.402l-1.012 1.648-1.841 3.016-3.459-.784-15.397-3.599-2.105 3.459.324.361 1.882 2.051-.829 2.674c-1.134 3.498-4.816 7.579-5.928 8.706l-3.845 4.101-3.499-4.403-2.63-3.277c-2.773-3.076-3.419-7.801-1.862-12.746a.237.237 0 01-.161.059l-4.35 1.79-1.964-4.223-1.375-2.994c-2.366-5.268-1.498-12.968 4.877-17.613l12.402-6.956 11.795 2.313c.283-1.127.707-5.148 1.051-6.172-.222-.02-.444-.081-.668-.081l-6.797 2.513-6.556-4.503s-2.569-2.454-.243-4.906l6.353-9.549-16.084-20.066 24.723 10.094 1.64-2.031 3.337-3.961 3.784 3.579c1.072 1.025 1.679 2.291 1.982 3.558 6.818 2.634 19.018 10.415 20.09 23.06l-3.823 1.528v.101c.87 1.025 1.598 1.448 1.82 1.487l17.643 1.73c.445-.081 1.012-.282 1.639-.463 2.185-.743 5.483-1.809 9.387-1.809 3.177 0 6.251.723 9.205 2.091 1.093-.402 2.429-.704 3.967-.804l.848-.02c9.449 0 14.142 7.015 17.907 12.606a74.052 74.052 0 001.901 2.793c3.297 4.625 7.606 11.4 7.789 11.682l1.942 3.016-2.388 2.754c-1.84 2.11-4.592 4.584-9.326 4.584a16.98 16.98 0 01-3.196-.323c-1.011-.18-1.922-.483-2.812-.844a81.558 81.558 0 01-.507 2.975l-3.095 16.044c18.512-4.523 30.267-18.416 30.267-38.279l.02-60.013zM190.242 290.173h124.81c-6.232-6.393-6.15-14.495-4.552-19.763-1.821-.865-3.318-1.911-4.653-3.036-4.876 3.578-19.767 14.355-23.651 17.048l-.829.564-48.982-8.806h-.991c-1.173 0-2.893-.041-4.775-.262-.526 2.192-2.427 3.7-4.613 3.7-.243 0-.526-.02-.789-.081-1.275-.221-2.386-.865-3.135-1.93a4.612 4.612 0 01-.85-3.578l.182-1.046c-5.058-3.538-9.711-11.44-7.648-19.763l.202-.884.709-.503c.101-.08.95-.643 2.205-1.367l-3.561-.543c-1.335-.241-2.225-1.468-2.022-2.774.222-1.327 1.476-2.273 2.791-2.011l8.477 1.327.769-29.675 12.625-13.269 7.87 16.467-8.316 28.548 7.487 1.166a2.424 2.424 0 012.023 2.774c-.203 1.186-1.214 2.011-2.408 2.011-.122 0-.263 0-.385-.02l-6.09-.985c.082.18.202.28.284.481.647 1.328 2.084 2.293 2.933 2.695l37.349.583a805.202 805.202 0 009.529-9.389c-9.185-3.458-12.524-11.339-13.091-16.567-5.138-2.171-8.679-5.427-10.641-9.67-2.388-5.246-1.538-10.494-.911-13.047-4.977-1.81-10.216-5.106-15.558-10.374h-56.244c2.408 6.432 4.45 13.41 4.45 20.346v71.633z" fill="#FFDD2D"/><path d="M241.65 321.03c-.911-.081-1.679.622-1.74 1.507-.061.924.627 1.708 1.558 1.728.889.081 1.679-.603 1.759-1.507 0-.885-.646-1.708-1.577-1.728zM350.52 429.815l-9.246-3.519 2.549-9.489 2.812-10.354s-16.388 8.827-39.472 15.462c-6.555 1.869-11.512 2.713-11.512 2.713v7.036s-12.341 2.132-24.824 2.132h-.709c-12.482 0-24.824-2.132-24.824-2.132v-7.036s-4.978-.844-11.512-2.713c-23.085-6.635-39.452-15.462-39.452-15.462l2.771 10.354 2.61 9.489-9.266 3.519-10.277 3.819c11.795 5.65 28.121 13.894 43.074 17.954l-3.521 9.57s18.957 8.585 50.539 8.666v.02h.445v-.02c31.623-.081 50.559-8.666 50.559-8.666l-3.541-9.57c14.951-4.06 31.32-12.304 43.054-17.954l-10.257-3.819zm-159.387 4.463l15.214-5.025-4.491-14.577c6.696 3.78 21.73 9.449 30.428 12.083l-7.343 20.044c-13.435-3.678-24.623-7.961-33.808-12.525zm79.37 30.519c-17.663 0-37.834-4.041-43.761-6.131l9.022-24.267c7.486 2.172 23.065 4.483 34.374 4.402h.709c11.31.081 26.847-2.23 34.374-4.402l9.002 24.267c-5.927 2.11-26.078 6.131-43.72 6.131zm45.521-17.994l-7.323-20.044c8.719-2.634 23.71-8.303 30.428-12.083l-4.471 14.577 15.194 5.025c-9.206 4.564-20.334 8.847-33.828 12.525zM270.482 51.044c18.816 0 33.867 6.193 42.183 12.808 0 0 2.468-14.778 10.905-27.825l-15.154 1.708-7.93-16.747-15.235 7.801-14.769-14.516-14.729 14.516-15.254-7.8-7.911 16.746-15.154-1.708c8.436 13.047 10.905 27.825 10.905 27.825 8.335-6.615 23.347-12.808 42.143-12.808zm-38.583-7.438l4.209.443 1.821-3.8 5.3-11.259 9.833 5.046 3.804 1.93 3.035-2.975 10.601-10.454 10.622 10.454 3.035 2.975 3.803-1.93 9.773-5.046 5.361 11.259 1.78 3.8 4.208-.443 4.006-.483a94.251 94.251 0 00-4.169 11.26c-10.601-5.87-24.399-9.21-38.459-9.21-14 0-27.779 3.34-38.421 9.21-.99-3.238-2.326-7.159-4.168-11.26l4.026.483zM491.23 247.126c24.34 0 32.472-24.607 32.816-25.653l2.711-8.666-9.125.282h-.039c-3.217 0-30.065-.704-49.103-24.749l-1.801-2.231c-12.442-15.722-24.237-30.66-45.319-37.476.607-.542 1.477-1.226 2.671-1.99 11.188-7.318 17.702-16.205 19.341-26.518 2.387-15.521-7.566-27.886-8.011-28.388l-6.778-8.323-4.228 9.871c-.283.623-7.406 16.426-22.377 16.426h-1.113c-1.031-.061-2.003-.101-2.974-.182.527-7.056-.769-17.973-10.722-28.207-11.958-12.324-26.646-14.174-34.333-14.174-4.108 0-6.839.503-7.123.544l-10.236 2.01 6.312 8.263c4.957 6.373 9.448 18.135 4.126 24.287-1.699 1.95-5.198 3.538-8.557 5.126-6.899 3.156-16.307 7.539-16.307 18.718 0 7.238 5.645 14.797 15.882 21.23 30.308 18.939 49.001 38.702 57.074 60.515 12.483 33.556-3.804 52.695-19.625 62.768l-7.102 4.543 6.212 5.669c.829.725 8.437 7.379 19.665 8.345 2.124.14 4.167.26 6.07.26 7.202 0 13.333-1.125 18.309-2.634a46.321 46.321 0 01-5.179 7.279c-9.043 10.413-20.171 15.159-36.174 15.4l-5.949.101-.465 5.93c-.061 1.186-.505 12.184 9.974 21.533 1.599 1.446 3.541 2.634 5.564 3.619-7.101 6.353-14.325 17.41-15.719 36.369-1.174 15.822-4.978 21.673-5.018 21.732l-6.575 9.972 11.876.162c19.625 0 34.656-5.388 45.075-16.044 6.151-6.313 9.672-13.43 11.756-19.742 3.419 2.894 7.83 5.427 13.574 6.774 2.186.503 4.574.784 7.143.784 5.544 0 10.177-1.166 10.703-1.286l7.586-2.011-3.358-7.037c-.243-.562-6.575-14.676.242-34.821 2.934-8.705 4.431-16.506 5.159-22.577 4.775 2.472 11.169 4.523 19.443 4.543 18.775 0 27.05-13.932 27.435-14.515l3.702-6.394-6.858-2.814c-22.377-9.228-27.333-34.018-28.325-47.447 2.023.382 4.33.744 6.939.824h1.133zm17.743 52.553s-6.555 11.32-21.587 11.32h-.182c-18.047-.101-25.33-11.038-25.33-11.038s1.052 14.235-5.462 33.434c-7.83 23.141.06 39.688.06 39.688s-4.208 1.125-9.063 1.125c-1.862 0-3.804-.181-5.625-.664-15.072-3.558-18.835-17.189-18.835-17.189s1.395 46.06-52.644 46.06h-.424s4.754-6.434 6.17-24.951c2.569-34.177 25.857-38.861 25.857-38.861s-12.424-1.548-17.805-6.353c-8.417-7.58-7.83-16.346-7.83-16.346 19.018-.261 31.461-6.694 40.949-17.611 10.279-11.822 11.978-24.548 11.978-24.548s-10.218 9.208-29.983 9.208c-1.74 0-3.602-.081-5.504-.262-9.347-.743-15.821-6.655-15.821-6.655 20.575-13.108 35.021-35.987 22.215-70.447-10.258-27.603-34.9-48.23-59.704-63.771-8.255-5.127-12.848-10.816-12.848-15.722 0-11.54 16.51-11.902 23.288-19.663 7.808-9.007 2.912-23.622-3.865-32.408 0 0 2.286-.463 5.887-.463 7.142 0 19.504 1.79 29.66 12.244 13.495 13.872 7.89 28.971 7.89 28.971l3.622.704c2.165.462 4.31.543 6.535.643.485 0 .971.02 1.456.02 19.605 0 28.366-20.367 28.366-20.367s20.839 25.474-9.833 45.417c-5.281 3.418-7.608 6.574-7 9.952l.486 2.212 2.184.382c22.235 5.991 33.484 21.231 47.221 38.56 20.859 26.358 50.378 27.203 54.019 27.203h.385s-6.738 21.129-26.585 21.129c-.324 0-.607 0-.951-.019-9.124-.323-13.798-3.8-13.798-3.8s-3.581 47.989 32.451 62.866z" fill="#000"/><path d="M448.48 151.289c9.083 4.804 14.364 11.238 18.997 16.947 4.552 5.569 8.882 10.937 15.638 13.169 2.408.825 4.957 1.207 7.547 1.207 10.156 0 20.354-6.173 24.217-14.717l3.885-8.565-9.407-.563c-.446-.02-12.544-1.106-26.018-14.797-5.544-5.608-12.241-8.565-19.464-8.565-8.82 0-15.356 4.383-16.084 4.826l-8.659 6.052 9.348 5.006zm15.416-9.409c4.531 0 9.812 1.527 14.81 6.654 15.678 15.823 30.266 16.707 30.266 16.707-2.65 5.83-10.338 10.957-18.29 10.957-1.84 0-3.682-.281-5.523-.904-10.783-3.619-14.648-19.703-33.605-29.716 0 0 5.302-3.698 12.342-3.698zM452.724 236.713v.323c-5.462-43.788-37.469-75.413-73.077-94.653-3.297-1.75-6.332-3.237-9.286-4.665 10.844 1.669 28.304 1.87 41.778-9.751 0 0-20.616 15.079-62.86 1.388 11.695 7.539 34.415 18.175 55.152 35.404 51.855 45.275 14.749 89.445 14.749 89.445 18.634-19.319 19.402-40.027 13.92-56.935 9.812 16.224 16.084 35.926 15.112 60.213-1.435 34.801-20.676 64.898-40.929 89.084-9.731 11.741-11.915 26.156-11.915 26.156s3.924-12.726 15.193-25.815c21.709-25.25 40.261-51.488 42.689-89.285 2.246 6.857 11.492 25.936 26.16 33.113.04.02-18.391-11.017-26.686-54.022zM176.381 398.735c-.02-.06-3.783-5.911-4.996-21.734-1.416-18.958-8.62-30.016-15.741-36.369 2.064-.965 3.965-2.151 5.564-3.618 10.46-9.35 10.014-20.346 9.953-21.532l-.404-5.931-5.989-.101c-15.962-.262-27.111-5.006-36.154-15.401-2.104-2.452-3.803-4.885-5.179-7.277 4.976 1.507 11.066 2.634 18.289 2.634 1.943 0 3.946-.122 6.07-.262 11.228-.965 18.836-7.6 19.685-8.343l6.211-5.669-7.101-4.545c-15.882-10.092-32.108-29.232-19.645-62.766 8.072-21.814 26.746-41.577 57.094-60.516 10.238-6.434 15.841-13.992 15.841-21.23 0-11.178-9.387-15.581-16.286-18.718-3.359-1.588-6.858-3.176-8.557-5.126-5.342-6.132-.831-17.913 4.106-24.287l6.353-8.263-10.278-2.01c-.303-.04-2.994-.543-7.121-.543-7.689 0-22.336 1.85-34.314 14.174-9.974 10.254-11.288 21.17-10.783 28.206-.971.081-1.942.122-2.954.181h-1.092c-15.012 0-22.113-15.801-22.396-16.425l-4.23-9.871-6.838 8.323c-.384.503-10.378 12.887-7.95 28.388 1.618 10.313 8.132 19.199 19.32 26.518a19.5 19.5 0 012.671 1.991c-21.06 6.814-32.836 21.773-45.279 37.494l-1.8 2.232c-19.018 24.045-45.927 24.75-49.143 24.75l-9.164-.282 2.79 8.664c.325 1.046 8.438 25.654 32.796 25.654l1.174-.039c2.569-.081 4.876-.423 6.94-.825-1.013 13.409-5.97 38.199-28.366 47.447l-6.838 2.815 3.703 6.393c.364.583 8.66 14.516 27.474 14.516 8.214-.021 14.607-2.072 19.403-4.544.728 6.071 2.225 13.872 5.159 22.577 6.818 20.145.465 34.259.222 34.822l-3.358 7.037 7.607 2.01c.506.12 5.18 1.286 10.702 1.286 2.59 0 4.978-.281 7.123-.784 5.766-1.347 10.216-3.879 13.594-6.775 2.064 6.312 5.605 13.43 11.736 19.743 10.438 10.655 25.45 16.043 45.075 16.043l11.897-.16-6.596-9.952zm-5.746 3.679c-54.039 0-52.662-46.06-52.662-46.06s-3.763 13.631-18.836 17.19c-1.8.482-3.723.664-5.605.664-4.855 0-9.043-1.127-9.043-1.127s7.85-16.546.02-39.686c-6.474-19.201-5.421-33.434-5.421-33.434s-7.264 10.937-25.33 11.037h-.183c-15.032 0-21.587-11.319-21.587-11.319 36.012-14.857 32.47-62.827 32.47-62.827s-4.672 3.458-13.817 3.8c-.324.02-.627.02-.95.02-19.87 0-26.586-21.13-26.586-21.13h.405c3.662 0 33.14-.845 53.999-27.202 13.737-17.33 25.006-32.55 47.2-38.56l2.225-.382.487-2.212c.607-3.378-1.7-6.534-6.98-9.952-30.672-19.964-9.833-45.417-9.833-45.417s8.72 20.347 28.365 20.347c.485 0 .931-.021 1.436-.021 2.205-.121 4.391-.201 6.535-.663l3.622-.704s-5.605-15.098 7.91-28.97c10.157-10.475 22.518-12.244 29.639-12.244 3.622 0 5.868.462 5.868.462-6.757 8.805-11.653 23.402-3.845 32.409 6.758 7.74 23.247 8.122 23.247 19.662 0 4.885-4.592 10.596-12.846 15.722-24.826 15.541-49.467 36.168-59.705 63.772-12.786 34.46 1.639 57.318 22.255 70.447 0 0-6.474 5.91-15.841 6.655a58.239 58.239 0 01-5.524.261c-19.746 0-29.963-9.209-29.963-9.209s1.699 12.728 11.917 24.549c9.549 10.916 21.992 17.35 41.01 17.612 0 0 .607 8.766-7.81 16.344-5.401 4.785-17.825 6.353-17.825 6.353s23.308 4.685 25.857 38.863c1.396 18.516 6.11 24.95 6.11 24.95h-.385z" fill="#000"/><path d="M50.28 182.635c2.61 0 5.16-.383 7.566-1.208 6.799-2.231 11.108-7.599 15.66-13.168 4.654-5.71 9.894-12.143 18.977-16.948l9.348-4.986-8.68-6.052c-.729-.462-7.243-4.824-16.043-4.824-7.243 0-13.96 2.935-19.484 8.563-13.474 13.672-25.552 14.777-25.998 14.798l-9.407.542 3.864 8.585c3.884 8.504 14.06 14.698 24.198 14.698zm11.977-34.078c5.018-5.128 10.298-6.655 14.85-6.655 7 0 12.3 3.698 12.3 3.698-18.935 10.033-22.82 26.098-33.645 29.716-1.78.623-3.64.905-5.481.905-7.952 0-15.64-5.107-18.27-10.957 0-.02 14.566-.906 30.246-16.707zM92.745 257.502c-1.011-24.287 5.261-43.99 15.093-60.214-5.483 16.908-4.734 37.616 13.92 56.937 0 0-37.106-44.17 14.768-89.446 20.759-17.23 43.459-27.866 55.133-35.405-42.224 13.691-62.841-1.387-62.841-1.387 13.474 11.621 30.935 11.42 41.78 9.732-2.934 1.426-6.01 2.914-9.268 4.663-35.647 19.24-67.634 50.865-73.117 94.653v-.341c-8.274 43.004-26.686 54.041-26.686 54.041 14.649-7.178 23.875-26.237 26.12-33.112 2.449 37.797 21 64.033 42.709 89.285 11.269 13.087 15.235 25.814 15.235 25.814s-2.205-14.416-11.977-26.157c-20.212-24.145-39.453-54.262-40.869-89.063zM258.281 168.901v8.685c3.015-3.639 8.842-2.894 8.842-2.894v12.525s-.203 6.152-2.408 8.825h12.604c-2.164-2.653-2.388-8.825-2.388-8.825v-12.525s5.827-.745 8.822 2.894v-8.685h-25.472zM252.858 117.392c4.026 3.178 6.353 3.7 6.434 3.761l1.578.723v-8.183l-14.809-6.192c0 .02.141 4.744 6.797 9.891zM288.083 117.392c6.697-5.147 6.818-9.891 6.818-9.891l-14.809 6.192v8.183l1.557-.723c.102-.061 2.408-.583 6.434-3.761z" fill="#000"/><path d="M314.763 84.078c0-12.404-21.021-23.562-44.227-23.562H270.395c-23.206 0-44.227 11.158-44.227 23.562l.466 3.056 9.265 52.855-9.305 5.368-24.077 13.973h.082s-5.422 2.754-7.932 4.463c-9.164 6.334-11.106 15.561-5.786 19.381 1.316-7.519 7.304-15.4 18.512-15.4 8.073 0 14.223 4.141 19.201 10.354a50.449 50.449 0 013.621 5.046c1.395 2.271 2.791 4.263 4.188 6.193h-62.01c4.552 9.107 8.881 18.758 8.881 29.232v136.39c0 33.012 25.553 48.774 53.189 48.774 21.365 0 24.239-.965 36.034 10.695 11.734-11.68 14.607-10.695 35.992-10.695 27.656 0 53.169-15.762 53.169-48.774v-136.39c0-10.474 4.33-20.125 8.902-29.232h-62.031c1.376-1.911 2.772-3.922 4.167-6.193a57.68 57.68 0 013.602-5.046c5.017-6.232 11.147-10.354 19.22-10.354 11.208 0 17.177 7.861 18.512 15.4 5.322-3.82 3.399-13.047-5.827-19.381-2.468-1.709-7.891-4.463-7.891-4.463h.082l-24.076-13.973-9.266-5.368 9.266-52.855.445-3.056zm-79.471 6.152l32.574 10.977v50.845l-23.974-12.565-8.6-49.257zm6.738 108.002c5.342 5.287 10.582 8.565 15.558 10.374-.648 2.554-1.496 7.822.911 13.068 1.962 4.222 5.523 7.48 10.641 9.651.567 5.228 3.885 13.088 13.091 16.567-4.026 4.04-7.952 7.84-9.55 9.388l-37.328-.583c-.849-.423-2.286-1.367-2.932-2.714-.082-.181-.203-.282-.263-.483l6.088.985c.143.02.263.02.385.02 1.174 0 2.205-.804 2.408-2.01a2.424 2.424 0 00-2.023-2.775l-7.486-1.166 8.315-28.529-7.87-16.465-12.624 13.27-.77 29.673-8.476-1.326c-1.316-.262-2.57.704-2.792 2.01-.203 1.308.687 2.533 2.022 2.775l3.561.542c-1.274.725-2.103 1.287-2.205 1.367l-.729.503-.202.886c-2.063 8.323 2.61 16.224 7.649 19.762l-.183 1.045c-.202 1.288.081 2.533.85 3.579.728 1.066 1.861 1.709 3.115 1.93.264.04.546.06.79.06 2.184 0 4.087-1.508 4.633-3.698 1.881.22 3.601.26 4.774.26h.992l48.981 8.786.829-.542c3.904-2.715 18.775-13.49 23.651-17.05 1.335 1.147 2.832 2.193 4.653 3.056-1.578 5.267-1.679 13.37 4.573 19.764h-124.83v-71.593c0-6.936-2.043-13.912-4.451-20.346h56.244v-.041zm60.533 65.502c-4.956 3.619-17.702 12.866-22.315 16.083l-44.51-7.941c.102-.402.202-.784.304-1.186a38.605 38.605 0 001.214-9.107l37.408.603.708-.725c.567-.562 12.423-11.942 18.472-18.496a23.01 23.01 0 005.583 5.006c-.809 4.343-.465 10.535 3.136 15.763zm-74.513-7.661c1.052 2.192 2.953 3.66 4.269 4.484-.041 2.05-.243 5.247-.789 8.062a16.495 16.495 0 01-.466 1.789c-.1.363-.202.664-.283.905-1.962 0-5.827-.241-8.983-1.387-3.499-1.287-8.719-7.66-7.506-14.676 1.518-.926 5.018-2.876 8.296-2.876 2.529-.02 4.248 1.166 5.462 3.699zm-4.633-8.825l.748-28.489 6.434-6.775 4.047 8.404-7.972 27.342-3.257-.482zm78.742 147.689c-2.428 0-4.674.04-6.697.121l5.301-16.386c.83-2.272-3.359-5.187-5.079-7.74 2.61 1.629 9.368 5.187 12.626 6.615-.344.522-6.151 17.39-6.151 17.39zm16.63-18.617l-3.459 17.934c-2.205.301-4.552.461-6.96.562l3.642-17.249c1.092-5.128-12.766-6.716-19.604-16.788-3.339 3.739-9.631 4.846-15.943 4.846-5.766 0-11.532-.926-15.033-1.609-.89-.14-1.74-.241-2.569-.241-2.023 0-3.865.623-5.139 2.754l-1.012 1.689-18.875-4.423-4.694 7.72c-.668 1.247-.709 2.313.364 3.477l1.274 1.389c-.87 2.734-4.794 6.855-4.794 6.855l-2.812-3.479c-2.227-2.472-1.862-6.975.465-11.157l7.485-12.566 15.984 2.292-2.489-5.629c-3.338-7.439 1.74-16.908 2.286-22.357-.182 1.649-1.7 2.011-3.48 2.011-1.618 0-3.419-.302-4.613-.302-.465 0-.87.04-1.092.201l-4.33 2.614-3.419-2.996c-.405-.583-.546-1.93.465-2.935l7.911-8.806-9.346-10.836 13.089 6.534 3.985-4.805c1.094 1.066.628 3.86.628 3.86 4.087.1 15.537 6.394 16.145 21.07.04.441.04.945.04 1.426 0 0 .102.182.304.483.809 1.107 3.034 3.941 5.866 4.202l18.088 1.77h.08c1.984 0 5.929-2.312 10.986-2.312 2.752 0 5.827.703 9.105 2.754 0 0 1.638-1.287 4.309-1.428.202-.02.426-.02.628-.02 8.113 0 11.471 7.279 15.821 13.33 3.278 4.604 7.648 11.44 7.648 11.44-1.619 1.909-3.117 2.955-5.625 2.955-.687 0-1.477-.061-2.327-.221-8.7-1.589-9.953-19.361-14.91-20.769-.263-.08-.546-.1-.789-.1-1.599 0-2.306 1.408-2.306 1.408 2.264 6.05.95 8.504 3.378 13.168 1.82 3.458 5.057 6.313 6.393 7.66 0 .04-.364 2.654-.749 4.624zm-97.132-16.969l.829 2.072c-.546 1.809-6.817 4.382-6.817 4.382l-1.357-2.936c-1.436-3.136-1.133-8.423 3.238-11.66l10.156-6.152 10.764 2.271c-.203 3.398 1.84 5.932 1.84 5.932l-11.289-2.151-6.757 4.644c-1.133.784-1.214 2.252-.607 3.598zm98.832 33.918l3.096-16.045c.161-.944.363-2.05.505-2.975.87.363 1.801.664 2.812.845 1.153.221 2.225.321 3.197.321 4.735 0 7.486-2.473 9.327-4.584l2.388-2.754-1.943-3.015c-.182-.302-4.471-7.057-7.789-11.682a59.72 59.72 0 01-1.902-2.794c-3.763-5.59-8.477-12.605-17.925-12.605l-.85.02c-1.558.1-2.893.401-3.965.803-2.975-1.387-6.03-2.09-9.207-2.09-3.904 0-7.202 1.066-9.387 1.809-.627.181-1.193.382-1.638.463l-17.663-1.73c-.222-.039-.951-.461-1.821-1.507v-.081l3.824-1.528c-1.072-12.645-13.292-20.426-20.11-23.06-.303-1.267-.91-2.534-1.982-3.558l-3.804-3.579-3.339 3.981-1.638 2.031-24.723-10.094 16.084 20.065-6.353 9.55c-2.327 2.453.243 4.906.243 4.906l6.554 4.483 6.799-2.513c.242 0 .445.061.667.08-.323 1.025-.748 5.046-1.032 6.172l-11.795-2.312-12.402 6.957c-6.373 4.644-7.243 12.344-4.875 17.612l1.375 2.994 1.962 4.223 4.33-1.79c.061-.02.122-.04.161-.079-1.557 4.945-.929 9.649 1.862 12.746l2.63 3.297 3.501 4.403 3.844-4.102c1.133-1.126 4.795-5.206 5.928-8.705l.829-2.675-1.881-2.05-.304-.361 2.105-3.459 15.395 3.599 3.46.784 1.841-3.016 1.012-1.649c.182-.341.242-.402.951-.402.546 0 1.092.061 1.679.182 5.806 1.085 11.167 1.629 15.922 1.629 4.613 0 7.364-.182 10.662-1.267 0 0 8.275 9.328 8.558 9.69l-5.057 15.521-.223.945c-9.59.763-14.263 2.855-19.908 8.464-8.194-8.083-14.001-8.926-36.032-8.926-26.363 0-44.227-15.36-44.227-39.888v-59.972h160.478l.041 59.972c.019 19.903-11.735 33.775-30.247 38.3zm34.697-195.037c-2.447 6.434-4.491 13.411-4.491 20.347l.021 44.753c-9.409-1.568-10.521-11.642-10.562-12.083l-.182-2.051-2.023-.181c-4.087-.382-6.798-2.112-9.084-4.322-4.613-4.584-4.634-12.023-4.613-12.084-.06.382-5.078 7.358.749 14.978 2.447 3.217 5.988 5.188 10.581 5.972 1.072 5.589 5.26 13.469 15.134 14.676v21.914h-27.759c-12.807-7.076-7.385-19.542-7.122-20.064l1.093-2.373-2.448-.925c-13.859-5.106-10.055-18.858-9.853-19.441l.566-2.011-1.881-.884c-11.452-5.268-9.893-19.481-9.751-20.064-3.521 2.834-4.796 8.624-2.368 14.294-1.315 1.488-3.074 3.297-4.997 5.267-11.856-2.994-12.219-13.831-12.219-14.333l-.022-1.67-1.557-.603c-4.633-1.709-7.81-4.262-9.368-7.701-1.759-3.798-1.133-7.779-.646-9.69 1.355.302 2.71.524 4.005.624 1.335.14 2.711.221 4.087.221h.182c1.376 0 2.732-.081 4.067-.221 7.384-.724 15.659-3.88 24.278-12.365h56.183v.02zm-43.255-45.236l10.965 6.334h.162l2.752 1.588c-6.191 1.709-10.925 4.785-14.89 8.826-.142.121-.283.282-.426.422a49.297 49.297 0 00-2.67 3.077c-.162.201-.324.422-.506.643a50.984 50.984 0 00-2.408 3.357 5.794 5.794 0 01-.404.583c-.911 1.347-1.78 2.795-2.65 4.282-7.81 13.37-20.273 21.352-31.359 21.372-11.067-.02-23.53-8.002-31.34-21.372-.85-1.448-1.699-2.854-2.61-4.222-.182-.261-.344-.522-.505-.744a82.435 82.435 0 00-2.327-3.215 11.815 11.815 0 00-.587-.745 76.773 76.773 0 00-2.59-2.996c-.181-.14-.303-.321-.485-.482-3.985-4.041-8.7-7.097-14.911-8.786l2.792-1.588h.121l10.966-6.334 11.269-6.412 30.105 16.284.061-.06.08.06 30.105-16.284 11.29 6.412zm-14.851-13.49l-23.994 12.566v-50.865l32.553-10.977-8.559 49.276zm-26.604-43.888l-35.689-14.012c3.035-7.137 17.035-13.21 35.689-13.23 18.674.02 32.674 6.093 35.689 13.23l-35.689 14.012zM712.425 308.396v-80.502h47.518V198.6H630.309v29.294h47.516v80.502h34.6zm94.811-45.902V198.6H773.79v109.796h29.525l57.666-63.894v63.894h33.447V198.6h-29.526l-57.666 63.894zm199.714 5.075v40.827h33.45V198.6h-33.45v40.135h-53.746V198.6h-33.446v109.796h33.446v-40.827h53.746zm126.59 40.827c7.61 0 14.53-.691 20.99-2.537 17.31-4.843 28.6-18.915 28.6-38.06 0-18.222-9.68-30.908-25.13-36.676-7.4-2.767-16.15-2.998-24.46-2.998h-34.37V198.6h-33.44v109.796h67.81zm-5.77-54.436c4.62 0 9 0 12.92 1.384 5.54 1.845 8.77 6.458 8.77 11.994 0 5.767-3.23 10.611-8.54 12.917-3.69 1.615-7.38 1.615-13.15 1.615h-28.6v-27.91h28.6zm115.33 12.917l39.91 41.519h44.51l-55.58-57.205 53.51-52.591h-41.98l-40.37 41.289h-9.22V198.6h-33.44v109.796h33.44v-41.519h9.22zm153.24-71.275c-44.98 0-71.96 25.372-71.96 58.126 0 32.756 26.98 58.129 71.96 58.129 44.76 0 71.75-25.373 71.75-58.129 0-32.754-26.99-58.126-71.75-58.126zm0 89.498c-22.37 0-36.66-13.379-36.66-31.372 0-17.99 14.29-31.139 36.66-31.139 22.15 0 36.68 13.149 36.68 31.139 0 17.993-14.53 31.372-36.68 31.372zm183.14-92.728h-33.45v11.071c-41.98.923-67.13 18.684-67.13 50.055 0 31.37 25.15 47.748 67.13 48.671v11.072h33.45v-11.072c42.2-.923 67.35-17.301 67.35-48.671 0-31.371-25.15-49.132-67.35-50.055v-11.071zm-33.45 86.269c-23.07-.923-33.22-10.38-33.22-25.143s10.15-25.373 33.22-26.295v51.438zm33.45-51.438c23.3.922 33.21 11.532 33.21 26.295 0 14.763-9.91 24.22-33.21 25.143v-51.438zm178.62-34.831h-33.45v11.071c-41.98.923-67.11 18.684-67.11 50.055 0 31.37 25.13 47.748 67.11 48.671v11.072h33.45v-11.072c42.22-.923 67.36-17.301 67.36-48.671 0-31.371-25.14-49.132-67.36-50.055v-11.071zm-33.45 86.269c-23.06-.923-33.21-10.38-33.21-25.143s10.15-25.373 33.21-26.295v51.438zm33.45-51.438c23.3.922 33.22 11.532 33.22 26.295 0 14.763-9.92 24.22-33.22 25.143v-51.438z" fill="#000"/></svg>