<svg xmlns="http://www.w3.org/2000/svg" viewBox="0 0 367 106"><path d="M349.9 92.3c7.2 0 12.3-1.3 16.1-4.1V75.5c-3.9 2.7-8.6 4.4-15.2 4.4-11.1 0-15.7-8.6-15.7-22.2 0-14.3 5.6-21.6 15.8-21.6 6 0 11.9 2.1 15 4.1V27c-3.3-1.8-9-3.1-16.8-3.1-19.9 0-30.2 14.3-30.2 34.3.1 21.9 10.2 34.1 31 34.1zm-97.3-5.8V73.8c-4.8 3.3-13 6.2-20.5 6.2-11.4 0-15.7-5.4-16.4-16.4h37.6v-8.2c0-22.9-10.1-31.5-25.6-31.5-19 0-28 14.5-28 34.4 0 22.9 11.3 34 31.1 34 9.9 0 17.2-2.7 21.8-5.8zM109.9 25.1v26H89.1v-26H73.5V91h15.6V63.5h20.8V91h15.6V25.1h-15.6zm85.9 53.5h-6.9V25.1h-45.4v5.6c0 16.1-1 36.9-6.5 47.9h-5V106h14.4V91h34.9v15h14.4V78.6zM302.3 91H320l-25-35.5 22-30.4h-15.7l-22 30.4V25.1h-15.6V91h15.6V58.6l23 32.4zm-75-54.9c7.7 0 10.1 6.4 10.1 14.7v1.3h-21.7c.4-10.5 4.2-16 11.6-16zm-54 42.5h-22c4.3-9.9 5.5-27.9 5.5-39.3v-2h16.5v41.3z"/><path d="M60.5 91H44.6V12.3h-7.1c-13 0-19.8 6.5-19.8 16.2 0 11 4.7 16.1 14.4 22.6l8 5.4-23 34.5H0l20.7-30.8C8.8 51.7 2.1 43.4 2.1 29.4 2.1 11.9 14.3 0 37.4 0h23v91z" fill="#fc3f1d"/></svg>