<?xml version="1.0" encoding="utf-8"?>
<!-- Generator: Adobe Illustrator 25.2.1, SVG Export Plug-In . SVG Version: 6.00 Build 0)  -->
<svg version="1.1" id="Layer_1" xmlns="http://www.w3.org/2000/svg" xmlns:xlink="http://www.w3.org/1999/xlink" x="0px" y="0px"
	 viewBox="0 0 1429.59 430.1" style="enable-background:new 0 0 1429.59 430.1;" xml:space="preserve">
<g>
	<path d="M1340.28,0l-30.3,138.76c-4.78,21.27-7.97,41.47-12.23,70.71h-2.66c-4.25-29.24-7.44-49.44-12.23-70.71L1252.56,0h-95.16
		l91.44,300.91V430.1h89.32V300.91L1429.59,0H1340.28z"/>
	<path d="M1032.45,138.76c-4.78,21.27-7.97,41.47-12.23,70.71h-2.66c-4.25-29.24-7.44-49.44-12.23-70.71L975.04,0h-95.16
		l91.44,300.91V430.1h89.32V300.91L1152.07,0h-89.32L1032.45,138.76z"/>
	<path d="M207.34,0H88.25L0,430.1h90.38l15.14-97.29h80.83l15.14,97.29h94.1L207.34,0z M116.44,262.63l20.19-129.72
		c3.19-20.2,5.32-39.87,7.97-67.52h2.66c2.66,27.65,4.78,47.32,7.97,67.52l20.19,129.72H116.44z"/>
	<path d="M517.82,201.49v-0.53c30.84-10.63,52.63-42.53,52.63-88.25C570.45,43.59,531.11,0,447.11,0H327.49v430.1h127.06
		c86.13,0,125.47-46.78,125.47-124.4C580.02,246.15,555.57,214.78,517.82,201.49z M414.68,62.2h24.46
		c28.71,0,43.06,16.48,43.06,58.48s-14.35,58.48-43.06,58.48h-24.46V62.2z M446.58,367.9h-31.9V239.24h31.9
		c29.24,0,42.53,18.61,42.53,64.33C489.11,349.29,475.82,367.9,446.58,367.9z"/>
	<path d="M814.48,201.49v-0.53c30.84-10.63,52.63-42.53,52.63-88.25C867.11,43.59,827.77,0,743.77,0H624.15v430.1h127.06
		c86.13,0,125.47-46.78,125.47-124.4C876.68,246.15,852.23,214.78,814.48,201.49z M711.34,62.2h24.46
		c28.71,0,43.06,16.48,43.06,58.48s-14.35,58.48-43.06,58.48h-24.46V62.2z M743.24,367.9h-31.9V239.24h31.9
		c29.24,0,42.53,18.61,42.53,64.33C785.77,349.29,772.48,367.9,743.24,367.9z"/>
</g>
</svg>
