<svg xmlns="http://www.w3.org/2000/svg" viewBox="0 0 156 32.64"><defs><style>.a{fill:#666;}</style></defs><title>agima</title><path class="a" d="M107.83.05,101,17.35,94.53.25H86.25L80.8,32.44h8.33l2.75-18.52,5.26,13.41,2,5.31h3.32l7.76-18.71,2.36,18.71h8.33L116.09.05ZM72.9.16a4.94,4.94,0,0,0-5.07,4.69V27.61a5.08,5.08,0,0,0,10.13,0V4.85A4.94,4.94,0,0,0,72.9.16Zm71,.12V.16L134.81.05h0L122.47,32.44h8.82l2.19-5.76H145l2.07,5.76H156ZM21.83.31l-9.11.1L.47,32.64H9.21v-.28l2.19-5.68H22.93l2.07,6h8.91L21.82.42ZM60,14.56H49.35v5.76H55.7a5.61,5.61,0,0,1-1.51,3.56,6.7,6.7,0,0,1-4.81,1.81,7.18,7.18,0,0,1-5.45-2.12,10.06,10.06,0,0,1-2.75-7.22,11,11,0,0,1,.78-4C43.28,8.79,45.71,7,49.15,7A6.84,6.84,0,0,1,53.5,8.48a9,9,0,0,1,2.25,3.16l7.51-3.07a15.9,15.9,0,0,0-4.58-5.82A15.11,15.11,0,0,0,49.51,0C44.1,0,39.93,1.74,36.91,5.18a16.32,16.32,0,0,0-4,11.18,16.35,16.35,0,0,0,3.39,10.36c3,3.8,7.29,5.73,12.92,5.73a18.34,18.34,0,0,0,4-.42h0A14.74,14.74,0,0,0,58.17,30a14.27,14.27,0,0,0,5.64-7.33,25,25,0,0,0,1.1-8.1l-4.93,0h0Z"/></svg>
