<?xml version="1.0" encoding="UTF-8"?>
<svg width="833px" height="149px" viewBox="0 0 833 149" version="1.1" xmlns="http://www.w3.org/2000/svg" xmlns:xlink="http://www.w3.org/1999/xlink">
    <!-- Generator: Sketch 49.1 (51147) - http://www.bohemiancoding.com/sketch -->
    <title>bookmate_hrz</title>
    <desc>Created with Sketch.</desc>
    <defs>
        <polygon id="path-1" points="0.6663 150.03514 833.99755 150.03514 833.99755 0.70218 0.6663 0.70218"></polygon>
    </defs>
    <g id="Page-1" stroke="none" stroke-width="1" fill="none" fill-rule="evenodd">
        <g id="bookmate_hrz" transform="translate(0.000000, -1.000000)">
            <mask id="mask-2" fill="white">
                <use xlink:href="#path-1"></use>
            </mask>
            <g id="Shape"></g>
            <g id="Group" mask="url(#mask-2)" fill="#4D4D4D" fill-rule="nonzero">
                <g transform="translate(417.331925, 75.368660) scale(-1, 1) rotate(-180.000000) translate(-417.331925, -75.368660) translate(0.666300, 0.702180)" id="Shape">
                    <path d="M719.375535,43.1412255 L719.375535,82.6157935 L705.927569,82.6157935 L705.927569,84.3037892 L734.416831,112.963718 L736.01416,112.963718 L736.01416,95.1757621 L751.83012,95.1757621 L751.83012,82.6157935 L736.01416,82.6157935 L736.01416,44.662555 C736.01416,38.3105709 739.040819,35.4132448 744.264806,35.4132448 C747.567464,35.4132448 750.042125,35.8265771 752.380786,36.7932414 L752.380786,23.5439411 C749.767459,22.5772769 746.190135,21.749279 741.102147,21.749279 C726.80085,21.749279 719.375535,29.4772596 719.375535,43.1412255 Z M221.079447,36.1999095 C233.29275,36.1999095 238.916736,41.7105624 238.916736,51.8998702 L238.916736,52.4518689 C238.916736,62.6425101 233.291417,67.7384973 219.84345,67.7384973 L203.378158,67.7384973 L203.378158,36.1999095 L221.079447,36.1999095 Z M218.471454,80.1317997 C230.547424,80.1317997 235.212745,84.5397886 235.212745,94.5917635 L235.212745,95.1450955 C235.212745,104.507739 229.859425,108.502395 218.199454,108.502395 L203.378158,108.502395 L203.378158,80.1317997 L218.471454,80.1317997 Z M185.542203,121.585029 L220.667448,121.585029 C240.838065,121.585029 252.776701,113.873049 252.776701,95.9704267 L252.776701,95.4197614 C252.776701,85.6411192 248.384712,77.9291385 237.271407,74.4851471 C250.580707,71.5944877 256.891358,64.2958393 256.891358,51.2132053 L256.891358,50.66254 C256.891358,32.3452525 244.818055,23.1199422 223.275442,23.1199422 L185.542203,23.1199422 L185.542203,121.585029 Z M324.532522,58.6478534 L324.532522,59.611851 C324.532522,74.4851471 317.120541,83.5744577 304.772571,83.5744577 C292.423269,83.5744577 284.876621,74.6224801 284.876621,59.749184 L284.876621,58.6478534 C284.876621,43.9145569 292.148603,34.6879133 304.772571,34.6879133 C317.120541,34.6879133 324.532522,43.9145569 324.532522,58.6478534 Z M267.860664,58.3745207 L267.860664,59.474518 C267.860664,81.7837955 283.641958,96.6570917 304.772571,96.6570917 C325.767186,96.6570917 341.545813,81.9237952 341.545813,59.8891836 L341.545813,58.7865197 C341.545813,36.3399091 325.767186,21.741279 304.635238,21.741279 C283.504625,21.741279 267.861997,36.4759088 267.861997,58.3745207 L267.860664,58.3745207 Z M408.521645,58.6478534 L408.521645,59.611851 C408.521645,74.4851471 401.110997,83.5744577 388.761695,83.5744577 C376.413726,83.5744577 368.867078,74.6224801 368.867078,59.749184 L368.867078,58.6478534 C368.867078,43.9145569 376.13906,34.6879133 388.763028,34.6879133 C401.109664,34.6879133 408.521645,43.9145569 408.521645,58.6478534 Z M351.85112,58.3745207 L351.85112,59.474518 C351.85112,81.7837955 367.632414,96.6570917 388.763028,96.6570917 C409.757642,96.6570917 425.536269,81.9237952 425.536269,59.8891836 L425.536269,58.7865197 C425.536269,36.3399091 409.757642,21.741279 388.625695,21.741279 C367.495081,21.741279 351.85112,36.4759088 351.85112,58.3745207 Z M440.484232,128.470345 L457.086857,128.470345 L457.086857,63.4691747 L482.746793,95.1450955 L500.857415,95.1450955 L473.004151,62.0918448 L503.192075,23.1186089 L483.980123,23.1186089 L457.086857,58.5118537 L457.086857,23.1199422 L440.484232,23.1199422 L440.484232,128.470345 Z M514.572047,95.1437621 L531.178672,95.1437621 L531.178672,84.125123 C534.607997,90.8744395 542.430644,96.658425 552.994618,96.658425 C562.325261,96.658425 569.734576,92.6651017 573.301233,83.7144574 C578.790553,92.6651017 588.670528,96.658425 597.589173,96.658425 C610.762473,96.658425 621.465113,88.5317787 621.465113,68.7024949 L621.465113,23.1199422 L604.862488,23.1199422 L604.862488,67.599831 C604.862488,78.2051378 600.333166,82.7477931 592.101186,82.7477931 C583.869207,82.7477931 576.319893,77.2411402 576.319893,66.2225011 L576.319893,23.1199422 L559.718601,23.1199422 L559.718601,67.599831 C559.718601,78.2051378 555.051946,82.7477931 546.957299,82.7477931 C538.723987,82.7477931 531.178672,77.2411402 531.178672,66.2225011 L531.178672,23.1199422 L514.572047,23.1199422 L514.572047,95.1437621 Z M681.004964,48.3198792 L681.004964,55.4811946 L672.496985,55.4811946 C659.87435,55.4811946 651.779704,52.5892019 651.779704,43.7758906 C651.779704,37.7159057 655.071696,33.7225824 663.305008,33.7225824 C673.45965,33.7225824 681.004964,39.0932356 681.004964,48.3198792 Z M635.311745,43.0865589 C635.311745,59.8891836 651.505038,65.9478351 672.087653,65.9478351 L681.004964,65.9478351 L681.004964,69.6651592 C681.004964,79.3051351 677.710306,84.125123 667.97033,84.125123 C659.326352,84.125123 655.071696,79.9944667 654.250364,72.8318179 L638.195738,72.8318179 C639.566401,89.6344426 652.875701,96.658425 668.928994,96.658425 C684.986288,96.658425 697.608923,90.0477749 697.608923,70.3544908 L697.608923,23.1199422 L681.278297,23.1199422 L681.278297,31.9332535 C676.611642,25.7346023 670.299658,21.741279 659.325018,21.741279 C646.151718,21.741279 635.311745,28.0772631 635.311745,43.0878923 L635.311745,43.0865589 Z M815.601961,66.6371667 C814.779296,79.0304691 808.463312,84.5397887 798.175338,84.5397887 C788.16203,84.5397887 781.432713,77.7931389 779.788717,66.6371667 L815.601961,66.6371667 Z M762.498094,58.3745207 L762.498094,59.474518 C762.498094,81.7851289 777.730056,96.658425 798.175338,96.658425 C816.012627,96.658425 832.06592,86.0531182 832.06592,60.3011826 L832.06592,55.482528 L779.515385,55.482528 C780.063383,41.8478954 786.922033,34.1359147 799.271335,34.1359147 C809.289977,34.1359147 814.501964,38.129238 815.739294,45.1532204 L831.793921,45.1532204 C829.460593,30.0052583 817.24729,21.7399457 798.86067,21.7399457 C777.730056,21.7399457 762.498094,35.6519109 762.498094,58.3745207 Z M81.1811304,50.0505415 C74.7291465,38.9465693 64.7118382,34.0519149 54.1811979,34.0519149 C33.1279172,34.0519149 17.4426231,49.2558769 17.4426231,72.0691532 L17.4426231,73.195817 C17.4426231,74.270481 17.4866229,75.2598118 17.5532894,76.2958093 L108.05573,76.274476 L108.05573,148.106296 L54.1065314,107.789064 L0.1599996,148.106296 L0.1599996,0.2799993 L108.05573,0.2799993 L108.05573,34.0532482 C97.5810894,34.0932481 88.3264458,38.9905692 81.1811304,50.0505415 Z"></path>
                    <path d="M54.1811979,46.4438839 C64.7851714,46.4438839 71.2744885,52.0732032 72.1318197,64.7518381 L33.5945827,64.7518381 C35.2825785,53.3385333 43.8678903,46.4452172 54.1811979,46.4452172 M90.2397744,64.7531714 L129.239677,64.7531714 C127.551681,53.3372 118.495704,46.4452172 108.182396,46.4452172 C97.5824227,46.4452172 91.0931056,52.0718698 90.2384411,64.7518381"></path>
                </g>
            </g>
        </g>
    </g>
</svg>
