<svg viewBox="0 0 182 19" fill="none" xmlns="http://www.w3.org/2000/svg"><path d="M153.312 0.398415H149.298V18.4747H154.016L159.991 6.25023H160.082L159.807 18.4747H163.82V0.398415H159.102L153.128 12.6229H153.036L153.312 0.398415ZM109.438 9.52848V9.31401C109.438 5.45365 112.012 3.92176 116.209 3.92176C120.407 3.92176 123.011 5.45365 123.011 9.31401V9.52848C123.011 13.3888 120.407 14.9514 116.209 14.9514C111.981 14.9207 109.438 13.3582 109.438 9.52848ZM104.689 9.77358C104.689 15.2884 109.254 18.873 116.209 18.873C123.164 18.873 127.76 15.319 127.76 9.77358V9.06891C127.76 3.55411 123.164 0.0307617 116.209 0.0307617C109.254 0.0307617 104.689 3.55411 104.689 9.06891V9.77358ZM181.1 0.398415H169.611L169.458 10.417C169.396 13.4808 168.937 14.5531 167.282 14.5531H166.241V18.4747H167.405C171.847 18.4747 173.134 16.6977 173.257 10.417L173.349 3.86049H177.086V18.4747H181.069V0.398415H181.1ZM80.7612 18.4747H84.8973L84.7135 6.49534H84.8054L89.3092 18.4747H93.4453L97.8878 6.49534H97.9797L97.7958 18.4747H101.932V0.398415H96.2333L91.4232 13.7565H91.3313L86.4599 0.398415H80.7612V18.4747ZM140.444 14.982H134.745V11.5812H140.444C141.792 11.5812 142.374 12.1633 142.374 13.2969C142.374 14.4305 141.792 14.982 140.444 14.982ZM130.486 0.398415V18.4747H140.29C143.875 18.4747 146.541 17.1573 146.541 13.2969C146.541 9.43656 143.906 8.14978 140.29 8.14978H134.776V3.9524H145.928V0.398415H130.486Z" fill="#FA6400"></path><path d="M21.3852 13.9402L17.1878 12.1326C15.8704 14.4917 13.7257 15.0125 11.1215 15.0125C6.83223 15.0125 4.65694 13.113 4.65694 9.55899V9.31389C4.65694 5.7599 6.83223 3.86036 11.1215 3.86036C13.7257 3.86036 15.8704 4.35057 17.1878 6.74031L21.3852 4.93268C19.3937 0.827221 15.3495 0 11.1215 0C4.28929 0 0 3.52335 0 9.09942V9.77346C0 15.3802 4.28929 18.8729 11.1215 18.8729C15.3495 18.8422 19.3937 18.0457 21.3852 13.9402ZM61.3675 0.398291H56.925V18.4746H61.8577L72.3664 5.88246H72.4584L72.3971 18.4746H76.8396V0.398291H71.9069L61.3981 12.9904H61.3062L61.3675 0.398291ZM27.8191 0.398291H23.8056V18.4746H28.5238L34.4981 6.25011H34.5901L34.3143 18.4746H38.3279V0.398291H33.6096L27.6659 12.6228H27.574L27.8191 0.398291ZM45.5584 3.95228V18.444H49.7251V3.95228H54.5659V0.398291H40.7176V3.95228H45.5584Z" fill="#6E00BE"></path></svg>
