
<svg width="82" height="21" viewBox="0 0 82 21" fill="none" xmlns="http://www.w3.org/2000/svg">
<path d="M0.1 10.6C0.1 16.5 4.6 20.5 10.125 20.5C12.125 20.5 13.375 19.925 14.95 19.225C14.95 18.275 14.95 14.2 14.95 14.2C13.675 15.05 12.3 15.775 10.45 15.775C7.425 15.775 5.15 13.725 5.15 10.65C5.15 7.4 6.95 5.025 10.2 5.025C12.575 5.025 13.85 5.75 15 6.7C15 4.45 15 1.5 15 1.5C13.225 0.549999 11.975 0.299999 9.95 0.299999C4.325 0.299999 0.1 4.475 0.1 10.6ZM17.6816 6.25C17.6816 8.95 19.0066 10.675 21.4316 11.775C22.2566 12.15 23.6816 12.7 24.2816 12.925C26.1566 13.625 26.2816 14 26.2816 14.8C26.2816 15.825 24.9066 16.3 23.5066 16.3C21.6816 16.3 19.9316 15.275 19.0066 14.45C18.5816 15.175 17.0066 18.325 17.0066 18.325C19.0066 19.575 20.9066 20.7 23.6066 20.7C27.4566 20.7 31.2566 18.55 31.2566 14.45C31.2566 11.575 29.7816 9.825 26.9066 8.675C26.4066 8.475 25.4316 8.075 24.8316 7.85C23.8316 7.475 22.6566 7.125 22.6566 6.1C22.6566 5.1 23.3566 4.425 24.5816 4.425C26.4316 4.425 28.4316 5.95 28.4316 5.95L30.3816 2.2C29.0066 1.3 26.7316 0.149999 24.2566 0.149999C20.8566 0.149999 17.6816 2.425 17.6816 6.25ZM33.3113 6.25C33.3113 8.95 34.6363 10.675 37.0613 11.775C37.8863 12.15 39.3113 12.7 39.9113 12.925C41.7863 13.625 41.9113 14 41.9113 14.8C41.9113 15.825 40.5363 16.3 39.1363 16.3C37.3113 16.3 35.5613 15.275 34.6363 14.45C34.2113 15.175 32.6363 18.325 32.6363 18.325C34.6363 19.575 36.5363 20.7 39.2363 20.7C43.0863 20.7 46.8863 18.55 46.8863 14.45C46.8863 11.575 45.4113 9.825 42.5363 8.675C42.0363 8.475 41.0613 8.075 40.4613 7.85C39.4613 7.475 38.2863 7.125 38.2863 6.1C38.2863 5.1 38.9863 4.425 40.2113 4.425C42.0613 4.425 44.0613 5.95 44.0613 5.95L46.0113 2.2C44.6363 1.3 42.3613 0.149999 39.8863 0.149999C36.4863 0.149999 33.3113 2.425 33.3113 6.25ZM48.941 6.25C48.941 8.95 50.266 10.675 52.691 11.775C53.516 12.15 54.941 12.7 55.541 12.925C57.416 13.625 57.541 14 57.541 14.8C57.541 15.825 56.166 16.3 54.766 16.3C52.941 16.3 51.191 15.275 50.266 14.45C49.841 15.175 48.266 18.325 48.266 18.325C50.266 19.575 52.166 20.7 54.866 20.7C58.716 20.7 62.516 18.55 62.516 14.45C62.516 11.575 61.041 9.825 58.166 8.675C57.666 8.475 56.691 8.075 56.091 7.85C55.091 7.475 53.916 7.125 53.916 6.1C53.916 5.1 54.616 4.425 55.841 4.425C57.691 4.425 59.691 5.95 59.691 5.95L61.641 2.2C60.266 1.3 57.991 0.149999 55.516 0.149999C52.116 0.149999 48.941 2.425 48.941 6.25ZM71.6457 13.25C72.1957 14.125 75.6707 20 75.6707 20H81.6457C81.6457 20 77.0207 12.8 76.5207 12.075C78.6707 11.25 79.8207 9.475 79.8207 6.85C79.8207 2.775 76.6707 0.849999 73.2707 0.849999C72.2457 0.849999 65.6457 0.849999 65.6457 0.849999V20H70.6457V13.25H71.6457ZM70.5457 4.675H72.1957C73.8457 4.675 74.7207 5.45 74.7207 7.075C74.7207 8.9 73.5207 9.475 72.1457 9.475H70.5457V4.675Z" fill="#18191B"/>
</svg>
