<svg width="140" height="30" fill="none" xmlns="http://www.w3.org/2000/svg"><g clip-path="url(#a)" fill="#4D4D4D"><path d="M44.93 9h.1c1.29 0 2.35.47 3.25 1.44.93 1 1.39 2.14 1.41 3.5a5 5 0 0 1-1.41 3.73 4.18 4.18 0 0 1-3.24 1.47l-.27-.01a4.38 4.38 0 0 1-3.26-1.58 5.13 5.13 0 0 1-1.33-3.6c.02-1.39.5-2.54 1.43-3.5A4.49 4.49 0 0 1 44.93 9Zm4.81-.8a6.96 6.96 0 0 0-4.58-1.88 6.8 6.8 0 0 0-5.36 2.23 7.7 7.7 0 0 0-2.24 5.55c0 2.07.7 3.88 2.07 5.36a6.95 6.95 0 0 0 5.1 2.34H45c1.92 0 3.64-.73 5.11-2.2a7.36 7.36 0 0 0 2.22-5.52V0h-2.6v8.2Zm14.22 7.27c0 1.06-.38 1.95-1.14 2.74a3.57 3.57 0 0 1-2.63 1.14 3.6 3.6 0 0 1-2.64-1.13 3.77 3.77 0 0 1-1.12-2.75V6.86h-2.65v8.39c0 1.92.6 3.54 1.8 4.83a6.12 6.12 0 0 0 4.61 1.94c1.84 0 3.38-.65 4.58-1.94a6.76 6.76 0 0 0 1.83-4.83v-8.4h-2.64v8.62Zm10.96-5.96a4.3 4.3 0 0 1 3.26 1.45c.93 1 1.4 2.14 1.41 3.5a5.15 5.15 0 0 1-1.43 3.75 4.26 4.26 0 0 1-3.26 1.47h-.24a4.5 4.5 0 0 1-3.28-1.61 5.06 5.06 0 0 1-1.3-3.6c.03-1.39.5-2.54 1.43-3.5a4.54 4.54 0 0 1 3.41-1.45Zm5.28-.26a7.15 7.15 0 0 0-5.14-2.39 6.8 6.8 0 0 0-5.38 2.21 7.7 7.7 0 0 0-2.24 5.55c0 2.05.7 3.86 2.09 5.36a7.05 7.05 0 0 0 5.07 2.37h.27c1.82 0 3.42-.64 4.77-1.9v1.58h2.58V14.6a7.2 7.2 0 0 0-2.02-5.36Zm3.46 12.26h2.62V0h-2.62v21.5Zm16.42-7.55a5.07 5.07 0 0 1-1.32 3.59 4.5 4.5 0 0 1-6.77.14 5.04 5.04 0 0 1-1.41-3.76c.02-1.35.48-2.49 1.4-3.5A4.29 4.29 0 0 1 95.26 9c1.33 0 2.44.48 3.38 1.47a4.91 4.91 0 0 1 1.45 3.49Zm-4.97-7.61c-1.78.06-3.31.69-4.58 1.87V0h-2.6v14.06c-.05 2.13.7 4 2.22 5.54a7 7 0 0 0 5.1 2.23h.3c2-.08 3.72-.88 5.1-2.37a7.69 7.69 0 0 0 2.08-5.36c0-2.14-.76-4-2.26-5.55a6.8 6.8 0 0 0-5.36-2.2Zm15.57 3.19h.1c1.28 0 2.33.47 3.23 1.44a5.2 5.2 0 0 1 1.44 3.5A5.13 5.13 0 0 1 114 18.2a4.19 4.19 0 0 1-3.24 1.47h-.27a4.38 4.38 0 0 1-3.26-1.59 5.06 5.06 0 0 1-1.3-3.59c.02-1.4.49-2.55 1.43-3.51a4.43 4.43 0 0 1 3.31-1.45Zm.2-2.68a6.8 6.8 0 0 0-5.35 2.24 7.7 7.7 0 0 0-2.24 5.54c0 2.07.7 3.88 2.07 5.37a6.95 6.95 0 0 0 5.1 2.33l.28.01c1.94 0 3.64-.74 5.07-2.21a7.69 7.69 0 0 0 2.26-5.52c0-2.06-.7-3.86-2.09-5.37a7.02 7.02 0 0 0-5.1-2.39Zm15.17 2.68h.1c1.27 0 2.33.47 3.23 1.44a5.2 5.2 0 0 1 1.43 3.5 5.13 5.13 0 0 1-1.44 3.73 4.19 4.19 0 0 1-3.24 1.47h-.26a4.38 4.38 0 0 1-3.27-1.59 5.06 5.06 0 0 1-1.3-3.59c.03-1.4.5-2.55 1.43-3.51a4.43 4.43 0 0 1 3.32-1.45Zm.2-2.68a6.81 6.81 0 0 0-5.35 2.24 7.7 7.7 0 0 0-2.24 5.54c0 2.07.7 3.88 2.06 5.37a6.95 6.95 0 0 0 5.1 2.33l.28.01c1.94 0 3.65-.74 5.07-2.21a7.7 7.7 0 0 0 2.27-5.52c0-2.06-.7-3.86-2.1-5.37a7.02 7.02 0 0 0-5.09-2.39Z"/><path d="M137.2 6.9V0h-2.45v6.9h-2.43v2.53h2.43V21.8h2.45V9.43h2.43V6.9h-2.43ZM39.3 27.43h1.32c1.13 0 1.13-1.7 0-1.7H39.3v1.7Zm1.32.84H39.3v1.42h-.89v-4.83h2.21c2.3 0 2.3 3.4 0 3.4Zm14.04-2.4-.87 2.05h1.74l-.87-2.05Zm1.22 2.9h-2.45l-.4.9h-.96l2.1-4.81h.97l2.1 4.82h-.96l-.4-.91Zm11.59-3.06v1.54h1.34c.57 0 .8-.38.8-.77 0-.38-.24-.77-.8-.77h-1.34Zm3.26 3.98h-1.05l-1.36-1.62h-.85v1.62h-.89v-4.83h2.23c1.1.01 1.69.77 1.69 1.6 0 .66-.3 1.33-1.19 1.52l1.42 1.64v.07Zm11-4h-1.49v-.83h3.86v.82H82.6v4h-.88v-4Zm15.18-.83h.89v4.83h-.55l-2.46-3.26v3.26h-.89v-4.83h.72l2.3 3v-3Zm24.34.85v1.54h1.34c.57 0 .8-.38.8-.77 0-.38-.24-.77-.8-.77h-1.34Zm3.26 3.98h-1.05l-1.36-1.62h-.85v1.62h-.89v-4.83h2.23c1.1.01 1.69.77 1.69 1.6 0 .66-.3 1.33-1.19 1.52l1.42 1.64v.07Zm12.67-3.5c-.16-.28-.6-.54-1.1-.54-.66 0-.98.28-.98.64 0 .42.48.54 1.05.6.97.13 1.88.4 1.88 1.54 0 1.08-.92 1.54-1.97 1.54-.95 0-1.69-.3-2.04-1.19l.74-.39c.2.53.75.77 1.32.77.55 0 1.08-.2 1.08-.73 0-.45-.47-.64-1.09-.7-.95-.12-1.84-.39-1.84-1.47 0-1 .95-1.4 1.82-1.4.72 0 1.48.2 1.84.95l-.7.37Zm-26.11 3.49h-3.51v-4.82h3.5v.88h-2.62v1.1h2.53v.86h-2.53v1.08h2.63v.9Z"/><path fill-rule="evenodd" clip-rule="evenodd" d="M15.9.04a14.7 14.7 0 0 0-2.11 0v10.21a6.24 6.24 0 0 0-4.18-1.6 6.3 6.3 0 0 0-6.27 6.02h2.12a4.19 4.19 0 0 1 4.15-3.9 4.15 4.15 0 0 1 3.95 2.88c.17-.85.5-1.66.98-2.38l.08-.11c.3-.44.65-.83 1.04-1.18l.24-.22v-7.6a12.82 12.82 0 0 1 .4 25.52v2.14a14.75 14.75 0 0 0 9.12-4.3 14.85 14.85 0 0 0 4.36-10.58c0-7.9-6.14-14.38-13.88-14.9Z"/><path fill-rule="evenodd" clip-rule="evenodd" d="M9.61 19.13a4.16 4.16 0 0 1-4.15-3.9H3.34a6.3 6.3 0 0 0 6.27 6.03 6.24 6.24 0 0 0 5.67-3.6 6.3 6.3 0 0 0 .6-2.42h.04a4.02 4.02 0 0 1 .35-1.97 4.18 4.18 0 0 1 3.8-2.5 4.16 4.16 0 0 1 4.16 3.9h2.12a6.3 6.3 0 0 0-6.27-6.02 6.22 6.22 0 0 0-5.23 2.82c-.64.95-1 2.06-1.05 3.2h-.03v.57a4.19 4.19 0 0 1-4.16 3.9Z"/><path fill-rule="evenodd" clip-rule="evenodd" d="M26.35 15.24h-2.12a4.19 4.19 0 0 1-4.16 3.9 4.15 4.15 0 0 1-3.94-2.87c-.17.84-.5 1.65-.98 2.37l-.08.11c-.3.44-.65.83-1.04 1.18l-.24.22v7.56A12.73 12.73 0 0 1 2.12 14.94c0-6.56 4.93-11.98 11.26-12.73V.08A14.94 14.94 0 0 0 4.36 25.5a14.77 14.77 0 0 0 11.54 4.34v-10.2a6.24 6.24 0 0 0 4.18 1.6 6.3 6.3 0 0 0 6.27-6.01Z"/></g><defs><clipPath id="a"><path fill="#fff" d="M0 0h140v30H0z"/></clipPath></defs></svg>