<svg width="141" height="36" viewBox="0 0 141 36" fill="none" xmlns="http://www.w3.org/2000/svg">
<path d="M40.11 13.6862H43.5991V20.2209L46.2502 13.6862H49.6613L46.7374 20.912L49.7977 29.6777H46.2502L43.9695 22.6098L43.5991 23.2417V29.6777H40.11V13.6862ZM52.7724 29.8751C52.2266 29.8751 51.7523 29.7435 51.3494 29.4803C50.9596 29.2038 50.6608 28.855 50.4528 28.4339C50.2578 27.9995 50.1604 27.552 50.1604 27.0914C50.1604 26.2096 50.3814 25.4857 50.8232 24.9197C51.265 24.3538 51.7913 23.9128 52.4021 23.597C53.0257 23.2811 53.825 22.952 54.7996 22.6098V21.4648C54.7996 21.1357 54.7476 20.8856 54.6436 20.7146C54.5527 20.5434 54.3838 20.4579 54.1369 20.4579C53.8899 20.4579 53.7145 20.5368 53.6105 20.6948C53.5065 20.8527 53.4481 21.0764 53.4351 21.3661L53.3572 22.1952L50.3943 22.0768C50.4463 20.708 50.8036 19.7011 51.4664 19.0562C52.1292 18.3981 53.1168 18.069 54.4292 18.069C55.5338 18.069 56.3786 18.3849 56.9633 19.0166C57.5481 19.6353 57.8404 20.4645 57.8404 21.5042V26.8347C57.8404 27.9929 57.9055 28.9407 58.0355 29.6777H55.1894C55.0725 28.7958 54.988 28.2562 54.9361 28.0588C54.7801 28.5853 54.5202 29.0196 54.1563 29.3618C53.7925 29.7039 53.3312 29.8751 52.7724 29.8751ZM53.903 27.7034C54.2278 27.7034 54.5268 27.5126 54.7996 27.1308V24.0115C54.2149 24.3538 53.773 24.7157 53.4741 25.0974C53.1752 25.4659 53.0257 25.9199 53.0257 26.4597C53.0257 26.8413 53.1037 27.144 53.2597 27.3678C53.4156 27.5915 53.6301 27.7034 53.903 27.7034ZM59.1817 14.1008H62.3785V16.3317H59.1817V14.1008ZM59.2011 18.2664H62.3785V29.6777H59.2011V18.2664ZM67.2878 29.7962C66.4562 29.7962 65.813 29.6777 65.3581 29.4408C64.9032 29.1907 64.5848 28.8354 64.403 28.3747C64.221 27.914 64.1301 27.3152 64.1301 26.578V20.3789H63.0385V18.2664H64.1301V14.7917H67.3464V18.2664H68.9447V20.3789H67.3464V26.2623C67.3464 26.578 67.4307 26.815 67.5997 26.973C67.7816 27.1178 68.0286 27.1901 68.3405 27.1901C68.6003 27.1901 68.8863 27.1638 69.1981 27.1112V29.6382C68.5744 29.7435 67.9375 29.7962 67.2878 29.7962ZM73.8323 29.8751C72.5978 29.8751 71.6363 29.5461 70.9476 28.888C70.2588 28.2167 69.9144 27.2757 69.9144 26.0648V21.8794C69.9144 20.6685 70.2588 19.734 70.9476 19.0759C71.6363 18.4046 72.5978 18.069 73.8323 18.069C75.0799 18.069 76.0156 18.3915 76.6393 19.0364C77.2631 19.6813 77.5749 20.6289 77.5749 21.8794V24.1695H73.0527V26.361C73.0527 27.177 73.3127 27.5849 73.8323 27.5849C74.3781 27.5849 74.651 27.2165 74.651 26.4793V25.275H77.5749V26.3806C77.5749 27.5258 77.2436 28.3943 76.5808 28.9867C75.9311 29.579 75.015 29.8751 73.8323 29.8751ZM74.651 22.6691V21.524C74.651 21.1028 74.5732 20.8067 74.4171 20.6355C74.2742 20.4513 74.0728 20.3592 73.8129 20.3592C73.566 20.3592 73.3776 20.4579 73.2476 20.6553C73.1176 20.8527 73.0527 21.2015 73.0527 21.7017V22.6691H74.651ZM78.7629 18.2664H81.9402V19.4115C82.8238 18.5165 83.727 18.069 84.6496 18.069C85.3253 18.069 85.8386 18.3191 86.1895 18.8192C86.5533 19.3063 86.7353 19.9446 86.7353 20.7342V29.6777H83.5775V21.1883C83.5775 20.8988 83.5256 20.6882 83.4216 20.5566C83.3306 20.4119 83.1682 20.3394 82.9343 20.3394C82.6745 20.3394 82.343 20.4776 81.9402 20.754V29.6777H78.7629V18.2664Z" fill="black"/>
<path d="M14.0336 9.38672L1.58008 22.0001C1.58008 15.0338 7.1555 9.38672 14.0336 9.38672Z" fill="#EC1C24"/>
<path d="M14.0334 34.6133L26.4869 22C26.4869 28.9661 20.9112 34.6133 14.0334 34.6133Z" fill="#EC1C24"/>
<path d="M1.58008 22L14.0336 34.6133C7.1555 34.6133 1.58008 28.9661 1.58008 22Z" fill="#EC1C24"/>
<path d="M14.0334 9.38672C20.9112 9.38672 26.4869 15.0338 26.4869 22.0001L14.0334 9.38672Z" fill="#EC1C24"/>
<path d="M9.63052 17.5404L9.63031 26.4595C7.19864 23.9967 7.1988 20.0032 9.63052 17.5404Z" fill="#72F4B2"/>
<path d="M18.4365 17.5408C20.8679 20.0033 20.868 23.9967 18.4365 26.4596V17.5408Z" fill="#72F4B2"/>
<path d="M9.63037 26.4596L18.4362 26.4597C16.0047 28.9224 12.062 28.9224 9.63037 26.4596Z" fill="#72F4B2"/>
<path d="M9.63062 17.5405C12.0622 15.0775 16.0046 15.0775 18.4362 17.5405L18.4367 17.5409L9.63062 17.5405Z" fill="#72F4B2"/>
<path d="M16.1993 22.2742C16.1993 20.9116 15.1082 19.8063 13.7627 19.8063C12.4174 19.8063 11.3262 20.9116 11.3262 22.2742C11.3262 23.6368 12.4174 24.742 13.7627 24.742C15.1082 24.742 16.1993 23.6368 16.1993 22.2742Z" fill="#9F57FC"/>
</svg>
