<svg width="538" height="176" viewBox="0 0 538 176" fill="none" xmlns="http://www.w3.org/2000/svg">
<path d="M53.8119 95.9824H36.9952V143.641H17.8135V36.9031H36.9952V79.4482H53.9624L86.2312 36.9031H108.861L70.1774 87.4142L110.548 143.641H87.9183L53.8119 95.9824Z" fill="#060606"/>
<path d="M189.52 126.653C185.898 132.77 180.934 137.524 174.616 140.936C168.297 144.338 161.055 146.05 152.899 146.05C144.646 146.05 137.329 144.349 130.957 140.936C124.584 137.535 119.62 132.77 116.052 126.653C112.485 120.536 110.701 113.478 110.701 105.459V104.857C110.701 96.9439 112.506 89.971 116.128 83.9596C119.749 77.9481 124.746 73.2572 131.118 69.9081C137.49 66.5485 144.754 64.8687 152.91 64.8687C161.066 64.8687 168.297 66.5485 174.626 69.9081C180.945 73.2678 185.92 77.9481 189.53 83.9596C193.152 89.971 194.957 96.9439 194.957 104.857V105.459C194.957 113.478 193.141 120.546 189.52 126.653ZM132.568 118.761C134.503 122.522 137.21 125.427 140.67 127.477C144.131 129.537 148.214 130.562 152.899 130.562C157.584 130.562 161.667 129.505 165.127 127.403C168.587 125.3 171.295 122.395 173.229 118.687C175.164 114.978 176.131 110.573 176.131 105.459V104.857C176.131 99.8493 175.164 95.5176 173.229 91.8516C171.295 88.1961 168.566 85.3647 165.052 83.3574C161.538 81.35 157.487 80.3463 152.899 80.3463C148.311 80.3463 144.259 81.35 140.746 83.3574C137.232 85.3647 134.503 88.1961 132.568 91.8516C130.634 95.5071 129.667 99.8493 129.667 104.857V105.459C129.656 110.573 130.623 114.999 132.568 118.761Z" fill="#060606"/>
<path d="M259.172 143.639V111.321H227.677V143.639H209.022V67.2651H227.677V96.5829H259.172V67.2651H277.676V143.639H259.172Z" fill="#060606"/>
<path d="M334.558 82.1512V143.639H315.904V82.1512H290.061V67.2651H360.551V82.1512H334.558Z" fill="#060606"/>
<path d="M442.661 67.2651L414.218 147.094C411.768 153.613 409.296 158.747 406.803 162.508C404.3 166.27 401.377 168.974 398.014 170.622C394.65 172.27 390.621 173.105 385.936 173.105C383.894 173.105 382.015 173.16 382.015 173.16L376.227 158.071C376.227 158.071 380.076 158.071 384.259 158.071C387.107 158.071 389.428 157.321 391.212 155.821C392.995 154.321 394.704 151.912 396.337 148.605L366.98 67.2757H386.548L393.737 88.3211C395.467 93.0331 397.004 97.5127 398.325 101.781C399.647 106.039 400.926 110.053 402.151 113.804C403.376 117.565 404.439 121.094 405.364 124.401C407.094 118.59 408.931 112.726 410.865 106.81C412.799 100.893 414.787 94.7869 416.829 88.469L424.018 67.2757H442.661V67.2651Z" fill="#060606"/>
<path d="M529.735 126.648C526.629 132.659 522.321 137.35 516.819 140.71C511.317 144.069 504.988 145.749 497.853 145.749C492.147 145.749 487.043 144.872 482.562 143.119C478.07 141.365 474.406 138.681 471.548 135.079V170.704H453.044V67.2726H470.172V78.1017C473.031 73.6961 476.824 70.4315 481.563 68.3291C486.301 66.2267 491.782 65.1702 498.003 65.1702C505.042 65.1702 511.285 66.7972 516.733 70.0512C522.181 73.3052 526.49 77.8904 529.649 83.8068C532.808 89.7232 534.388 96.6855 534.388 104.704V105.454C534.398 113.568 532.84 120.636 529.735 126.648ZM515.744 104.704C515.744 99.8972 514.831 95.6818 512.993 92.0792C511.156 88.4659 508.555 85.6451 505.192 83.5849C501.829 81.5353 497.95 80.4999 493.576 80.4999C489.299 80.4999 485.42 81.5036 481.949 83.511C478.479 85.5183 475.782 88.318 473.847 91.9312C471.913 95.5445 470.946 99.8021 470.946 104.715V105.465C470.946 110.473 471.892 114.836 473.772 118.544C475.653 122.253 478.307 125.105 481.724 127.113C485.141 129.12 489.042 130.124 493.426 130.124C497.81 130.124 501.678 129.099 505.052 127.039C508.416 124.989 511.038 122.105 512.929 118.396C514.809 114.688 515.755 110.378 515.755 105.465V104.704H515.744Z" fill="#060606"/>
<path d="M0 57.031H18.0617L32.1851 36.9031H13.9872L0 57.031Z" fill="#060606"/>
</svg>
