<svg width="140" height="29" viewBox="0 0 140 29" fill="none" xmlns="http://www.w3.org/2000/svg">
<path d="M135.125 5.59004L130.35 10.9769V5.59004H126.895V19.1891H130.35V13.4645L135.461 19.1891H139.924L133.637 12.0636L139.467 5.59004H135.125ZM120.802 10.6627H116.028V5.59081H112.573V19.1891H116.028V13.827H120.802V19.1891H124.258V5.59081H120.802V10.6627ZM20.5141 12.9572C20.4317 15.4932 20.106 16.0007 18.6905 16.0007V19.1891H19.2186C22.7497 19.1891 23.5989 17.3532 23.7293 13.2712L23.8728 8.75433H27.184V19.1891H30.6393V5.59081H20.7542L20.5141 12.957V12.9572ZM38.9624 16.194H36.7315V12.7403H38.9624C40.1619 12.7403 40.8821 13.2712 40.8821 14.4064C40.8821 15.638 40.186 16.194 38.9624 16.194V16.194ZM39.2265 9.72119H36.7315V5.58985H33.276V19.1889H39.2745C43.0411 19.1889 44.3846 16.7255 44.3846 14.4062C44.3846 11.4117 42.5137 9.7208 39.2265 9.7208V9.72119ZM55.638 16.2182V8.5376C57.5569 8.80266 58.7564 10.2519 58.7564 12.3778C58.7564 14.5031 57.5569 15.9523 55.638 16.2182ZM52.1827 16.2182C50.2631 15.9523 49.0634 14.5031 49.0634 12.3778C49.0634 10.2519 50.2631 8.80266 52.1827 8.5376V16.2182ZM55.638 5.27665V0.228133H52.1827V5.27665C48.224 5.61421 45.5609 8.44093 45.5609 12.3778C45.5609 16.339 48.224 19.1649 52.1827 19.5033V24.6243H55.638V19.5033C59.5966 19.1891 62.2597 16.339 62.2597 12.3778C62.2597 8.41677 59.5966 5.59004 55.638 5.27665ZM71.7614 14.1164C71.7614 15.6863 70.6572 16.5807 69.2176 16.5807C67.9701 16.5807 66.9866 16.1215 66.9866 14.7689C66.9866 13.4403 68.0661 13.2228 69.0016 13.2228H71.7614V14.1164ZM75.2159 15.0106V10.4452C75.2159 7.11254 73.105 5.01081 69.5537 5.01081C65.883 5.01081 63.9393 7.2326 63.7713 9.55183H67.2747C67.394 9.04433 67.9221 8.17529 69.5537 8.17529C70.8972 8.17529 71.7614 8.80266 71.7614 10.4452H68.3302C65.2588 10.4452 63.4352 12.0636 63.4352 14.7689C63.4352 17.5949 65.4299 19.5274 68.3062 19.5274C70.4148 19.5274 71.5859 18.5237 72.0967 17.764C72.5528 18.6816 73.5603 19.1889 74.8798 19.1889H76.0793V16.0492C75.456 16.0492 75.2159 15.7592 75.2159 15.0108V15.0106ZM89.8518 15.759H86.1572V10.8319H89.8518C91.7714 10.8319 92.8509 11.7253 92.8509 13.2953C92.8509 14.9139 91.7714 15.759 89.8518 15.759ZM90.0198 7.5226H86.1572V3.68242H95.1059V0.228133H82.5339V19.1891H90.0198C94.1705 19.1891 96.5457 17.1115 96.5457 13.2953C96.5457 9.69683 94.1705 7.5226 90.0198 7.5226ZM106.311 14.1164C106.311 15.6863 105.207 16.5807 103.767 16.5807C102.52 16.5807 101.536 16.1215 101.536 14.7689C101.536 13.4403 102.616 13.2228 103.551 13.2228H106.311V14.1164ZM109.766 15.0106V10.4452C109.766 7.11254 107.655 5.01081 104.104 5.01081C100.433 5.01081 98.4893 7.2326 98.3213 9.55183H101.825C101.944 9.04433 102.472 8.17529 104.104 8.17529C105.447 8.17529 106.311 8.80266 106.311 10.4452H102.88C99.8089 10.4452 97.9852 12.0636 97.9852 14.7689C97.9852 17.5949 99.9798 19.5274 102.856 19.5274C104.965 19.5274 106.136 18.5237 106.647 17.764C107.103 18.6816 108.11 19.1889 109.43 19.1889H110.63V16.0492C110.006 16.0492 109.766 15.7592 109.766 15.0108V15.0106ZM18.4746 28.8506H0V24.986H18.4746V28.8506ZM6.59767 12.0153L9.18968 4.26165H9.28494L11.7327 12.0153H6.59767ZM12.5952 2.83059C12.069 1.24893 11.4621 0 9.38115 0C7.30074 0 6.65471 1.24391 6.10047 2.8304L0.384088 19.1893H4.17465L5.49438 15.3004H12.7882L14.0119 19.1889H18.0425L12.5954 2.8304L12.5952 2.83059Z" fill="#4D4D4D"/>
</svg>
