<?xml version="1.0" encoding="utf-8"?>
<!-- Generator: Adobe Illustrator 24.0.2, SVG Export Plug-In . SVG Version: 6.00 Build 0)  -->
<!DOCTYPE svg PUBLIC "-//W3C//DTD SVG 1.1//EN" "http://www.w3.org/Graphics/SVG/1.1/DTD/svg11.dtd" [
	<!ENTITY ns_extend "http://ns.adobe.com/Extensibility/1.0/">
	<!ENTITY ns_ai "http://ns.adobe.com/AdobeIllustrator/10.0/">
	<!ENTITY ns_graphs "http://ns.adobe.com/Graphs/1.0/">
	<!ENTITY ns_vars "http://ns.adobe.com/Variables/1.0/">
	<!ENTITY ns_imrep "http://ns.adobe.com/ImageReplacement/1.0/">
	<!ENTITY ns_sfw "http://ns.adobe.com/SaveForWeb/1.0/">
	<!ENTITY ns_custom "http://ns.adobe.com/GenericCustomNamespace/1.0/">
	<!ENTITY ns_adobe_xpath "http://ns.adobe.com/XPath/1.0/">
]>
<svg version="1.1" id="Слой_1" xmlns:x="&ns_extend;" xmlns:i="&ns_ai;" xmlns:graph="&ns_graphs;"
	 xmlns="http://www.w3.org/2000/svg" xmlns:xlink="http://www.w3.org/1999/xlink" x="0px" y="0px" viewBox="0 0 261.8 93"
	 style="enable-background:new 0 0 261.8 93;" xml:space="preserve">
<style type="text/css">
	.ct0{fill:#00BEF0;}
</style>
<metadata>
	<sfw  xmlns="&ns_sfw;">
		<slices></slices>
		<sliceSourceBounds  bottomLeftOrigin="true" height="58" width="223.6" x="-124.9" y="-579"></sliceSourceBounds>
	</sfw>
</metadata>
<g>
	<g>
		<path d="M77.9,76.4h-3.4v-10h5.9v1h-4.7v3.2h2.2c2,0,3.3,0.8,3.3,2.8v0.1C81.2,75.4,79.9,76.4,77.9,76.4z M77.9,75.5
			c1.5,0,2.1-0.7,2.1-1.9v-0.1c0-1.2-0.7-1.9-2.2-1.9h-2.1v3.9H77.9z"/>
		<path d="M82.3,74.4c0-1.7,1.8-2.3,3.7-2.3h1.1v-0.5c0-1.2-0.4-1.7-1.6-1.7c-1,0-1.6,0.4-1.7,1.3h-1.2c0.2-1.7,1.5-2.3,2.9-2.3
			c1.4,0,2.7,0.6,2.7,2.6v4.8h-1.2v-0.9c-0.5,0.7-1.2,1.1-2.3,1.1C83.4,76.5,82.3,75.9,82.3,74.4z M87.1,73.9v-0.9h-1
			c-1.5,0-2.5,0.4-2.5,1.4c0,0.8,0.4,1.2,1.4,1.2C86.1,75.6,87.1,75,87.1,73.9z"/>
		<path d="M94.9,73.2h-3.6v3.3h-1.2v-7.3h1.2v3.1h3.6v-3.1h1.2v7.3h-1.2V73.2z"/>
		<path d="M99.3,72.7v3.7h-1.2v-7.3h1.2v3.4l3-3.4h1.4l-3.1,3.4l3.4,3.9h-1.4L99.3,72.7z"/>
	</g>
</g>
<g>
	<g>
		<path class="ct0" d="M40.8,18.5c-12,0-21.7,9.7-21.7,21.7c0,12,9.7,21.7,21.7,21.7c12,0,21.7-9.7,21.7-21.7
			C62.4,28.2,52.7,18.5,40.8,18.5z M37.7,49.4l-1.6,4.7c-6-2-10-7.7-10-14.1c0-6.4,4-12,10.1-14.1l1.6,4.7c-4,1.3-6.6,5.1-6.6,9.3
			C31.1,44.4,33.7,48.1,37.7,49.4z M45.1,54.3l-1.5-4.8c4.1-1.3,6.8-5.1,6.8-9.4c0-4.3-2.7-8-6.7-9.3l1.6-4.8
			c6.1,2,10.2,7.7,10.2,14.1C55.5,46.6,51.3,52.3,45.1,54.3z"/>
	</g>
	<path d="M239.4,44.1l2.4,2.9c-2.5,2.6-5.6,3.3-8.1,3.3c-2.4,0-4.1-0.4-5.6-1.1c-3.2-1.6-4.8-4.8-4.8-8.7c0-5.9,4-10.3,9.9-10.3
		c6.6,0,9.8,4.9,9.3,11.3l-15,0c0.1,1.6,1,3.1,2.3,3.9c1.1,0.7,2.4,1,4.1,1C235.8,46.4,237.7,45.8,239.4,44.1z M227.7,38h10.6
		c-0.3-2.3-2.2-4.3-5.2-4.3C229.9,33.8,228,35.9,227.7,38z M126.9,49.8h5.4l-8.5-9.9l8.4-9.3h-5.3l-6.4,7.4h-1.9v-7.4h-4.1v19.1h4.1
		v-7.6h1.9L126.9,49.8z M144.6,34.1c-3.5,0-5.8,2.7-5.8,6.1c0,3.4,2.3,6.1,5.8,6.1c3.5,0,5.7-2.6,5.7-6.1
		C150.3,36.8,148.2,34.1,144.6,34.1z M145.3,30.2c5.4,0,9.4,4.2,9.4,10c0,5.7-3.9,10.1-9.4,10.1c-2.6,0-4.7-0.9-6.2-2.5v10h-4.2
		V30.6h4.1v2.3C140.6,31,142.6,30.2,145.3,30.2z M199.7,30.6h-17.1v3.8h6.5v15.3h4.2V34.5h6.5V30.6z M111.6,30.6H94.5v3.8h6.5v15.3
		h4.2V34.5h6.5V30.6z M89.4,40.2c0-3.6-2.5-6.2-6-6.2c-3.4,0-6,2.6-6,6.2c0,3.6,2.5,6.2,6,6.2C86.8,46.4,89.4,43.8,89.4,40.2z
		 M73.2,40.2c0-5.7,4.4-10,10.3-10c5.8,0,10.3,4.3,10.3,10c0,5.7-4.4,10.1-10.3,10.1C77.6,50.3,73.2,45.9,73.2,40.2z M220,30.6v19.1
		h-4.1V37.4l-10,12.3h-3.3V30.6h4.1V43l10-12.3H220z M179.8,49.8h-4.1V30.6h4.1V49.8z M169.1,43.2c0-1.7-1.2-2.9-2.8-2.9h-4.2v5.9
		h4.2C167.9,46.2,169.1,45,169.1,43.2z M173.3,43.2c0,3.8-2.8,6.5-6.8,6.5H158V30.6h4.1v6.2h4.7C170.8,36.8,173.3,39.4,173.3,43.2z"
		/>
</g>
</svg>
