<svg width="722" height="200" viewBox="0 0 722 200" fill="none" xmlns="http://www.w3.org/2000/svg">
<path fill-rule="evenodd" clip-rule="evenodd" d="M64.1063 196.5C79.7063 166.5 89.1063 120.5 92.1063 82.9998C71.1063 86.4998 61.3563 88.4998 51.1063 92.7498C41.5063 110.75 33.4397 109.833 30.1063 107.5C1.10633 88.9998 35.3563 77.9998 47.6063 77.9998C52.8063 58.3999 67.4397 27.8332 74.1063 14.9999C77.1921 8.75054 79.9964 3.7994 82.5462 0H51.2498V51.2498L4.26186e-06 51.2498L0 148.75H51.2498V200H62.3939C62.9264 198.84 63.4968 197.672 64.1063 196.5ZM85.9878 200H148.75V148.75H200V74.3772C167.357 72.7993 134.972 76.3252 110.93 78.9428C109.975 79.0467 109.034 79.1492 108.106 79.2498C108.106 79.2498 109.106 126 87.1063 196.5C86.733 197.696 86.3601 198.863 85.9878 200ZM200 65.0836V51.2498L148.75 51.2498V0H102.563C107.039 14.1752 108.298 40.8321 109.106 64.9998C141.356 61.9998 172.356 62.5432 199.106 64.9998C199.404 65.0272 199.702 65.0551 200 65.0836ZM56.3567 75.5003C62.94 73.5003 79.3067 69.2002 92.1067 68.0003C94.0233 29.4169 89.5566 -23.0997 56.3567 75.5003ZM42.1064 95.9999C40.273 96.3333 35.4564 97.5999 30.8564 99.9999C33.273 102.5 38.9064 105.2 42.1064 95.9999Z" fill="#818B9D"/>
<path d="M289.031 137H270.375V83.6094H251.484V137H232.875V68.4688H289.031V137Z" fill="#374351"/>
<path d="M363.75 137H342.797L322.453 102.266V137H303.844V68.4688H322.453V101.656L342.047 68.4688H362.391L341.25 101.188L363.75 137Z" fill="#374351"/>
<path d="M445.125 84.5C445.125 93.5312 439.75 98.9688 429 100.812V101.188C435.188 101.719 439.859 103.375 443.016 106.156C446.172 108.938 447.75 112.688 447.75 117.406C447.75 121.531 446.594 125.156 444.281 128.281C442 131.375 438.688 133.766 434.344 135.453C430 137.109 424.859 137.938 418.922 137.938C408.016 137.938 399.312 136.703 392.812 134.234V118.297C395.469 119.641 398.844 120.734 402.938 121.578C407.062 122.391 410.797 122.797 414.141 122.797C419.422 122.797 423.172 122.25 425.391 121.156C427.609 120.062 428.719 118.234 428.719 115.672C428.719 111.078 423.469 108.781 412.969 108.781H404.906V93.7812H412.125C415.75 93.7812 418.578 93.6094 420.609 93.2656C422.672 92.8906 424.172 92.2969 425.109 91.4844C426.047 90.6719 426.516 89.4531 426.516 87.8281C426.516 84.3906 423.219 82.6719 416.625 82.6719C410.406 82.6719 404.938 84.2656 400.219 87.4531L392.438 74.7031C396.531 72.0781 400.688 70.2188 404.906 69.125C409.125 68.0312 414.219 67.4844 420.188 67.4844C427.719 67.4844 433.75 69.0469 438.281 72.1719C442.844 75.2969 445.125 79.4062 445.125 84.5Z" fill="#374351"/>
<path d="M528.656 158.328H510.609V137H470.672V158.328H452.625V121.812H458.297C462.391 114.875 465.766 106.859 468.422 97.7656C471.078 88.6406 472.797 78.875 473.578 68.4688H519.281V121.812H528.656V158.328ZM500.625 121.812V83.6094H488.438C487.156 96.9844 483.641 109.719 477.891 121.812H500.625Z" fill="#374351"/>
<path d="M587.578 90.2656C587.578 97.9219 585.312 103.844 580.781 108.031C576.281 112.188 569.875 114.266 561.562 114.266H556.359V137H537.844V68.4688H561.562C570.219 68.4688 576.719 70.3594 581.062 74.1406C585.406 77.9219 587.578 83.2969 587.578 90.2656ZM556.359 99.1719H559.734C562.516 99.1719 564.719 98.3906 566.344 96.8281C568 95.2656 568.828 93.1094 568.828 90.3594C568.828 85.7344 566.266 83.4219 561.141 83.4219H556.359V99.1719Z" fill="#374351"/>
<path d="M640.547 137L637.172 124.156H614.906L611.438 137H591.094L613.453 68.1875H638.156L660.797 137H640.547ZM633.328 108.969L630.375 97.7188C629.688 95.2188 628.844 91.9844 627.844 88.0156C626.875 84.0469 626.234 81.2031 625.922 79.4844C625.641 81.0781 625.078 83.7031 624.234 87.3594C623.422 91.0156 621.594 98.2188 618.75 108.969H633.328Z" fill="#374351"/>
<path d="M668.25 68.4688H692.156C701.469 68.4688 708.375 69.8594 712.875 72.6406C717.406 75.3906 719.672 79.6875 719.672 85.5312C719.672 89.375 718.688 92.6562 716.719 95.375C714.75 98.0938 712.156 99.8438 708.938 100.625V101.094C713.188 102.219 716.266 104.094 718.172 106.719C720.078 109.344 721.031 112.75 721.031 116.938C721.031 123.156 718.688 128.062 714 131.656C709.344 135.219 702.984 137 694.922 137H668.25V68.4688ZM686.766 94.7656H692.344C695 94.7656 697.047 94.2188 698.484 93.125C699.953 92.0312 700.688 90.4062 700.688 88.25C700.688 84.4062 697.781 82.4844 691.969 82.4844H686.766V94.7656ZM686.766 108.312V122.703H693.281C699.062 122.703 701.953 120.266 701.953 115.391C701.953 113.109 701.172 111.359 699.609 110.141C698.078 108.922 695.844 108.312 692.906 108.312H686.766Z" fill="#374351"/>
</svg>
