<?xml version="1.0" encoding="UTF-8" standalone="no"?>
<svg
   xmlns:dc="http://purl.org/dc/elements/1.1/"
   xmlns:cc="http://creativecommons.org/ns#"
   xmlns:rdf="http://www.w3.org/1999/02/22-rdf-syntax-ns#"
   xmlns:svg="http://www.w3.org/2000/svg"
   xmlns="http://www.w3.org/2000/svg"
   xmlns:sodipodi="http://sodipodi.sourceforge.net/DTD/sodipodi-0.dtd"
   xmlns:inkscape="http://www.inkscape.org/namespaces/inkscape"
   version="1.1"
   id="svg2"
   xml:space="preserve"
   width="524.73334"
   height="256.30667"
   viewBox="0 0 524.73334 256.30667"
   sodipodi:docname="qiwi_logo_rgb_small.eps"><metadata
     id="metadata8"><rdf:RDF><cc:Work
         rdf:about=""><dc:format>image/svg+xml</dc:format><dc:type
           rdf:resource="http://purl.org/dc/dcmitype/StillImage" /></cc:Work></rdf:RDF></metadata><defs
     id="defs6" /><sodipodi:namedview
     pagecolor="#ffffff"
     bordercolor="#666666"
     borderopacity="1"
     objecttolerance="10"
     gridtolerance="10"
     guidetolerance="10"
     inkscape:pageopacity="0"
     inkscape:pageshadow="2"
     inkscape:window-width="640"
     inkscape:window-height="480"
     id="namedview4" /><g
     id="g10"
     inkscape:groupmode="layer"
     inkscape:label="ink_ext_XXXXXX"
     transform="matrix(1.3333333,0,0,-1.3333333,0,256.30667)"><g
       id="g12"
       transform="scale(0.1)"><path
         d="m 1182.82,479.23 c 92.1,0 192.02,-31.57 302.62,-129.57 11.08,-9.82 25.83,2.379 16.17,14.57 -108.69,137.231 -209.22,163.372 -309.48,185.461 -122.63,27.02 -185.71,96.02 -229.669,171.778 -8.75,15.082 -12.668,12.422 -13.457,-6.949 -0.961,-23.7 0.672,-55.059 5.976,-85.911 v 0 c -4.949,-0.23 -9.929,-0.16 -14.929,-0.16 -175.442,0 -317.66,142.223 -317.66,317.656 0,175.445 142.218,317.665 317.66,317.665 175.439,0 317.669,-142.22 317.669,-317.665 0,-12.476 -0.61,-24.816 -2.01,-36.925 -23.21,4.179 -68.86,4.648 -100.89,1.879 -12.05,-1.039 -10.36,-6.649 -1.25,-8.297 105.01,-18.973 177.16,-84.051 193.65,-202.141 0.38,-2.723 3.93,-3.531 5.34,-1.18 43.21,72.098 68.03,156.489 68.03,246.664 0,265.395 -215.14,480.545 -480.539,480.545 -265.395,0 -480.539,-215.15 -480.539,-480.545 0,-265.394 215.144,-480.566 480.539,-480.566 70.409,0 140.259,13.691 242.769,13.691 z m 35.77,174.481 c 21.38,-18.082 27.89,-39.57 16.58,-54.731 -6.29,-8.308 -16.48,-12.89 -28.7,-12.89 -12,0 -24.22,4.441 -32.7,11.84 -19.44,16.992 -25.15,44.531 -12.46,60.179 4.96,6.121 13.02,9.493 22.68,9.493 11.73,0 24.02,-4.942 34.6,-13.891 z m 98.65,45.898 c 3.14,-21.058 -3.52,-29.781 -10.2,-29.781 -7.29,0 -16.44,8.543 -27.24,25.383 -10.65,16.629 -14.55,35.711 -9.27,45.348 3.49,6.382 10.79,9.152 20,5.671 17.83,-6.742 24.83,-34.039 26.71,-46.621 z m 666.12,110.051 -55.4,66.629 c -5.8,6.992 -0.83,17.582 8.25,17.582 h 115.9 c 5.52,16.43 8.64,33.984 8.64,52.211 0,83.468 -62.13,155.438 -147.4,155.438 -85.27,0 -147.4,-71.97 -147.4,-155.438 0,-83.473 62.13,-154.422 147.4,-154.422 25.84,0 49.51,6.602 70.01,18 z m 250.67,-112.609 c 6.02,-6.66 1.08,-17.379 -7.99,-17.379 h -126.48 c -5.14,0 -10.03,2.289 -13.32,6.25 l -21.44,25.777 c -43.66,-28.308 -95.65,-44.828 -151.45,-44.828 -153.96,0 -279.21,125.25 -279.21,279.211 0,153.958 125.25,279.218 279.21,279.218 153.96,0 279.21,-125.26 279.21,-279.218 0,-55.504 -16.34,-107.223 -44.37,-150.73 z m 1168.38,515.399 h -103.22 c -7.58,0 -13.73,-6.15 -13.73,-13.74 V 693.449 c 0,-7.578 6.15,-13.73 13.73,-13.73 h 103.22 c 7.58,0 13.73,6.152 13.73,13.73 v 505.261 c 0,7.59 -6.15,13.74 -13.73,13.74 z m -173.69,0 h -115.49 c -6.04,0 -11.37,-3.91 -13.13,-9.65 l -91.39,-298.589 -100.44,298.919 c -1.87,5.57 -7.11,9.32 -13.02,9.32 h -80.59 c -5.91,0 -11.16,-3.75 -13.03,-9.32 L 2701.19,904.211 2609.8,1202.8 c -1.76,5.74 -7.09,9.65 -13.13,9.65 h -115.49 c -4.41,0 -8.56,-2.11 -11.14,-5.66 -2.58,-3.56 -3.28,-8.12 -1.88,-12.27 l 169.62,-505.54 c 1.87,-5.558 7.12,-9.308 13.03,-9.308 h 91.66 c 5.91,0 11.15,3.75 13.03,9.297 l 99.45,295.351 99.45,-295.351 c 1.88,-5.547 7.12,-9.297 13.03,-9.297 h 91.66 c 5.91,0 11.16,3.75 13.03,9.308 l 169.62,505.54 c 1.4,4.15 0.7,8.71 -1.88,12.27 -2.58,3.55 -6.73,5.66 -11.14,5.66 z m -804.28,-13.74 V 693.449 c 0,-7.578 -6.15,-13.73 -13.73,-13.73 h -103.22 c -7.58,0 -13.73,6.152 -13.73,13.73 v 505.261 c 0,7.59 6.15,13.74 13.73,13.74 h 103.22 c 7.58,0 13.73,-6.15 13.73,-13.74"
         style="fill:#f57d14;fill-opacity:1;fill-rule:nonzero;stroke:none"
         id="path14" /></g></g></svg>
