<svg width="141" height="36" viewBox="0 0 141 36" fill="none" xmlns="http://www.w3.org/2000/svg">
<g clip-path="url(#clip0_103_9)">
<path d="M90.7076 23.3339L94.7079 27.8171H92.1096L89.0161 24.3603V27.8171H86.8633V19.4555H89.0173V22.4908L92.0592 19.4555H94.6065L90.7076 23.3339ZM26.2624 21.7148C27.8349 21.7148 28.5529 20.9729 28.5529 19.8597C28.5529 18.7466 27.8349 18.0053 26.2624 18.0053H23.1518V21.7148H26.2624ZM26.331 16.0155C29.0312 16.0155 30.8089 17.3813 30.8089 19.8597C30.8089 22.3381 29.0312 23.7045 26.331 23.7045H23.1518V27.8171H20.8953V16.0155H26.331ZM35.9017 26.0656C37.1666 26.0656 38.3459 25.1721 38.3459 23.6369C38.3459 22.1016 37.1666 21.2082 35.9017 21.2082C34.6369 21.2082 33.4576 22.1016 33.4576 23.6369C33.4576 25.1721 34.6369 26.0656 35.9017 26.0656ZM35.9017 19.219C38.2263 19.219 40.5321 20.7034 40.5321 23.6375C40.5321 26.5715 38.2245 28.0553 35.9017 28.0553C33.5789 28.0553 31.2714 26.5715 31.2714 23.6375C31.2714 20.7034 33.5789 19.219 35.9017 19.219ZM46.0323 26.0656C44.7334 26.0656 43.7763 25.1403 43.7763 23.6369C43.7763 22.1525 44.7674 21.2082 46.0323 21.2082C46.8013 21.2082 47.4683 21.5621 47.9981 22.3543L49.8438 21.3088C49.2284 20.0107 47.8955 19.2179 46.0493 19.2179C43.6391 19.2179 41.5883 20.9717 41.5883 23.6363C41.5883 26.3009 43.5366 28.0542 46.0493 28.0542C47.861 28.0542 49.0748 27.2446 49.9294 25.8117L48.1517 24.8506C47.6388 25.5584 47.092 26.065 46.0323 26.065M68.9631 24.1932C68.8611 25.4746 68.6038 25.7614 68.1595 25.7614C67.9383 25.7656 67.7177 25.7364 67.5054 25.6747L67.5166 27.8391C67.5166 27.8391 67.7838 27.92 68.2785 27.92C70.1072 27.92 70.7912 26.7566 70.9618 24.277L71.1669 21.3597H73.594V27.8015H75.748V19.4555H69.3224L68.9631 24.1932ZM64.9915 22.5237C64.7858 21.4783 63.9828 20.8376 62.7866 20.8376C61.6583 20.8376 60.8037 21.5795 60.496 22.5237H64.9915ZM62.8545 19.2184C65.2817 19.2184 66.9908 20.9532 66.9908 23.401V24.1429H60.4614C60.5986 25.4243 61.5217 26.2338 62.7866 26.2338C63.9312 26.2338 64.4101 25.7446 64.94 25.0871L66.6491 25.9302C65.7945 27.3637 64.6153 28.0547 62.752 28.0547C60.3934 28.0547 58.3936 26.2841 58.3936 23.6369C58.3936 20.9896 60.3934 19.2184 62.8545 19.2184ZM83.5523 22.5237C83.3471 21.4783 82.5441 20.8376 81.3473 20.8376C80.2196 20.8376 79.365 21.5795 79.0567 22.5237H83.5523ZM81.4158 19.2184C83.843 19.2184 85.5521 20.9532 85.5521 23.401V24.1429H79.0227C79.1593 25.4243 80.0824 26.2338 81.3473 26.2338C82.4925 26.2338 82.9714 25.7446 83.5013 25.0871L85.2104 25.9302C84.3558 27.3637 83.1766 28.0547 81.3133 28.0547C78.9547 28.0547 76.9549 26.2841 76.9549 23.6369C76.9549 20.9896 78.9547 19.2184 81.4158 19.2184ZM50.5993 21.31H53.129V27.8171H55.2824V21.31H57.8121V19.4555H50.5993V21.31ZM98.9837 26.0656C100.249 26.0656 101.428 25.1721 101.428 23.6369C101.428 22.1016 100.249 21.2082 98.9837 21.2082C97.7188 21.2082 96.539 22.1016 96.539 23.6369C96.539 25.1721 97.7188 26.0656 98.9837 26.0656ZM98.9837 19.219C101.308 19.219 103.614 20.7034 103.614 23.6375C103.614 26.5715 101.306 28.0553 98.9837 28.0553C96.6609 28.0553 94.3533 26.5715 94.3533 23.6375C94.3533 20.7034 96.6609 19.219 98.9837 19.219ZM112.184 19.4538L109.846 25.3115L107.509 19.4538H104.695V27.8026H106.742V22.5174L109.012 27.8026H110.683L112.953 22.5174V27.8026H115V19.4538H112.184Z" fill="#101828"/>
<path d="M25.2033 30.3695V31.1501H23.4771V35.8918H22.6138V31.1501H20.8953V30.3695H25.2033ZM25.3146 33.4684C25.4506 32.9242 25.9136 32.5067 26.5214 32.5067C27.1293 32.5067 27.6087 32.8537 27.6726 33.4684H25.3152M26.522 35.298C25.8263 35.298 25.3551 34.8012 25.2988 34.1073H28.4639V33.8234C28.4639 32.6802 27.696 31.8683 26.5455 31.8683C25.4102 31.8683 24.4993 32.7114 24.4993 33.9339C24.4993 35.1563 25.4102 36 26.5056 36C27.3848 36 27.9281 35.6368 28.2956 35.0221L27.6509 34.6833C27.3948 35.0302 27.1392 35.298 26.5238 35.298M31.0059 31.9805L30.2439 33.1711L29.4872 31.9805H28.5494L29.7961 33.8176L28.3519 35.8895H29.3114L30.2462 34.4439L31.1735 35.8895H32.1248L30.7339 33.7922L31.9489 31.9805H31.0059ZM35.0735 31.9805V33.5025H33.2273V31.9805H32.4067V35.8895H33.2273V34.2097H35.0735V35.8895H35.8941V31.9805H35.0735ZM39.8522 33.9362C39.8522 34.7405 39.2608 35.2529 38.5739 35.2529C37.8869 35.2529 37.2844 34.7405 37.2844 33.9362C37.2844 33.1318 37.8758 32.6195 38.5739 32.6195C39.2719 32.6195 39.8522 33.1318 39.8522 33.9362ZM38.5739 36.0023C39.6529 36.0023 40.6915 35.2847 40.6915 33.9362C40.6915 32.5877 39.6529 31.8707 38.5739 31.8707C37.4948 31.8707 36.4474 32.5877 36.4474 33.9362C36.4474 35.2847 37.4866 36.0023 38.5739 36.0023ZM40.7871 35.8918C40.8928 35.927 41.0032 35.9465 41.1147 35.9497C41.906 35.9497 42.1938 35.4605 42.25 34.341L42.3379 32.7161H43.7446V35.8965H44.5652V31.9805H41.6182L41.4904 34.3068C41.4423 35.0615 41.3216 35.2187 41.0672 35.2187C40.9716 35.2213 40.8764 35.2052 40.7871 35.1713V35.8895M48.5239 33.9339C48.5239 34.7382 47.9325 35.2505 47.2449 35.2505C46.5574 35.2505 45.9555 34.7382 45.9555 33.9339C45.9555 33.1295 46.5469 32.6172 47.2449 32.6172C47.943 32.6172 48.5239 33.1295 48.5239 33.9339ZM47.2449 36C48.324 36 49.3632 35.2823 49.3632 33.9339C49.3632 32.5854 48.324 31.8683 47.2449 31.8683C46.1659 31.8683 45.1185 32.5854 45.1185 33.9339C45.1185 35.2823 46.1577 36 47.2449 36ZM49.9141 31.9805V35.8895H50.7347V32.7091H52.4931V31.9805H49.9141ZM55.7244 31.9805L53.83 34.8036V31.9805H53.0388V35.8895H53.9097L55.8041 33.0665V35.8895H56.5954V31.9805H55.7244ZM60.0242 31.9805L58.1298 34.8036V31.9805H57.3386V35.8895H58.2095L60.1039 33.0665V35.8895H60.8981V31.9805H60.0242ZM64.4588 35.2529V34.1704H65.4423C65.8655 34.1704 66.0817 34.3756 66.0817 34.7064C66.0817 35.0372 65.8655 35.2505 65.4423 35.2505L64.4588 35.2529ZM64.4588 33.5418V32.6166H65.3966C65.7558 32.6166 65.9827 32.7583 65.9827 33.074C65.9827 33.3897 65.7588 33.5366 65.3913 33.5366L64.4588 33.5418ZM63.644 35.8918H65.4903C66.3214 35.8918 66.9052 35.4292 66.9052 34.7642C66.9052 34.2594 66.577 33.9547 66.1614 33.8257C66.5213 33.6679 66.761 33.4001 66.761 32.9508C66.761 32.4142 66.2921 31.9805 65.4423 31.9805H63.644V35.8918ZM70.5814 33.9362C70.5814 34.7405 69.99 35.2529 69.3025 35.2529C68.6149 35.2529 68.013 34.7405 68.013 33.9362C68.013 33.1318 68.6044 32.6195 69.3025 32.6195C70.0005 32.6195 70.5814 33.1318 70.5814 33.9362ZM69.3025 36.0023C70.3815 36.0023 71.4201 35.2847 71.4201 33.9362C71.4201 32.5877 70.3815 31.8707 69.3025 31.8707C68.2234 31.8707 67.176 32.5877 67.176 33.9362C67.176 35.2847 68.2152 36.0023 69.3025 36.0023ZM75.0236 34.7561C75.0236 34.2594 74.6801 33.9599 74.1925 33.8257C74.6157 33.6679 74.8636 33.3683 74.8636 32.919C74.8636 32.3275 74.4164 31.8707 73.417 31.8707C72.4658 31.8707 71.906 32.3512 71.906 32.9664C71.9052 33.0961 71.9297 33.2247 71.9781 33.3452L72.6815 33.1139C72.6654 33.0602 72.6573 33.0045 72.6574 32.9485C72.6574 32.7114 72.9376 32.5148 73.4088 32.5148C73.8566 32.5148 74.0887 32.7039 74.0887 32.9959C74.0887 33.288 73.8725 33.5239 73.3854 33.5239H73.0654V34.1779H73.4006C73.9205 34.1779 74.2159 34.3832 74.2159 34.7301C74.2159 35.0927 73.9123 35.3529 73.3532 35.3529C72.9376 35.3529 72.5461 35.1557 72.5461 34.7694C72.5446 34.699 72.5582 34.6291 72.5859 34.5642L71.8902 34.3357C71.8292 34.4754 71.7968 34.6255 71.7947 34.7775C71.7947 35.479 72.3614 35.9994 73.3532 35.9994C74.4404 35.9994 75.0236 35.4552 75.0236 34.7532M79.0034 31.9776L77.837 34.951L76.6712 31.9805H75.5511V35.8895H76.3424V33.1139L77.4941 35.8895H78.1887L79.3322 33.122V35.8895H80.1317V31.9805L79.0034 31.9776ZM84.0862 33.9333C84.0862 34.7376 83.4948 35.25 82.8073 35.25C82.1198 35.25 81.5178 34.7376 81.5178 33.9333C81.5178 33.1289 82.1157 32.6166 82.8085 32.6166C83.5013 32.6166 84.0874 33.1289 84.0874 33.9333M82.8085 35.9994C83.8875 35.9994 84.9267 35.2818 84.9267 33.9333C84.9267 32.5848 83.8875 31.8678 82.8085 31.8678C81.7294 31.8678 80.6826 32.5848 80.6826 33.9333C80.6826 35.2818 81.7212 35.9994 82.8085 35.9994ZM89.57 31.9805L88.3075 33.495V31.9805H87.484V33.5025L86.2185 31.9805H85.1576L86.7888 33.8176L85.1342 35.8895H86.1306L87.4787 34.1623V35.8895H88.3022V34.1779L89.6503 35.8889H90.6467L88.9921 33.8147L90.6332 31.9805H89.57ZM93.7496 31.9805V33.5025H91.9039V31.9805H91.0833V35.8895H91.9039V34.2097H93.7502V35.8895H94.5708V31.9805H93.7496ZM98.5271 33.9339C98.5271 34.7382 97.9357 35.2505 97.2487 35.2505C96.553 35.2505 95.9593 34.7382 95.9593 33.9339C95.9593 33.1295 96.5507 32.6172 97.2487 32.6172C97.9357 32.6172 98.5271 33.1295 98.5271 33.9339ZM97.2487 36C98.3272 36 99.3664 35.2823 99.3664 33.9339C99.3664 32.5854 98.3272 31.8683 97.2487 31.8683C96.1615 31.8683 95.1223 32.5854 95.1223 33.9339C95.1223 35.2823 96.1615 36 97.2487 36ZM101.748 36C102.579 36 103.139 35.6137 103.514 34.9828L102.851 34.6122C102.595 34.9828 102.299 35.243 101.748 35.243C101.044 35.243 100.533 34.7382 100.533 33.9339C100.533 33.1295 101.069 32.6247 101.748 32.6247C102.172 32.6247 102.539 32.8219 102.803 33.2481L103.49 32.8537C103.203 32.2384 102.603 31.8707 101.747 31.8707C100.634 31.8707 99.6853 32.7062 99.6853 33.9362C99.6853 35.1661 100.573 36.0023 101.747 36.0023M103.587 31.9805V32.7137H104.834V35.8941H105.657V32.7137H106.896V31.9805H103.587ZM107.743 33.4707C107.879 32.9265 108.342 32.509 108.949 32.509C109.557 32.509 110.037 32.856 110.101 33.4707H107.743ZM108.949 35.3003C108.254 35.3003 107.783 34.8036 107.727 34.1097H110.892V33.8257C110.892 32.6825 110.125 31.8707 108.974 31.8707C107.839 31.8707 106.927 32.7137 106.927 33.9362C106.927 35.1586 107.839 36.0023 108.934 36.0023C109.813 36.0023 110.357 35.6391 110.724 35.0244L110.08 34.6856C109.823 35.0325 109.568 35.3003 108.952 35.3003M112.357 30.5771C112.357 31.0738 112.7 31.4289 113.22 31.4289C113.74 31.4289 114.091 31.0738 114.091 30.5771H113.532C113.532 30.7743 113.42 30.916 113.22 30.916C113.02 30.916 112.916 30.7743 112.916 30.5771H112.357ZM111.445 35.8918H112.317L114.211 33.0688V35.8895H115.002V31.9805H114.131L112.236 34.8036V31.9805H111.445V35.8918Z" fill="#101828"/>
<path d="M13.9907 35.9127H2.03383C1.17223 35.9127 0.661133 35.1512 0.661133 34.4856C0.661027 34.2982 0.698403 34.1126 0.77112 33.9394C0.843837 33.7663 0.950466 33.609 1.0849 33.4765L6.30138 28.3301L13.9907 35.9127Z" fill="#FF4F12"/>
<path d="M2.03303 35.9127C1.13041 35.9127 -0.00022338 35.2003 -0.00022338 33.7841V17.9244C-0.00022338 15.7814 -0.111 14.2739 1.44046 12.7432L7.263 7L17.5834 17.1998L1.08469 33.4765C0.950255 33.6089 0.843625 33.7662 0.770908 33.9394C0.698191 34.1125 0.660816 34.2981 0.660922 34.4856C0.660922 35.1511 1.17202 35.9127 2.03303 35.9127Z" fill="#7700FF"/>
</g>
<defs>
<clipPath id="clip0_103_9">
<rect width="115" height="29" fill="white" transform="translate(0 7)"/>
</clipPath>
</defs>
</svg>
