<svg width="289" height="89" viewBox="0 0 289 89" fill="none" xmlns="http://www.w3.org/2000/svg">
<path d="M113.716 57.4641H122.825C122.873 59.5527 123.279 61.0716 124.044 62.0209C124.666 62.9228 125.765 63.3737 127.343 63.3737C129.017 63.3737 130.212 62.8516 130.929 61.8073C131.647 60.8105 132.005 59.3153 132.005 57.3217C132.005 55.2807 131.671 53.738 131.001 52.6937C130.332 51.6495 128.969 50.89 126.913 50.4154L125.048 49.917C122.705 49.2524 120.912 48.493 119.669 47.6386C118.234 46.7367 117.135 45.645 116.37 44.3634C115.557 43.0343 115.007 41.5391 114.72 39.8778C114.433 38.2639 114.29 36.3415 114.29 34.1106C114.29 29.5064 115.437 26.0413 117.732 23.7154C120.028 21.437 123.351 20.2979 127.702 20.2979C131.957 20.2979 135.161 21.3658 137.313 23.5018C139.512 25.7328 140.708 29.3165 140.899 34.253H131.718C131.671 32.3069 131.336 30.8829 130.714 29.981C130.14 29.1266 129.136 28.6994 127.702 28.6994C126.315 28.6994 125.287 29.1266 124.618 29.981C123.948 30.9304 123.614 32.2831 123.614 34.0394C123.614 35.0837 123.685 35.9618 123.829 36.6738C123.877 37.3383 124.092 37.9317 124.474 38.4538C124.809 38.9285 125.287 39.3319 125.909 39.6642C126.483 39.9965 127.295 40.305 128.347 40.5898L130.069 41.0882C132.459 41.8002 134.133 42.3935 135.089 42.8682C136.332 43.4378 137.337 44.1735 138.102 45.0754C139.249 46.2146 140.086 47.8047 140.612 49.8458C141.042 51.8393 141.257 54.1889 141.257 56.8945C141.257 59.6476 140.947 61.9497 140.325 63.8009C139.656 65.7945 138.747 67.3609 137.6 68.5001C136.309 69.7817 134.874 70.6598 133.296 71.1345C131.575 71.7041 129.638 71.9889 127.487 71.9889C123.088 71.9889 119.741 70.7785 117.446 68.3577C115.103 66.0318 113.859 62.4007 113.716 57.4641Z" fill="#000"/>
<path d="M155.875 71.4905H146.479V20.7963H155.875V71.4905Z" fill="#000"/>
<path d="M171.758 71.4905H162.936V20.7963H171.758L180.292 48.493L188.827 20.7963H197.578V71.4905H188.756V47.069L188.899 41.8714L187.895 46.2146L183.161 61.7361H177.424L172.618 46.2146L171.614 41.8714L171.758 47.069V71.4905Z" fill="#000"/>
<path d="M204.47 71.4905V20.7963H218.6C222.903 20.7963 226.25 21.9592 228.641 24.285C231.079 26.6584 232.299 30.4794 232.299 35.7482V37.5282C232.299 42.7495 231.103 46.5468 228.713 48.9202C226.37 51.246 222.999 52.409 218.6 52.409H213.866V71.4905H204.47ZM217.667 29.269H213.866V43.9362H217.667C219.628 43.9362 220.99 43.414 221.755 42.3698C222.521 41.4205 222.903 39.6642 222.903 37.101V36.1754C222.903 33.6597 222.521 31.8797 221.755 30.8354C220.99 29.7912 219.628 29.269 217.667 29.269Z" fill="#000"/>
<path d="M261.489 71.4905H237.39V20.7963H246.786V62.8753H261.489V71.4905Z" fill="#000"/>
<path d="M265.331 20.7963H289V29.4114H274.727V41.6578H286.777V50.2018H274.727V62.8753H289V71.4905H265.331V20.7963Z" fill="#000"/>
<path d="M66.6404 44.4999C66.6404 56.4595 56.874 66.1547 44.8266 66.1547C32.7792 66.1547 23.0129 56.4595 23.0129 44.4999C23.0129 32.5404 32.7792 22.8452 44.8266 22.8452C56.874 22.8452 66.6404 32.5404 66.6404 44.4999Z" fill="#000"/>
<path fill-rule="evenodd" clip-rule="evenodd" d="M61.6654 15.8556C54.0127 11.4223 44.8993 10.1885 36.3301 12.4256C27.7609 14.6627 20.4379 20.1874 15.9721 27.7844C11.5062 35.3814 10.2633 44.4283 12.5168 52.935C14.7704 61.4417 20.3356 68.7114 27.9884 73.1446C30.7117 74.7222 31.6311 78.1927 30.0419 80.8961C28.4527 83.5995 24.9568 84.5121 22.2335 82.9345C11.9652 76.9861 4.49784 67.2319 1.47415 55.8179C-1.54954 44.4038 0.118118 32.2649 6.11027 22.0714C12.1024 11.878 21.9282 4.46505 33.4261 1.4634C44.924 -1.53825 57.1521 0.117256 67.4204 6.06572C70.1436 7.64331 71.063 11.1137 69.4738 13.8172C67.8846 16.5206 64.3887 17.4332 61.6654 15.8556Z" fill="url(#paint0_radial)"/>
<path fill-rule="evenodd" clip-rule="evenodd" d="M61.7607 15.9097C65.568 18.1315 68.894 21.0809 71.5462 24.5874C74.2197 28.1222 76.1545 32.152 77.2367 36.4398C78.319 40.7275 78.5269 45.1868 77.8482 49.5555C77.1695 53.9242 75.6179 58.1141 73.2847 61.879C70.9514 65.6438 67.8836 68.9077 64.2614 71.4787C60.6393 74.0497 56.536 75.876 52.1927 76.8502C47.8494 77.8243 43.3537 77.9268 38.97 77.1515C34.5862 76.3761 30.4028 74.7387 26.6657 72.3354C24.0194 70.6336 20.4845 71.3836 18.7702 74.0106C17.0559 76.6376 17.8114 80.1468 20.4577 81.8486C25.4721 85.0733 31.0852 87.2703 36.9672 88.3106C42.8492 89.3509 48.8814 89.2135 54.7091 87.9064C60.5368 86.5992 66.0425 84.1488 70.9026 80.6991C75.7627 77.2494 79.879 72.87 83.0097 67.8184C86.1404 62.7668 88.2223 57.1449 89.1329 51.2831C90.0436 45.4214 89.7646 39.438 88.3125 33.6848C86.8604 27.9316 84.2644 22.5246 80.6771 17.7816C77.0898 13.0387 72.5835 9.05544 67.4233 6.06609C67.3867 6.04487 67.3499 6.0241 67.313 6.00378C67.3487 6.02436 67.3845 6.04498 67.4201 6.06566C70.1434 7.64325 71.0628 11.1137 69.4736 13.8171C67.9029 16.489 64.4697 17.4116 61.7607 15.9097Z" fill="url(#paint1_radial)"/>
<defs>
<radialGradient id="paint0_radial" cx="0" cy="0" r="1" gradientUnits="userSpaceOnUse" gradientTransform="translate(23.8937 78.7148) rotate(43.3558) scale(38.6774 38.6622)">
<stop stop-color="#000" stop-opacity="0"/>
<stop offset="1" stop-color="#000"/>
</radialGradient>
<radialGradient id="paint1_radial" cx="0" cy="0" r="1" gradientUnits="userSpaceOnUse" gradientTransform="translate(57.8339 6.41382) rotate(54.1043) scale(45.08 45.1862)">
<stop stop-color="#000" stop-opacity="0"/>
<stop offset="1" stop-color="#000"/>
</radialGradient>
</defs>
</svg>
