<svg width="1511" height="415" viewBox="0 0 1511 415" fill="none" xmlns="http://www.w3.org/2000/svg">
<path d="M401.1 327.3C402.2 339.7 406.5 348.4 414 353.3C421.5 358.2 430.3 360.7 440.7 360.7C444.8 360.7 449 360.4 453 359.8C457.5 359.2 461.8 358 466 356.3C469.9 354.7 473.4 352 476 348.7C478.6 345.4 479.8 341 479.5 335.5C479.5 330.5 477.5 325.7 474.1 322.1C470.4 318.4 466 315.6 461.1 313.7C455.2 311.4 449.2 309.6 443 308.3C436.2 306.8 429.4 305.2 422.4 303.5C415.3 301.8 408.4 299.7 401.6 297.2C395.1 294.8 389.1 291.5 383.7 287.2C378.3 282.9 373.9 277.3 371 271C367.8 264.4 366.3 256.3 366.3 246.6C366.3 236.2 368.6 227.4 373.2 220.4C377.7 213.5 383.7 207.6 390.8 203.3C398.1 198.9 406.1 195.8 414.5 194.2C422.7 192.5 431 191.6 439.3 191.6C448 191.6 456.7 192.6 465.2 194.8C473.2 196.8 480.8 200.3 487.5 205C494.3 209.9 499.9 216.1 504.1 223.4C508.5 231 511.3 240.1 512.4 250.7H472.2C470.4 240.5 466.2 233.7 459.5 230.3C452.4 226.7 444.6 224.9 436.7 225.1C433.5 225.1 430.3 225.4 427.1 225.8C423.5 226.3 420 227.2 416.6 228.6C413.4 229.9 410.6 231.9 408.3 234.5C406.1 237.1 404.9 240.5 404.9 244.7C404.9 249.9 406.5 254.1 409.8 257.3C413.5 260.8 417.9 263.5 422.7 265.3C428.6 267.6 434.6 269.4 440.8 270.7C447.6 272.2 454.6 273.8 461.8 275.5C468.8 277.2 475.6 279.4 482.4 281.8C488.9 284.1 495 287.5 500.5 291.8C505.9 296.1 510.3 301.6 513.3 307.8C516.6 314.2 518.2 322.2 518.2 331.6C518.2 343 515.8 352.7 511.1 360.6C506.5 368.4 500.2 375 492.7 379.9C485 384.9 476.5 388.6 467.5 390.7C458.5 392.9 449.3 394 440.1 394C429.8 394.1 419.5 392.7 409.5 389.9C400.6 387.4 392.4 383.2 385.2 377.4C378.3 371.8 372.7 364.7 369 356.6C365.1 348.3 363 338.5 362.7 327.1L401.1 327.3Z" fill="black"/>
<path d="M546.5 196.8H581.2V223.6H582.2C584.9 219.1 587.9 214.7 591.2 210.6C597.4 202.7 605.9 196.9 615.6 194C621.3 192.3 627.3 191.5 633.3 191.6C643.2 191.6 652.9 194.3 661.4 199.4C670.1 204.6 676.2 212.7 679.9 223.6C686.1 213.7 693.3 205.9 701.4 200.2C709.5 194.5 719.7 191.6 731.9 191.6C749.4 191.6 763.1 196.6 772.8 206.5C782.5 216.4 787.4 233 787.4 256.3V389H750.8V276.8C750.8 269.1 750.6 262.1 750.2 255.8C749.9 250.2 748.7 244.6 746.5 239.4C744.6 235 741.4 231.3 737.3 228.8C733.2 226.3 727.7 225.1 720.6 225.1C708.2 225.1 699.2 229.6 693.6 238.5C688 247.4 685.2 260.1 685.3 276.4V389H648.7V265.6C648.7 252.2 646.6 242.1 642.4 235.3C638.2 228.5 630.6 225.1 619.4 225.1C614.7 225.1 610 226.3 605.8 228.5C601.3 230.8 597.3 234.1 594.2 238.2C590.6 242.9 587.9 248.2 586.2 253.8C584.1 260.7 583.1 267.8 583.2 275V389H546.6V196.8H546.5Z" fill="black"/>
<path d="M859.5 303.9C859.5 311.2 860.5 318.5 862.5 325.5C864.3 332.1 867.4 338.3 871.5 343.7C875.6 349 880.8 353.2 886.8 356.2C892.9 359.3 900.3 360.8 908.8 360.8C920.6 360.8 930.2 358.1 937.4 352.8C944.6 347.5 950 339.5 953.6 328.8H991.9C990 338.7 986.2 348.1 980.9 356.7C970.9 372.7 955.5 384.5 937.5 390C928.3 392.9 918.6 394.3 908.9 394.3C894.5 394.3 881.7 391.8 870.6 386.9C859.8 382.1 850.1 375 842.4 366.1C834.5 356.7 828.5 345.8 825 334.1C821 320.8 819 307.1 819.1 293.2C819 280 821.1 266.9 825.3 254.3C829.2 242.5 835.2 231.6 843.1 222C850.7 212.7 860.2 205.2 871 199.9C881.9 194.4 894.2 191.7 907.9 191.7C922.3 191.7 935.3 194.9 946.8 201.2C958.1 207.3 967.8 215.9 975.4 226.3C983.1 237.1 988.7 249.3 991.9 262.2C995.3 275.9 996.2 290 994.6 304H859.5V303.9ZM953.8 276C953.3 269.4 952 262.9 949.7 256.7C947.6 250.8 944.5 245.3 940.5 240.5C936.5 235.9 931.7 232.1 926.3 229.4C920.5 226.5 914.1 225 907.7 225.1C901 225 894.4 226.3 888.4 229C882.7 231.5 877.7 235.2 873.5 239.8C869.3 244.6 865.9 250 863.6 256C861.1 262.4 859.7 269.2 859.5 276.1L953.8 276Z" fill="black"/>
<path d="M1060.3 303.9C1060.3 311.2 1061.3 318.5 1063.3 325.5C1065.1 332.1 1068.2 338.3 1072.4 343.7C1076.5 349 1081.7 353.2 1087.7 356.2C1093.8 359.3 1101.2 360.8 1109.7 360.8C1121.5 360.8 1131 358.1 1138.3 352.8C1145.6 347.5 1150.9 339.5 1154.5 328.8H1192.8C1190.9 338.7 1187.1 348.1 1181.8 356.7C1171.8 372.7 1156.4 384.5 1138.3 390C1129.1 392.9 1119.4 394.3 1109.7 394.3C1095.3 394.3 1082.5 391.8 1071.4 386.9C1060.6 382.1 1050.9 375 1043.2 366.1C1035.3 356.7 1029.4 345.8 1025.8 334.1C1021.8 320.8 1019.8 307.1 1019.9 293.2C1019.8 280 1021.9 266.9 1026.1 254.3C1030 242.5 1036 231.5 1043.8 221.9C1051.4 212.7 1060.9 205.1 1071.7 199.8C1082.6 194.3 1094.9 191.6 1108.6 191.6C1123 191.6 1136 194.8 1147.5 201.1C1158.8 207.2 1168.5 215.8 1176.1 226.2C1183.8 237 1189.4 249.2 1192.6 262.1C1196 275.8 1196.9 289.9 1195.3 303.9H1060.3ZM1154.7 276C1154.2 269.4 1152.9 262.9 1150.6 256.7C1148.5 250.8 1145.4 245.3 1141.4 240.5C1137.4 235.9 1132.6 232.1 1127.2 229.4C1121.4 226.5 1115 225 1108.6 225.1C1101.9 225 1095.4 226.3 1089.3 229C1083.6 231.5 1078.5 235.2 1074.4 239.8C1070.2 244.6 1066.8 250 1064.5 256C1062 262.4 1060.6 269.2 1060.4 276.1L1154.7 276Z" fill="black"/>
<path d="M1207.5 196.8H1236.6V139.2H1275.1V196.8H1309.9V228.4H1275.1V331C1275.1 334.8 1275.2 338.7 1275.6 342.5C1275.8 345.4 1276.6 348.1 1278 350.7C1279.3 352.9 1281.2 354.7 1283.6 355.7C1286.8 356.9 1290.3 357.5 1293.7 357.4C1296.4 357.4 1299.1 357.3 1301.8 357.2C1304.5 357.1 1307.3 356.6 1309.9 355.9V388.6C1305.6 389.1 1301.5 389.6 1297.4 390.1C1293.2 390.6 1289.1 390.8 1284.9 390.8C1274.8 390.8 1266.6 389.7 1260.4 387.6C1254.2 385.5 1249.4 382.4 1245.9 378.3C1242.2 373.9 1239.8 368.5 1238.8 362.9C1237.5 355.9 1236.7 348.8 1236.6 341.7V228.4H1207.5V196.8Z" fill="black"/>
<path d="M1338.3 196.8H1480.3V226.6L1380.3 355.6H1485.3V389H1331.5V359.3L1428.2 230.3H1338.3V196.8Z" fill="black"/>
<path d="M275 359.8C249.6 338.7 222.6 318.3 203 304.6C128.4 252.5 109.4 234.8 104.6 194.5C98 138.7 143.8 104.8 188.8 104.8C229.1 104.8 272.9 137.5 272.9 184.5C272.9 208.9 262.6 227.3 250.4 240.4L300 278C326.1 246.9 339.5 209.5 335.9 170.2C328.1 82.8 246.5 37 185.8 37C125.1 37 37 80.8 37 187.5C37 267.8 110 320.7 164.8 357.1C177.3 365.4 209.9 387.4 212 389H306L307.5 388.5C306.8 387.8 306 387.1 305.3 386.4C295.8 377.3 285.7 368.4 275 359.8Z" fill="black"/>
<path d="M222.056 193.017C223.669 173.532 209.226 156.433 189.797 154.825C170.367 153.217 153.309 167.709 151.697 187.193C150.084 206.677 164.527 223.776 183.956 225.384C203.386 226.993 220.444 212.501 222.056 193.017Z" fill="#30AABC"/>
</svg>
