<svg width="76" height="24" fill="none" xmlns="http://www.w3.org/2000/svg"><path fill="#fff" d="M0 0h75.34v24H0z"/><path d="M68.62 4.4c-.29.42-.34 1.02-.34 1.02l3.67 2.24c.27.18.27.49 0 .67-.3.2-3.67 2.24-3.67 2.24s.05.6.34 1.02c.26.41.75.65.75.65s5.4-3.41 5.75-3.72c.3-.26.3-.8 0-1.05-.36-.31-5.75-3.72-5.75-3.72s-.49.24-.75.65" fill="#DC6655"/><path d="m58.67 0-2.69 12.46c.92.39 2.56.66 3.9.66 3.02 0 4.62-1.13 5.41-4.85.8-3.67-.24-4.74-2.77-4.74-1.03 0-1.95.3-2.5.6L60.9 0h-2.23Zm-.13 11.01 1-4.68c.12-.54 1.02-.86 2-.86 1.57 0 1.95.59 1.46 2.83-.55 2.59-1.17 3-2.75 3-.57 0-1.24-.09-1.71-.29ZM8.28 1.11c-.23 1.05.04 1.22 1.03 1.22.97 0 1.3-.17 1.54-1.23.2-.94-.07-1.08-1.04-1.08-.99 0-1.33.14-1.53 1.08ZM2.27 2.25 1.94 3.8H.41L0 5.72h1.53l-.88 4.1c-.58 2.69.3 3.3 2.36 3.3.75 0 1.61-.14 2.28-.32l.4-1.87c-.49.14-1.2.28-1.73.28-1.08 0-1.28-.46-1.05-1.59l.85-3.9H6.8l.41-1.92H4.17l.53-2.45-2.43.91ZM47.7 8.3c-.79 3.72.78 4.83 3.42 4.83.94 0 2.33-.2 3.3-.5l.02-1.75c-.76.21-2 .37-2.65.37-1.6 0-2.27-.39-1.87-2.33h5.92c1.1-4.4.05-5.38-2.84-5.38-2.67 0-4.52 1.12-5.3 4.76Zm5.04-3.01c1.28 0 1.68.33 1.4 1.94H50.3c.46-1.5 1.04-1.94 2.44-1.94ZM25 8.28c-.8 3.73.77 4.84 3.42 4.84.93 0 2.32-.2 3.29-.5l.02-1.75c-.76.21-2 .37-2.65.37-1.6 0-2.27-.39-1.87-2.33h5.92c1.1-4.4.06-5.38-2.84-5.38-2.67 0-4.52 1.12-5.3 4.76Zm5.04-3c1.27 0 1.67.33 1.4 1.94h-3.85c.47-1.5 1.04-1.94 2.45-1.94ZM18 4.13c-.45-.4-1.19-.6-2.21-.6-1.46 0-3.2.35-4.4.78l-1.83 8.56h2.23l1.53-7.13a6.65 6.65 0 0 1 1.57-.22c1.47 0 1.72.5 1.3 2.52l-1.03 4.83h2.23l1.08-5.07c.18-.82.23-1.5.18-2.03a7.5 7.5 0 0 1 1.83-.25c1.48 0 1.73.5 1.3 2.52l-1.02 4.83h2.23l1.08-5.07c.7-3.26-.11-4.27-2.68-4.27-1.05 0-2.33.25-3.39.6Zm28.48-.33a78.15 78.15 0 0 1-3.6 6.8c0-1.94-.16-5.04-.38-6.8h-2.18a114.6 114.6 0 0 1-3.45 6.8 55.15 55.15 0 0 0-.62-6.8H33.9c.47 2.77.79 5.91 1 9.07h2.76a86.97 86.97 0 0 0 3.06-6.08c.12 1.42.2 4.24.18 6.08h2.77c1.8-2.87 3.62-6.14 5.08-9.07h-2.27Zm-38.61 0-1.95 9.07h2.23L10.1 3.8H7.87M2.88 19.79H1.15v.75h.62c.46 0 .82.11 1.09.33.27.22.4.52.4.9s-.13.68-.4.9a1.6 1.6 0 0 1-1.06.36H.34v-3.9h2.54v.66Zm-1.73 1.4v1.2h.64c.2 0 .36-.06.48-.18a.58.58 0 0 0 .19-.45.52.52 0 0 0-.18-.41.71.71 0 0 0-.47-.16h-.66ZM7.12 21.17c0 .38-.07.72-.2 1a1.53 1.53 0 0 1-1.45.9c-.32 0-.6-.07-.86-.22a1.54 1.54 0 0 1-.59-.67c-.14-.28-.2-.62-.21-.99V21c0-.37.07-.71.2-1a1.54 1.54 0 0 1 1.46-.9 1.52 1.52 0 0 1 1.45.9c.13.29.2.63.2 1v.18Zm-.81-.18c0-.4-.07-.71-.22-.93a.71.71 0 0 0-.62-.31c-.27 0-.48.1-.63.31-.14.21-.22.52-.22.92v.19c0 .4.07.7.22.92.15.22.36.33.63.33a.7.7 0 0 0 .62-.31c.14-.21.22-.52.22-.93V21ZM10.93 19.14v3.89h-.8v-3.24H9.09l-.06 1.37a4.3 4.3 0 0 1-.18 1.1c-.09.26-.22.45-.4.58-.17.12-.41.18-.71.19h-.21v-.65l.13-.01c.2-.03.35-.14.43-.35.09-.2.15-.57.17-1.1l.06-1.78h2.61ZM12.58 20.54h.63c.46 0 .82.11 1.09.33.26.22.4.52.4.9s-.14.68-.4.9a1.6 1.6 0 0 1-1.06.36h-1.46v-3.9h.8v1.41Zm0 .65v1.2h.64c.2 0 .37-.06.49-.18a.58.58 0 0 0 .18-.45.52.52 0 0 0-.17-.41.71.71 0 0 0-.48-.16h-.66ZM16.16 19.14v3.24h1.07v-3.24h.8v3.24h1.08v-3.24h.8v3.89h-4.56v-3.9h.8ZM23.1 21.34h-1.55v1.04h1.81v.65h-2.6v-3.9h2.6v.66h-1.8v.92h1.53v.63ZM24.13 24l-.4-.21.1-.17c.11-.22.17-.44.18-.65v-.6h.65v.53a1.54 1.54 0 0 1-.53 1.1ZM30.08 19.14v3.89h-.8v-1.48c-.24.05-.5.08-.76.08-.5 0-.87-.1-1.13-.32-.25-.22-.38-.53-.39-.94v-1.23h.8v1.22c0 .22.06.38.16.48.11.1.3.14.56.14.26 0 .52-.02.76-.07v-1.77h.8ZM33.28 21.34h-1.54v1.04h1.8v.65h-2.6v-3.9h2.6v.66h-1.8v.92h1.54v.63ZM35.21 19.14l1 2.82 1-2.82h1.04v3.89h-.8v-1.07l.08-1.83-1.05 2.9h-.55l-1.04-2.9.08 1.83v1.07h-.8v-3.9h1.04ZM42.01 20.48l.73-1.34h.92l-1.13 1.93 1.16 1.96h-.93L42 21.66l-.75 1.37h-.93l1.16-1.96-1.13-1.93h.92l.73 1.34ZM47.37 21.17c0 .38-.07.72-.2 1a1.53 1.53 0 0 1-1.45.9c-.32 0-.6-.07-.86-.22a1.55 1.55 0 0 1-.59-.67c-.14-.28-.2-.62-.2-.99V21c0-.37.06-.71.2-1a1.54 1.54 0 0 1 1.45-.9 1.52 1.52 0 0 1 1.45.9c.13.29.2.63.2 1v.18Zm-.8-.18c0-.4-.08-.71-.23-.93a.71.71 0 0 0-.62-.31c-.27 0-.48.1-.63.31-.14.21-.22.52-.22.92v.19c0 .4.08.7.22.92.15.22.36.33.63.33a.7.7 0 0 0 .62-.31c.15-.21.22-.52.22-.93V21ZM51.16 21.73c-.03.42-.19.75-.47.99-.27.24-.64.36-1.1.36-.5 0-.89-.17-1.17-.5-.29-.34-.43-.8-.43-1.39v-.23c0-.38.06-.7.2-1a1.47 1.47 0 0 1 1.41-.88c.45 0 .81.12 1.09.36.27.24.43.58.47 1.02h-.8c-.02-.25-.09-.44-.2-.55-.13-.11-.31-.17-.56-.17-.26 0-.46.1-.6.29-.13.19-.2.49-.2.89v.3c0 .41.06.72.19.91.13.2.33.3.6.3.25 0 .44-.06.56-.17.12-.12.19-.3.2-.53h.8ZM54.68 19.79H53.5v3.24h-.8v-3.24h-1.17v-.65h3.16v.65ZM57.62 19.14h.8v3.89h-.8v-2.59l-1.55 2.59h-.8v-3.9h.8v2.6l1.55-2.6ZM62.44 23.03h-.8v-1.67h-1.56v1.67h-.8v-3.9h.8v1.58h1.56v-1.57h.8v3.89ZM65.84 19.79H64.1v3.24h-.8v-3.9h2.54v.66Z" fill="#4D3B3B"/></svg>