<svg width="110" height="17" viewBox="0 0 110 17" fill="none" xmlns="http://www.w3.org/2000/svg">
<path fill-rule="evenodd" clip-rule="evenodd" d="M13.5328 2.16561C13.5328 1.57344 13.6912 1.08706 14.007 0.703611C14.3228 0.320167 14.7855 0.128444 15.3962 0.128444C16.0059 0.128444 16.4744 0.320167 16.8016 0.703611C17.1287 1.08706 17.2918 1.57344 17.2918 2.16561V7.32133C17.2918 8.6785 17.1496 9.90439 16.867 10.9999C16.5926 12.0751 16.1276 13.0928 15.4939 14.0052C14.8623 14.9137 13.9691 15.6202 12.8141 16.1236C11.6591 16.6269 10.2859 16.8791 8.69474 16.8791C5.62233 16.8791 3.40526 16.0083 2.04259 14.2677C0.680862 12.5271 0 10.2331 0 7.38745V2.16467C0 1.57439 0.168793 1.088 0.506379 0.704556C0.844914 0.321111 1.3181 0.129389 1.92879 0.129389C2.56034 0.129389 3.0506 0.321111 3.39862 0.704556C3.74853 1.088 3.92207 1.57439 3.92207 2.16656V7.55178C3.92207 11.4278 5.52466 13.3648 8.72793 13.3648C11.9312 13.3648 13.5328 11.4061 13.5328 7.48661V2.16561V2.16561ZM85.104 7.39878C85.8104 7.04178 86.1641 6.46567 86.1641 5.67233C86.1641 4.26794 84.7986 3.56622 82.0695 3.56622C81.5735 3.56622 78.9828 3.604 78.0279 3.68239V7.85683C78.6197 7.90972 81.1345 7.93522 81.84 7.93522C83.3098 7.93522 84.3985 7.75578 85.104 7.39878V7.39878ZM74.2519 2.22322C74.2519 1.24383 74.8218 0.652611 75.9626 0.445778C77.165 0.222889 80.245 0.111444 82.0998 0.111444C87.376 0.111444 90.0141 1.89644 90.0141 5.46645C90.0141 6.68572 89.668 7.71611 88.9748 8.55761C88.2826 9.39817 87.321 10.0508 85.9337 10.3804L89.2688 13.7199C89.8662 14.4037 90.1251 15.5692 88.8155 16.2133C87.7421 16.7403 86.5586 16.3691 85.6948 15.3416L81.7433 10.8998C81.4778 10.9348 78.5191 10.9178 77.9682 10.8488V14.8533C77.9682 15.3161 77.8051 15.6938 77.4798 15.9866C77.1536 16.2775 76.8104 16.4239 76.2395 16.4239C75.6487 16.4239 75.0409 16.2775 74.7251 15.9857C74.4093 15.6938 74.251 15.3161 74.251 14.8523V2.22417L74.2519 2.22322ZM105.907 2.16561C105.907 1.57344 106.066 1.08706 106.381 0.703611C106.697 0.320167 107.161 0.128444 107.771 0.128444C108.381 0.128444 108.85 0.320167 109.176 0.703611C109.503 1.08706 109.666 1.57344 109.666 2.16561V7.32133C109.666 8.6785 109.525 9.90439 109.242 10.9999C108.968 12.0751 108.502 13.0928 107.868 14.0052C107.237 14.9137 106.343 15.6202 105.188 16.1236C104.033 16.6269 102.66 16.8791 101.07 16.8791C97.9977 16.8791 95.7797 16.0083 94.417 14.2677C93.0553 12.5271 92.3744 10.2331 92.3744 7.38745V2.16467C92.3744 1.57344 92.5432 1.08706 92.8808 0.703611C93.2193 0.320167 93.6935 0.128444 94.3032 0.128444C94.9357 0.128444 95.425 0.320167 95.774 0.703611C96.1229 1.08706 96.2974 1.57344 96.2974 2.16561V7.55083C96.2974 11.4268 97.8991 13.3639 101.102 13.3639C104.306 13.3639 105.907 11.4051 105.907 7.48567V2.16561V2.16561ZM28.5507 16.8782C25.6471 16.8782 23.376 16.1557 21.7364 14.7107C20.0959 13.2657 19.2756 11.2408 19.2756 8.63506C19.2756 6.00761 20.1291 3.93267 21.836 2.41117C23.5447 0.889667 25.8766 0.128444 28.8342 0.128444C31.1196 0.128444 32.853 0.435389 34.0355 1.04833C35.1915 1.63956 35.5272 2.37339 35.0435 3.24889C34.5865 4.0375 33.6998 4.37089 32.3827 4.04222C31.0115 3.7145 29.481 3.44533 28.5668 3.44533C27.0078 3.44533 25.7846 3.90528 24.897 4.82422C24.0103 5.74506 23.5666 7.01533 23.5666 8.63506C23.5666 10.1679 24.0303 11.3721 24.9577 12.2476C25.8851 13.124 27.1017 13.5613 28.6066 13.5613C29.6829 13.5613 31.3614 13.2553 32.8663 12.6414C34.156 12.138 35.071 12.2476 35.6078 12.9701C36.227 13.8021 35.9586 14.6011 34.8017 15.368C33.2428 16.3748 31.1594 16.8791 28.5516 16.8791L28.5507 16.8782ZM60.3767 0.542111C60.756 0.181333 61.2738 0 61.9272 0C62.5815 0 63.1049 0.181333 63.4966 0.542111C63.8891 0.903833 64.0845 1.39022 64.0845 2.00411C64.0845 2.63878 63.8891 3.13083 63.4966 3.48122C63.1049 3.83161 62.5815 4.00728 61.9272 4.00728C61.2738 4.00728 60.756 3.83728 60.3748 3.49728C59.9936 3.15822 59.803 2.6605 59.803 2.00411C59.803 1.39022 59.9936 0.903833 60.3748 0.542111H60.3767ZM56.3921 0.670556C56.0649 0.308833 55.6078 0.128444 55.019 0.128444C54.431 0.128444 53.9787 0.308833 53.6629 0.670556C53.3472 1.03133 53.1888 1.48656 53.1888 2.03339V6.48361H42.1319V2.03339C42.1319 1.48561 41.9697 1.03228 41.6416 0.670556C41.3154 0.308833 40.8574 0.128444 40.2695 0.128444C39.6816 0.128444 39.2283 0.308833 38.9135 0.670556C38.5967 1.03133 38.4393 1.48656 38.4393 2.03339V14.6455C38.4393 15.1933 38.5967 15.6466 38.9135 16.0083C39.2283 16.3701 39.6816 16.5504 40.2695 16.5504C40.8574 16.5504 41.3154 16.3701 41.6416 16.0083C41.9697 15.6476 42.1328 15.1923 42.1328 14.6455V10.1953H53.1888V14.6455C53.1888 15.1933 53.3472 15.6466 53.6629 16.0083C53.9787 16.3701 54.431 16.5504 55.019 16.5504C55.6078 16.5504 56.0649 16.3701 56.3921 16.0083C56.7192 15.6476 56.8823 15.1923 56.8823 14.6455V2.03339C56.8823 1.48561 56.7192 1.03228 56.3921 0.670556ZM60.0979 7.81717C60.0979 7.26939 60.2563 6.81511 60.5721 6.45433C60.8878 6.09261 61.3402 5.91222 61.9281 5.91222C62.517 5.91222 62.975 6.09261 63.3012 6.45433C63.6284 6.81511 63.7915 7.26939 63.7915 7.81717V14.6455C63.7915 15.1933 63.6284 15.6466 63.3012 16.0083C62.975 16.3701 62.517 16.5504 61.9291 16.5504C61.3402 16.5504 60.8878 16.3701 60.573 16.0083C60.2563 15.6476 60.0989 15.1923 60.0989 14.6455V7.81717H60.0979ZM67.338 12.6584C67.741 12.2098 68.291 11.985 68.989 11.985C69.686 11.985 70.2416 12.2098 70.656 12.6584C71.0704 13.107 71.2772 13.6491 71.2772 14.2838C71.2772 14.9411 71.0752 15.4832 70.6722 15.9092C70.2691 16.3361 69.7078 16.5504 68.989 16.5504C68.2702 16.5504 67.7145 16.3361 67.3219 15.9092C66.9293 15.4823 66.734 14.9411 66.734 14.2847C66.734 13.6491 66.935 13.107 67.338 12.6584" fill="#4D4D4D"/>
</svg>
