<?xml version="1.0" encoding="UTF-8"?> <!-- Generator: Adobe Illustrator 17.1.0, SVG Export Plug-In . SVG Version: 6.00 Build 0) --> <svg xmlns="http://www.w3.org/2000/svg" xmlns:xlink="http://www.w3.org/1999/xlink" id="Layer_1" x="0px" y="0px" viewBox="0 0 1568.8 357" xml:space="preserve"> <g> <g> <path d="M564.9,295.7c-65.9,0-113.5-53.6-113.5-119.5c0-65.9,46.9-122.5,115.5-122.5c30.4,0,52,7.1,70.8,18.8v57.9h56.7V46 l-10.9-8.5C652.3,13,604.7,0,564.9,0c-97.2,0-176.2,79-176.2,176.2c0,97.2,79,176.2,176.2,176.2c60.7,0,106.4-25.3,140.1-69.3 l-45-34.4C637.1,278.6,602.5,295.7,564.9,295.7z M1524.5,292.7l-2-81.2V13.4h-118.2v56.7h58.5v134.3c0,57.9-44.3,98.8-88.9,98.8 c-44.6,0-67.9-30.9-67.9-88.8v-201h-110.4v56.7h50.7v154.3c0,78.5,44,132.5,122.6,132.5c45.1,0,79.5-24.9,100-63.6h0.9l8.1,54 h90.8v-54.7H1524.5z M191.5,257h-1.3L104.9,8.3H0V65h59l101.6,283.5h54l0-0.1l0,0L320.5,65h55.1V8.3h-98.4L191.5,257z M749.8,349.1h58.3v-58.3h-58.3V349.1z M975.2,79.1h-0.7l-3.7-65.7H866.6v51.7h55.5v227.5h-55.5v54.7h257.4v-53.7H980.8V156.3 c6.5-49.7,43.7-92.2,94.6-92.2l0,0h0.9l-1,50.8h56.7V12.3h-44.7C1035.9,12.3,997.8,40.1,975.2,79.1z"></path> </g> </g> </svg> 