<svg xmlns="http://www.w3.org/2000/svg" xmlns:xlink="http://www.w3.org/1999/xlink" version="1.1" id="Layer_1" x="0" y="0" viewBox="0 0 657 96" enable-background="new 0 0 657 96" xml:space="preserve"><title>Zarplata.ru_logo_yellow</title><desc>Created with Sketch.</desc><g id="Zarplata.ru_logo_yellow"><g id="Group-2"><circle id="Oval" fill="#FFCD28" cx="46.5" cy="46.5" r="46.5"/><g id="Group" transform="translate(25.000000, 19.000000)"><path id="Shape" fill="#212223" d="M0.466,50.363v-7.952c0-1.146,1.169-1.917,2.218-1.462c4.892,2.127,10.258,3.154,16.098,3.154 c8,0,12.632-2.209,12.632-6.104c0-3.475-3.052-5.159-9.263-5.159h-8.707c-0.89,0-1.609-0.721-1.609-1.608v-7.521 c0-0.888,0.72-1.609,1.609-1.609h8.707c5.053,0,7.58-1.577,7.58-4.63c0-3.369-3.58-5.053-10.737-5.053 c-5.508,0-10.474,0.853-14.896,2.622c-1.036,0.414-2.156-0.357-2.156-1.475V5.981c0-0.987,0.61-1.857,1.524-2.229 C8.583,1.67,14.9,0.629,22.256,0.629c6.422,0,11.79,1.368,16.105,4.105c4.316,2.735,6.526,6.21,6.526,10.316 c0,5.374-2.177,9.024-6.53,10.868c-0.334,0.141-0.319,0.632,0.02,0.761c4.945,1.885,8.616,5.967,8.616,12.158 c0,4.95-2.42,9.056-7.261,12.315c-4.739,3.162-11.055,4.74-18.844,4.74c-7.565,0-13.823-1.136-18.935-3.322 C1.061,52.191,0.466,51.332,0.466,50.363z"/><path id="Shape_1_" fill="#212223" d="M369.223,43.573v7.868c0,1.285-0.761,2.449-1.939,2.963 c-1.637,0.711-3.646,1.066-6.062,1.066c-5.773,0-9.602-2.048-11.664-6.236c-0.117-0.241-0.425-0.303-0.613-0.112 c-4.579,4.479-10.454,6.772-17.721,6.772c-11.371,0-19.369-6.949-19.369-17.582c0-5.578,2-9.895,6.104-12.841 c4.104-2.946,8.944-4.422,14.633-4.422c5.896,0,10.947,1.052,15.156,3.264v-1.578c0-6.632-4.633-9.896-13.896-9.896 c-4.344,0-8.561,0.895-12.55,2.682c-1.571,0.704-3.345-0.475-3.345-2.196V6.846c0-1.287,0.771-2.432,1.949-2.953 c4.953-2.201,10.748-3.265,17.525-3.265c7.473,0,13.577,1.791,18.104,5.476c4.631,3.682,6.947,8.736,6.947,15.157v17.79 c0,2.631,1.261,4.001,3.684,4.001c0.758,0,1.439-0.075,2.023-0.229C368.711,42.689,369.223,43.04,369.223,43.573z M347.748,35.559c0-1.146-0.63-2.209-1.646-2.729c-2.68-1.376-5.735-2.095-9.3-2.095c-6.317,0-10.315,2.525-10.315,6.843 c0,4.631,3.896,6.841,9.367,6.841c4.73,0,8.488-1.504,11.189-4.516c0.479-0.531,0.705-1.24,0.705-1.957V35.559z"/><path id="Shape_2_" fill="#212223" d="M479.226,43.573v7.868c0,1.285-0.759,2.449-1.938,2.963 c-1.639,0.711-3.647,1.066-6.062,1.066c-5.775,0-9.602-2.048-11.661-6.236c-0.119-0.241-0.427-0.303-0.617-0.112 c-4.578,4.479-10.451,6.772-17.723,6.772c-11.366,0-19.367-6.949-19.367-17.582c0-5.578,2-9.895,6.104-12.841 c4.108-2.946,8.951-4.422,14.634-4.422c5.896,0,10.948,1.052,15.159,3.264v-1.578c0-6.632-4.631-9.896-13.895-9.896 c-4.346,0-8.562,0.895-12.554,2.682c-1.571,0.704-3.346-0.475-3.346-2.196V6.846c0-1.287,0.777-2.432,1.949-2.953 c4.957-2.201,10.752-3.265,17.524-3.265c7.476,0,13.578,1.791,18.105,5.476c4.633,3.682,6.946,8.736,6.946,15.157v17.79 c0,2.631,1.266,4.001,3.686,4.001c0.76,0,1.442-0.075,2.023-0.229C478.715,42.689,479.226,43.04,479.226,43.573z M457.754,35.559 c0-1.146-0.629-2.209-1.646-2.729c-2.678-1.376-5.738-2.095-9.303-2.095c-6.313,0-10.314,2.525-10.314,6.843 c0,4.631,3.896,6.841,9.37,6.841c4.729,0,8.485-1.504,11.189-4.516c0.477-0.531,0.703-1.24,0.703-1.957V35.559z"/><path id="Shape_3_" fill="#212223" d="M169.525,8.629c4.736,5.264,7.052,11.791,7.052,19.686c0,7.789-2.314,14.314-7.052,19.685 c-4.632,5.264-10.525,7.896-17.687,7.896c-7.059,0-12.523-2.354-16.566-6.963c-0.244-0.273-0.695-0.119-0.695,0.252v23.951 c0,1.353-1.093,2.444-2.441,2.444h-9.956c-1.35,0-2.442-1.095-2.442-2.444V4.443c0-1.351,1.093-2.443,2.442-2.443h9.956 c1.349,0,2.441,1.093,2.441,2.443v2.875c0,0.366,0.452,0.521,0.69,0.238c3.877-4.587,9.429-6.926,16.571-6.926 C159,0.629,164.893,3.261,169.525,8.629z M134.577,21.841v12.948c0,0.24,0.061,0.479,0.18,0.693 c2.474,4.354,7.223,7.465,12.874,7.465c4.104,0,7.577-1.369,10.211-4.211c2.632-2.844,4-6.316,4-10.422 c0-4.211-1.368-7.684-4-10.526c-2.634-2.841-6.106-4.211-10.211-4.211c-5.65,0-10.399,3.209-12.875,7.572 C134.637,21.359,134.577,21.599,134.577,21.841z"/><path id="Shape_4_" fill="#212223" d="M564.916,8.629c4.735,5.264,7.054,11.791,7.054,19.686c0,7.789-2.316,14.314-7.054,19.685 c-4.632,5.264-10.525,7.896-17.686,7.896c-7.062,0-12.525-2.354-16.568-6.963c-0.242-0.273-0.693-0.119-0.693,0.252v23.951 c0,1.353-1.094,2.444-2.442,2.444h-9.956c-1.351,0-2.442-1.095-2.442-2.444V4.443c0-1.351,1.094-2.443,2.442-2.443h9.956 c1.352,0,2.442,1.093,2.442,2.443v2.875c0,0.366,0.451,0.521,0.69,0.238c3.873-4.587,9.429-6.926,16.571-6.926 C554.39,0.629,560.284,3.261,564.916,8.629z M529.969,21.841v12.948c0,0.24,0.06,0.479,0.178,0.693 c2.478,4.354,7.226,7.465,12.875,7.465c4.104,0,7.578-1.369,10.212-4.211c2.63-2.844,3.998-6.316,3.998-10.422 c0-4.211-1.368-7.684-3.998-10.526c-2.634-2.841-6.107-4.211-10.212-4.211c-5.649,0-10.397,3.209-12.875,7.572 C530.026,21.359,529.969,21.599,529.969,21.841z"/><path id="Shape_5_" fill="#212223" d="M186.477,52.904V3.62c0-0.897,0.726-1.622,1.621-1.622h47.389 c0.896,0,1.621,0.725,1.621,1.622v49.284c0,0.896-0.726,1.619-1.621,1.619h-11.601c-0.896,0-1.621-0.726-1.621-1.619V16.042 c0-0.896-0.725-1.622-1.622-1.622H202.94c-0.896,0-1.621,0.727-1.621,1.622v36.862c0,0.896-0.726,1.619-1.621,1.619h-11.601 C187.203,54.523,186.477,53.799,186.477,52.904z"/><path id="Shape_6_" fill="#212223" d="M273.231,14.42c-0.888,0-1.615,0.706-1.64,1.592l-0.164,5.775 c-0.314,7.265-0.633,12.104-2.422,18.422c-2.524,8.841-7.579,14.42-18,14.736c-1.836,0-3.338-0.168-4.467-0.5 c-0.674-0.2-1.11-0.852-1.11-1.559v-9c0-0.964,0.817-1.712,1.776-1.629c0.406,0.039,0.832,0.055,1.274,0.055 c3.476,0,5.687-1.996,6.843-6.736c1.264-4.947,1.577-9.367,1.684-18.104l0.285-13.869c0.018-0.891,0.745-1.604,1.638-1.604 h42.124c0.904,0,1.64,0.734,1.64,1.64v49.25c0,0.903-0.735,1.639-1.64,1.639H289.49c-0.906,0-1.64-0.733-1.64-1.639V16.061 c0-0.905-0.734-1.64-1.64-1.64L273.231,14.42L273.231,14.42z"/><path id="Shape_7_" fill="#212223" d="M387.013,52.866V16.08c0-0.918-0.74-1.661-1.661-1.661h-13.099 c-0.916,0-1.661-0.744-1.661-1.659V3.657c0-0.918,0.745-1.661,1.661-1.661h44.573c0.916,0,1.661,0.743,1.661,1.661v9.103 c0,0.916-0.745,1.659-1.661,1.659h-13.312c-0.916,0-1.66,0.743-1.66,1.661v36.785c0,0.916-0.741,1.658-1.657,1.658h-11.523 C387.758,54.523,387.013,53.782,387.013,52.866z"/><path id="Shape_8_" fill="#212223" d="M487.571,46.421c0-5.053,4.001-9.054,9.155-9.054c5.055,0,9.16,4.001,9.16,9.054 c0,5.156-4.105,9.261-9.16,9.261C491.572,55.68,487.571,51.578,487.571,46.421z"/><path id="Shape_9_" fill="#212223" d="M576.289,72.773v-9.072c0-1.11,1.107-1.93,2.146-1.53c1.845,0.716,3.82,1.095,5.852,1.095 c5.203,0,8.429-3.066,11.403-9.863c0.181-0.416,0.177-0.9-0.007-1.312L574.35,4.264c-0.474-1.062,0.305-2.265,1.472-2.265h11.866 c0.998,0,1.896,0.606,2.27,1.533l12.507,31.075c0.274,0.684,1.245,0.675,1.51-0.018l11.822-31.022 c0.359-0.945,1.269-1.57,2.278-1.57h11.586c1.148,0,1.927,1.171,1.482,2.231l-23.383,55.77 c-4.63,10.842-11.577,16.211-20.945,16.211c-3.63,0-6.741-0.522-9.202-1.504C576.814,74.391,576.289,73.63,576.289,72.773z"/><path id="Shape_10_" fill="#212223" d="M109.44,42.822c-0.583,0.152-1.265,0.229-2.024,0.229c-2.42,0-3.684-1.369-3.684-4.001 V21.26c0-6.421-2.316-11.476-6.949-15.157c-4.524-3.685-10.631-5.476-18.104-5.476c-6.415,0-12.612,1.171-17.146,3.151 c-0.004,0.016-0.007,0.033-0.012,0.051c1.971,3.188,3.562,6.626,4.727,10.264c0.016,0.003,0.029,0.008,0.044,0.011 c2.729-0.777,5.939-1.267,8.81-1.267c9.263,0,13.894,3.264,13.894,9.896v1.578c-4.21-2.211-9.264-3.264-15.159-3.264 c-5.684,0-10.524,1.476-14.631,4.42c-4.104,2.949-6.104,7.266-6.104,12.842c0,10.633,7.999,17.582,19.368,17.582 c7.267,0,13.143-2.293,17.72-6.771c0.189-0.188,0.498-0.129,0.617,0.113c2.062,4.188,5.886,6.234,11.663,6.234 c2.416,0,4.425-0.355,6.061-1.068c1.179-0.512,1.94-1.676,1.94-2.959V43.57C110.47,43.04,109.957,42.689,109.44,42.822z M88.995,37.945c0,0.717-0.228,1.426-0.705,1.957c-2.701,3.012-6.459,4.516-11.189,4.516c-5.475,0-9.369-2.21-9.369-6.841 c0-4.315,4.001-6.843,10.314-6.843c3.564,0,6.625,0.719,9.302,2.095c1.018,0.521,1.646,1.584,1.646,2.729L88.995,37.945z"/></g></g></g></svg>